<svg xmlns="http://www.w3.org/2000/svg" xmlns:xlink="http://www.w3.org/1999/xlink" version="1.1" width="75.85057747364044" height="60.99299156665802" viewBox="-1.0600302815437317 -1.6603785157203674 75.85057747364044 60.99299156665802">
  <defs>
    <linearGradient id="grad_1" x2="1">
      <stop offset="0" stop-color="#4F4F4F" stop-opacity="1"/>
      <stop offset="1" stop-color="#4F4F4F" stop-opacity="1"/>
    </linearGradient>
    <linearGradient id="grad_2" y2="1" x2="0">
      <stop offset="0" stop-color="#4F4F4F" stop-opacity="1"/>
      <stop offset="1" stop-color="#737373" stop-opacity="1"/>
    </linearGradient>
    <radialGradient id="grad_3" cx="0.5366" cy="0.2556" r="0.96772">
      <stop offset="0" stop-color="#737373" stop-opacity="1"/>
      <stop offset="1" stop-color="#4F4F4F" stop-opacity="1"/>
    </radialGradient>
    <radialGradient id="grad_4" cx="0.6192" cy="0.2218" r="1.01166">
      <stop offset="0" stop-color="#737373" stop-opacity="1"/>
      <stop offset="1" stop-color="#4F4F4F" stop-opacity="1"/>
    </radialGradient>
    <radialGradient id="grad_5" cx="0.4929" cy="0.5492" r="0.71396">
      <stop offset="0" stop-color="#646464" stop-opacity="1"/>
      <stop offset="1" stop-color="#434343" stop-opacity="1"/>
    </radialGradient>
    <radialGradient id="grad_6" cx="0.4929" cy="0.5492" r="0.71396">
      <stop offset="0" stop-color="#646464" stop-opacity="1"/>
      <stop offset="1" stop-color="#434343" stop-opacity="1"/>
    </radialGradient>
    <radialGradient id="grad_7" cx="0.4929" cy="0.5492" r="0.71396">
      <stop offset="0" stop-color="#646464" stop-opacity="1"/>
      <stop offset="1" stop-color="#434343" stop-opacity="1"/>
    </radialGradient>
    <linearGradient id="grad_8" x2="1">
      <stop offset="0" stop-color="#4F4F4F" stop-opacity="1"/>
      <stop offset="1" stop-color="#4F4F4F" stop-opacity="1"/>
    </linearGradient>
    <linearGradient id="grad_9" x2="1">
      <stop offset="0" stop-color="#4F4F4F" stop-opacity="1"/>
      <stop offset="1" stop-color="#4F4F4F" stop-opacity="1"/>
    </linearGradient>
    <linearGradient id="grad_10" x2="1">
      <stop offset="0" stop-color="#4F4F4F" stop-opacity="1"/>
      <stop offset="1" stop-color="#4F4F4F" stop-opacity="1"/>
    </linearGradient>
    <linearGradient id="grad_11" x2="1">
      <stop offset="0" stop-color="#4F4F4F" stop-opacity="1"/>
      <stop offset="1" stop-color="#4F4F4F" stop-opacity="1"/>
    </linearGradient>
    <linearGradient id="grad_12" x2="1">
      <stop offset="0" stop-color="#F0C590" stop-opacity="1"/>
      <stop offset="1" stop-color="#F0C590" stop-opacity="1"/>
    </linearGradient>
    <radialGradient id="grad_13" cx="0.6575" cy="0.5616" r="0.8547499999999999">
      <stop offset="0" stop-color="#E1B174" stop-opacity="1"/>
      <stop offset="1" stop-color="#AE632A" stop-opacity="1"/>
    </radialGradient>
    <radialGradient id="grad_14" cx="0.6575" cy="0.5616" r="0.8547499999999999">
      <stop offset="0" stop-color="#E1B174" stop-opacity="1"/>
      <stop offset="1" stop-color="#AE632A" stop-opacity="1"/>
    </radialGradient>
    <radialGradient id="grad_15" cx="0.6575" cy="0.5616" r="0.8547499999999999">
      <stop offset="0" stop-color="#E1B174" stop-opacity="1"/>
      <stop offset="1" stop-color="#AE632A" stop-opacity="1"/>
    </radialGradient>
    <radialGradient id="grad_16" cx="0.6575" cy="0.5616" r="0.8547499999999999">
      <stop offset="0" stop-color="#E1B174" stop-opacity="1"/>
      <stop offset="1" stop-color="#AE632A" stop-opacity="1"/>
    </radialGradient>
    <radialGradient id="grad_17" cx="0.6575" cy="0.5616" r="0.8547499999999999">
      <stop offset="0" stop-color="#E1B174" stop-opacity="1"/>
      <stop offset="1" stop-color="#AE632A" stop-opacity="1"/>
    </radialGradient>
    <radialGradient id="grad_18" cx="0.6575" cy="0.5616" r="0.8547499999999999">
      <stop offset="0" stop-color="#E1B174" stop-opacity="1"/>
      <stop offset="1" stop-color="#AE632A" stop-opacity="1"/>
    </radialGradient>
    <radialGradient id="grad_19" cx="0.6575" cy="0.5616" r="0.8547499999999999">
      <stop offset="0" stop-color="#E1B174" stop-opacity="1"/>
      <stop offset="1" stop-color="#AE632A" stop-opacity="1"/>
    </radialGradient>
    <radialGradient id="grad_20" cx="0.6575" cy="0.5616" r="0.8547499999999999">
      <stop offset="0" stop-color="#E1B174" stop-opacity="1"/>
      <stop offset="1" stop-color="#AE632A" stop-opacity="1"/>
    </radialGradient>
    <radialGradient id="grad_21" cx="0.6575" cy="0.5616" r="0.8547499999999999">
      <stop offset="0" stop-color="#E1B174" stop-opacity="1"/>
      <stop offset="1" stop-color="#AE632A" stop-opacity="1"/>
    </radialGradient>
    <radialGradient id="grad_22" cx="0.6575" cy="0.5616" r="0.8547499999999999">
      <stop offset="0" stop-color="#E1B174" stop-opacity="1"/>
      <stop offset="1" stop-color="#AE632A" stop-opacity="1"/>
    </radialGradient>
    <radialGradient id="grad_23" cx="0.6575" cy="0.5616" r="0.8547499999999999">
      <stop offset="0" stop-color="#E1B174" stop-opacity="1"/>
      <stop offset="1" stop-color="#AE632A" stop-opacity="1"/>
    </radialGradient>
    <linearGradient id="grad_24" x2="1">
      <stop offset="0" stop-color="#4F4F4F" stop-opacity="1"/>
      <stop offset="1" stop-color="#4F4F4F" stop-opacity="1"/>
    </linearGradient>
    <linearGradient id="grad_25" y2="1" x2="0">
      <stop offset="0" stop-color="#4F4F4F" stop-opacity="1"/>
      <stop offset="1" stop-color="#737373" stop-opacity="1"/>
    </linearGradient>
    <radialGradient id="grad_26" cx="0.5366" cy="0.2556" r="0.96772">
      <stop offset="0" stop-color="#737373" stop-opacity="1"/>
      <stop offset="1" stop-color="#4F4F4F" stop-opacity="1"/>
    </radialGradient>
    <radialGradient id="grad_27" cx="0.6192" cy="0.2218" r="1.01166">
      <stop offset="0" stop-color="#737373" stop-opacity="1"/>
      <stop offset="1" stop-color="#4F4F4F" stop-opacity="1"/>
    </radialGradient>
    <radialGradient id="grad_28" cx="0.4929" cy="0.5492" r="0.71396">
      <stop offset="0" stop-color="#646464" stop-opacity="1"/>
      <stop offset="1" stop-color="#434343" stop-opacity="1"/>
    </radialGradient>
    <radialGradient id="grad_29" cx="0.4929" cy="0.5492" r="0.71396">
      <stop offset="0" stop-color="#646464" stop-opacity="1"/>
      <stop offset="1" stop-color="#434343" stop-opacity="1"/>
    </radialGradient>
    <radialGradient id="grad_30" cx="0.4929" cy="0.5492" r="0.71396">
      <stop offset="0" stop-color="#646464" stop-opacity="1"/>
      <stop offset="1" stop-color="#434343" stop-opacity="1"/>
    </radialGradient>
  <radialGradient id="grad_3-.0641272068023682,0,0,1.0641272068023682,-190.85,-155.25" cx="20.5131" cy="19.5736" r="10.4739" gradientUnits="userSpaceOnUse">
      <stop offset="0" stop-color="#737373" stop-opacity="1"/>
      <stop offset="1" stop-color="#4F4F4F" stop-opacity="1"/>
    </radialGradient><radialGradient id="grad_5-.7227405905723572,0,0,0.7227405905723572,-111.9,-97.8" cx="19.9277" cy="21.8495" r="1.8318" gradientUnits="userSpaceOnUse">
      <stop offset="0" stop-color="#646464" stop-opacity="1"/>
      <stop offset="1" stop-color="#434343" stop-opacity="1"/>
    </radialGradient><radialGradient id="grad_6-.7227405905723572,0,0,0.7227405905723572,-114.55,-94.7" cx="17.2777" cy="24.9495" r="1.8318" gradientUnits="userSpaceOnUse">
      <stop offset="0" stop-color="#646464" stop-opacity="1"/>
      <stop offset="1" stop-color="#434343" stop-opacity="1"/>
    </radialGradient><radialGradient id="grad_7-.7227405905723572,0,0,0.7227405905723572,-109.1,-94.5" cx="22.7277" cy="25.1495" r="1.8318" gradientUnits="userSpaceOnUse">
      <stop offset="0" stop-color="#646464" stop-opacity="1"/>
      <stop offset="1" stop-color="#434343" stop-opacity="1"/>
    </radialGradient><linearGradient id="grad_8-.0913459062576294,0,0,0.5939188003540039,-216.65,-79" x2="33.2136" x1="22.3548" y1="34.5573" y2="34.5573" gradientUnits="userSpaceOnUse">
      <stop offset="0" stop-color="#4F4F4F" stop-opacity="1"/>
      <stop offset="1" stop-color="#4F4F4F" stop-opacity="1"/>
    </linearGradient><linearGradient id="grad_10-.15714430809021,0,0,0.5939188003540039,-228.3,-75.35" x2="48.3154" x1="25.1146" y1="36.9304" y2="36.9304" gradientUnits="userSpaceOnUse">
      <stop offset="0" stop-color="#4F4F4F" stop-opacity="1"/>
      <stop offset="1" stop-color="#4F4F4F" stop-opacity="1"/>
    </linearGradient><radialGradient id="grad_13-.1662404537200928,0,0,1.1662404537200928,-203.75,-170.8" cx="13.0536" cy="15.2798" r="3.5211" gradientUnits="userSpaceOnUse">
      <stop offset="0" stop-color="#E1B174" stop-opacity="1"/>
      <stop offset="1" stop-color="#AE632A" stop-opacity="1"/>
    </radialGradient><radialGradient id="grad_14-.1662404537200928,0,0,1.1662404537200928,-205.15,-169.55" cx="11.6616" cy="16.4097" r="3.6595" gradientUnits="userSpaceOnUse">
      <stop offset="0" stop-color="#E1B174" stop-opacity="1"/>
      <stop offset="1" stop-color="#AE632A" stop-opacity="1"/>
    </radialGradient><radialGradient id="grad_15-.1662404537200928,0,0,1.1662404537200928,-206.75,-168" cx="10.0541" cy="17.961" r="3.6546" gradientUnits="userSpaceOnUse">
      <stop offset="0" stop-color="#E1B174" stop-opacity="1"/>
      <stop offset="1" stop-color="#AE632A" stop-opacity="1"/>
    </radialGradient><radialGradient id="grad_16-.310023546218872,0,0,1.310023546218872,-234.65,-189" cx="8.8848" cy="19.8833" r="4.0903" gradientUnits="userSpaceOnUse">
      <stop offset="0" stop-color="#E1B174" stop-opacity="1"/>
      <stop offset="1" stop-color="#AE632A" stop-opacity="1"/>
    </radialGradient><radialGradient id="grad_17-.4465314149856567,-0.2603985071182251,0.2603985071182251,1.4465314149856567,-303,-161.15" cx="7.4323" cy="21.0912" r="4.5891" gradientUnits="userSpaceOnUse">
      <stop offset="0" stop-color="#E1B174" stop-opacity="1"/>
      <stop offset="1" stop-color="#AE632A" stop-opacity="1"/>
    </radialGradient><radialGradient id="grad_18-.3918256759643555,-0.4723152816295624,0.4723152816295624,1.3918256759643555,-328.25,-110.75" cx="5.8026" cy="23.3728" r="4.5891" gradientUnits="userSpaceOnUse">
      <stop offset="0" stop-color="#E1B174" stop-opacity="1"/>
      <stop offset="1" stop-color="#AE632A" stop-opacity="1"/>
    </radialGradient><radialGradient id="grad_19-.1278034448623657,-0.942507266998291,0.942507266998291,1.1278034448623657,-355.2,21.55" cx="4.7427" cy="26.1652" r="4.5891" gradientUnits="userSpaceOnUse">
      <stop offset="0" stop-color="#E1B174" stop-opacity="1"/>
      <stop offset="1" stop-color="#AE632A" stop-opacity="1"/>
    </radialGradient><radialGradient id="grad_20-.778253972530365,-1.5934242010116577,1.5934242010116577,0.778253972530365,-393.35,200.75" cx="5.3999" cy="28.6234" r="5.5369" gradientUnits="userSpaceOnUse">
      <stop offset="0" stop-color="#E1B174" stop-opacity="1"/>
      <stop offset="1" stop-color="#AE632A" stop-opacity="1"/>
    </radialGradient><radialGradient id="grad_21-.003129436168819666,-1.7733218669891357,1.7733218669891357,0.003129436168819666,-277.05,359.5" cx="6.2881" cy="30.3365" r="5.5369" gradientUnits="userSpaceOnUse">
      <stop offset="0" stop-color="#E1B174" stop-opacity="1"/>
      <stop offset="1" stop-color="#AE632A" stop-opacity="1"/>
    </radialGradient><radialGradient id="grad_22-0.5790072083473206,-1.6761356592178345,1.6761356592178345,-0.5790072083473206,-150.5,435.8" cx="9.1219" cy="31.8818" r="5.5369" gradientUnits="userSpaceOnUse">
      <stop offset="0" stop-color="#E1B174" stop-opacity="1"/>
      <stop offset="1" stop-color="#AE632A" stop-opacity="1"/>
    </radialGradient><radialGradient id="grad_23-.3310973644256592,1.3796685934066772,-1.46064031124115,1.4082322120666504,-1.9,-446.5" cx="12.6533" cy="34.5246" r="6.1629" gradientUnits="userSpaceOnUse">
      <stop offset="0" stop-color="#E1B174" stop-opacity="1"/>
      <stop offset="1" stop-color="#AE632A" stop-opacity="1"/>
    </radialGradient><radialGradient id="grad_26-.0641272068023682,0,0,1.0641272068023682,-191.05,-150.15" cx="20.3131" cy="24.6736" r="10.4739" gradientUnits="userSpaceOnUse">
      <stop offset="0" stop-color="#737373" stop-opacity="1"/>
      <stop offset="1" stop-color="#4F4F4F" stop-opacity="1"/>
    </radialGradient><radialGradient id="grad_28-.7227405905723572,0,0,0.7227405905723572,-112,-92.65" cx="19.8277" cy="26.9995" r="1.8318" gradientUnits="userSpaceOnUse">
      <stop offset="0" stop-color="#646464" stop-opacity="1"/>
      <stop offset="1" stop-color="#434343" stop-opacity="1"/>
    </radialGradient><radialGradient id="grad_29-.7227405905723572,0,0,0.7227405905723572,-114.75,-89.55" cx="17.0777" cy="30.0995" r="1.8318" gradientUnits="userSpaceOnUse">
      <stop offset="0" stop-color="#646464" stop-opacity="1"/>
      <stop offset="1" stop-color="#434343" stop-opacity="1"/>
    </radialGradient><radialGradient id="grad_30-.7227405905723572,0,0,0.7227405905723572,-109.2,-89.4" cx="22.6277" cy="30.2495" r="1.8318" gradientUnits="userSpaceOnUse">
      <stop offset="0" stop-color="#646464" stop-opacity="1"/>
      <stop offset="1" stop-color="#434343" stop-opacity="1"/>
    </radialGradient></defs>
  <!-- Exported by Scratch - http://scratch.mit.edu/ -->
  <g id="ID0.10950249573215842">
    <path id="ID0.6494581247679889" fill="none" stroke="url(#grad_1)" stroke-width="5.281088948249817" d="M 17.2484 40.7902 L 23.1632 40.7902 L 23.1632 44.8567 L 17.2484 44.8567 L 17.2484 40.7902 Z "/>
    <path id="ID0.11857579834759235" fill="#4F4F4F" stroke="none" d="M 16.9416 32.0161 L 23.6475 32.0161 L 23.6475 45.4279 L 16.9416 45.4279 L 16.9416 32.0161 Z " stroke-width="1.1662404537200928"/>
    <path id="ID0.4165389509871602" fill="none" stroke="url(#grad_2)" stroke-width="2.3324809074401855" stroke-linecap="round" d="M 15.7753 33.5992 L 15.7753 44.387 L 24.6971 44.4453 L 24.7554 33.5992 "/>
    <path id="ID0.8643447342328727" fill="#F3E066" stroke="none" d="M 14.3758 28.6427 L 26.0382 28.6427 L 26.0382 34.1824 L 14.3758 34.1824 L 14.3758 28.6427 Z " stroke-width="1.1662404537200928"/>
    <path id="ID0.3959999615326524" fill="#000000" stroke="none" stroke-linecap="round" d="M 14.3758 32.1414 L 14.4342 30.1588 L 19.449 34.2407 L 17.1165 34.2407 L 14.3758 32.1414 Z " stroke-width="1.1662404537200928"/>
    <path id="ID0.3959999615326524" fill="#000000" stroke="none" stroke-linecap="round" d="M 16.972 28.7309 L 19.5611 28.7309 L 25.8588 34.3288 L 23.0598 34.3288 L 16.972 28.7309 Z " stroke-width="1.3994885683059692"/>
    <path id="ID0.6601373604498804" fill="url(#grad_3-.0641272068023682,0,0,1.0641272068023682,-190.85,-155.25)" stroke="url(#grad_4)" stroke-width="2.1282544136047363" stroke-linecap="round" d="M 24.9018 28.5248 L 15.4311 28.3651 L 15.4311 20.8098 L 20.0068 16.5001 L 24.9018 20.6502 L 24.9018 28.5248 Z "/>
    <path id="ID0.811193433124572" fill="url(#grad_5-.7227405905723572,0,0,0.7227405905723572,-111.9,-97.8)" stroke="none" d="M 19.946 20.4404 C 20.3001 20.4404 20.6203 20.5842 20.853 20.8162 C 21.085 21.0489 21.2288 21.3691 21.2288 21.7232 C 21.2288 22.0774 21.085 22.3975 20.853 22.6303 C 20.6203 22.8623 20.3001 23.0061 19.946 23.0061 C 19.5918 23.0061 19.2716 22.8623 19.0389 22.6303 C 18.8069 22.3975 18.6631 22.0774 18.6631 21.7232 C 18.6631 21.3691 18.8069 21.0489 19.0389 20.8162 C 19.2716 20.5842 19.5918 20.4404 19.946 20.4404 Z " stroke-width="0.7227405905723572"/>
    <path id="ID0.811193433124572" fill="url(#grad_6-.7227405905723572,0,0,0.7227405905723572,-114.55,-94.7)" stroke="none" d="M 17.296 23.5404 C 17.6501 23.5404 17.9703 23.6842 18.203 23.9162 C 18.435 24.1489 18.5788 24.4691 18.5788 24.8232 C 18.5788 25.1774 18.435 25.4975 18.203 25.7303 C 17.9703 25.9623 17.6501 26.1061 17.296 26.1061 C 16.9418 26.1061 16.6216 25.9623 16.3889 25.7303 C 16.1569 25.4975 16.0131 25.1774 16.0131 24.8232 C 16.0131 24.4691 16.1569 24.1489 16.3889 23.9162 C 16.6216 23.6842 16.9418 23.5404 17.296 23.5404 Z " stroke-width="0.7227405905723572"/>
    <path id="ID0.811193433124572" fill="url(#grad_7-.7227405905723572,0,0,0.7227405905723572,-109.1,-94.5)" stroke="none" d="M 22.746 23.7404 C 23.1001 23.7404 23.4203 23.8842 23.653 24.1162 C 23.885 24.3489 24.0288 24.6691 24.0288 25.0232 C 24.0288 25.3774 23.885 25.6975 23.653 25.9303 C 23.4203 26.1623 23.1001 26.3061 22.746 26.3061 C 22.3918 26.3061 22.0716 26.1623 21.8389 25.9303 C 21.6069 25.6975 21.4631 25.3774 21.4631 25.0232 C 21.4631 24.6691 21.6069 24.3489 21.8389 24.1162 C 22.0716 23.8842 22.3918 23.7404 22.746 23.7404 Z " stroke-width="0.7227405905723572"/>
  </g>
  <path id="ID0.8862749082036316" fill="#3C71B4" stroke="#2F588C" stroke-width="2" stroke-linecap="round" d="M 31.5 56 C 32.71 56.268 33.847 53.26 34.4 51.6 C 35.014 49.382 34.453 46.936 34.9 44.7 C 35.714 40.685 39.436 33.621 38.05 32.8 C 36.664 31.979 31.938 38.484 28.7 41.1 C 27.89 41.754 27.026 40.953 26.95 41.55 C 26.784 42.852 27.901 43.965 28.2 45.2 C 28.587 46.889 28.489 48.659 29 50.3 C 29.587 52.189 30.073 55.663 31.5 56 Z "/>
  <path id="ID0.2703543044626713" fill="#FFFFFF" stroke="none" d="M 37.425 32.1 C 38.053 32.1 38.621 32.431 39.033 32.965 C 39.445 33.499 39.7 34.236 39.7 35.05 C 39.7 35.864 39.445 36.601 39.033 37.135 C 38.621 37.669 38.053 38 37.425 38 C 36.797 38 36.229 37.669 35.817 37.135 C 35.405 36.601 35.15 35.864 35.15 35.05 C 35.15 34.236 35.405 33.499 35.817 32.965 C 36.229 32.431 36.797 32.1 37.425 32.1 Z " stroke-width="1"/>
  <path id="ID0.4931722558103502" fill="url(#grad_8-.0913459062576294,0,0,0.5939188003540039,-216.65,-79)" stroke="url(#grad_9)" stroke-width="1.75714281065554" d="M 22.3548 34.5573 L 26.5564 36.7548 L 33.2136 36.9923 L 32.2314 39.4571 L 22.3548 39.7838 L 22.3548 34.5573 Z "/>
  <path id="ID0.4931722558103502" fill="url(#grad_10-.15714430809021,0,0,0.5939188003540039,-228.3,-75.35)" stroke="url(#grad_11)" stroke-width="1.839414304152009" d="M 25.1146 38.2073 L 28.2968 39.6921 L 40.7361 39.6921 L 44.1496 36.9303 L 48.3153 37.6431 L 45.5382 42.0381 L 25.4617 42.7508 L 25.1146 38.2073 Z "/>
  <path id="ID0.3092493093572557" fill="#FFD499" stroke="#F0C690" stroke-width="1.116069194040683" stroke-linecap="round" d="M 27.2461 36.4304 C 26.8859 36.74 27.7406 37.9577 28.3364 38.4916 C 29.9904 39.977 31.8693 41.2748 33.9499 41.9492 C 36.2558 42.7259 38.7749 42.7548 41.1825 42.7398 C 43.1525 42.7311 45.1333 42.4745 47.0489 41.98 C 47.8029 41.7856 48.7842 41.56 49.0724 40.8099 C 49.6161 39.574 50.0918 37.8044 49.2555 36.7132 C 48.4466 35.662 46.6578 35.7619 45.3417 35.9462 C 44.0118 36.1326 42.98 37.4316 41.6405 37.6547 C 40.0598 37.9196 38.3539 37.806 36.8424 37.2466 C 34.5769 36.4791 32.947 34.0515 30.5507 33.7578 L 27.5309 36.2276 Z "/>
  <path id="ID0.09319758368656039" fill="#3C71B4" stroke="#2F588D" stroke-width="1.6734694242477417" stroke-linecap="round" d="M 29.1796 29.8806 C 28.3839 30.089 27.8944 30.8772 27.3388 31.3867 C 26.9196 31.7741 26.4451 32.1147 26.0837 32.5582 C 25.7005 33.0284 25.2955 33.5246 25.1214 34.1061 C 24.9616 34.64 25.0729 35.2248 25.1214 35.7796 C 25.1708 36.3436 25.0269 37.0406 25.4143 37.4531 C 25.8076 37.8714 26.5138 37.8497 27.0878 37.8714 C 27.6534 37.8924 28.2943 37.8974 28.7612 37.5786 C 29.2524 37.243 29.4214 36.5854 29.7235 36.0725 C 30.0205 35.5679 30.0992 34.886 30.5602 34.5245 C 31.012 34.1706 31.6664 34.1948 32.2337 34.1061 C 32.8269 34.0132 33.4503 34.1262 34.0327 33.9806 C 34.5832 33.8434 35.3932 33.8049 35.5806 33.2694 C 35.7814 32.6979 35.3405 31.9758 34.8694 31.5959 C 33.9624 30.8638 32.8085 30.4571 31.6898 30.1316 C 30.8096 29.8773 29.9502 29.6363 29.1796 29.8806 Z "/>
  <g id="ID0.7357129715383053">
    <path id="ID0.191649260930717" fill="#FFD499" stroke="none" stroke-linecap="round" d="M 37.3 7.65 C 40.978 6.493 45.625 3.341 48.707 5.658 C 51.95 8.095 49.425 13.874 50.65 17.8 C 50.956 18.746 52.568 18.197 52.9 19 C 53.41 20.231 53.361 21.822 52.85 23 C 52.62 23.526 51.454 22.84 51.15 23.3 C 49.997 25.047 50.368 27.764 48.707 29.092 C 45.59 31.585 41.737 33.772 37.75 33.95 C 34.9 34.077 32.729 31.154 30.2 29.8 C 29.313 29.326 28.167 29.275 27.65 28.4 C 25.413 24.97 21.69 21.423 22.25 17.375 C 22.689 14.197 27.16 13.217 29.85 11.45 C 32.193 9.964 34.622 8.492 37.3 7.65 Z " stroke-width="1"/>
    <path id="ID0.8556915456429124" fill="#F0C690" stroke="none" stroke-linecap="round" d="M 40 2.3 C 40.698 2.319 41.258 2.983 41.95 3.1 C 43.268 3.322 44.568 3.349 45.85 3.3 C 46.812 3.265 48.027 2.188 48.65 2.85 C 49.973 4.259 51.124 6.426 50.65 8.3 C 50.309 9.65 48.179 9.445 46.9 9.85 C 38.125 12.557 39.145 10.202 37.2 9.7 C 36.63 9.442 35.544 9.501 35.35 10.1 C 34.774 11.877 33.696 15.071 35.2 15.6 C 37.422 16.382 40.025 12.823 42.7 12.7 C 44.425 12.621 46.686 13.351 47.35 14.9 C 48.294 17.209 48.276 20.456 46.7 22.3 C 45.236 24.012 42.298 23.917 40.05 23.55 C 38.099 23.22 35.873 18.864 34.95 20.35 C 33.14 23.266 35.639 28.419 34.7 32.35 C 34.466 33.333 33.152 31.491 32.35 31.1 C 30.556 30.225 28.539 29.706 26.95 28.5 C 25.892 27.696 25.315 26.32 24.65 25.1 C 23.961 23.914 23.069 22.727 22.9 21.3 C 22.495 17.877 21.952 14.249 22.95 10.95 C 23.625 8.721 25.649 7.114 27.45 5.7 C 29.191 4.406 31.308 3.566 33.35 3 C 35.495 2.404 37.775 2.246 40 2.3 Z " stroke-width="1"/>
    <path id="ID0.2703239833936095" fill="#653B00" stroke="none" stroke-linecap="round" d="M 42.125 14.15 C 43.567 14.15 44.715 14.276 45.819 14.853 C 46.638 15.282 47.624 16.122 47.65 17.1 C 47.624 17.792 46.521 18.113 45.819 18.247 C 44.553 18.488 43.245 18.088 41.95 18.05 C 40.782 18.088 39.578 18.496 38.431 18.247 C 37.737 18.095 36.713 17.726 36.7 17.05 C 36.713 16.102 37.624 15.272 38.431 14.853 C 39.529 14.284 40.683 14.15 42.125 14.15 Z " stroke-width="1"/>
    <g id="ID0.956311296671629">
      <path id="ID0.30213406030088663" fill="#FFFFFF" stroke="none" stroke-linecap="round" d="M 42.033 15.0415 C 43.2027 15.0136 44.5644 14.9997 45.4378 15.7646 C 46.333 16.5504 46.8074 17.7798 46.8074 19.0699 C 46.8074 20.36 46.3419 21.5994 45.4378 22.3753 C 44.5784 23.1113 43.2694 23.0139 42.1822 22.9989 C 41.0273 23.0139 39.6119 23.179 38.8271 22.3753 C 38.0324 21.5586 38.1259 20.1621 38.1537 19.0202 C 38.1259 17.9111 38.0344 16.5534 38.8271 15.7646 C 39.604 14.9927 40.9448 15.0136 42.033 15.0415 Z " stroke-width="0.9946808218955994"/>
      <path id="ID0.8961478788405657" fill="#000000" stroke="none" stroke-linecap="round" d="M 44.3988 15.0947 C 45.0642 15.0947 45.7486 15.6547 46.1037 16.2386 C 46.5543 16.9796 46.6915 17.9086 46.7114 18.775 C 46.6915 19.7886 46.6149 20.8917 46.1037 21.759 C 45.7476 22.3628 44.9747 22.7666 44.2745 22.8035 C 43.6538 22.7666 43.0271 22.2902 42.6939 21.759 C 42.1916 20.9583 41.9867 20.076 41.9867 18.9988 C 41.9867 17.9216 42.2572 16.9458 42.6939 16.2386 C 43.1306 15.5323 43.7334 15.0947 44.3988 15.0947 Z " stroke-width="0.9946808218955994"/>
    </g>
    <path id="ID0.06146117439493537" fill="#F0C690" stroke="#FFDBA0" stroke-width="1.7719573293729474" stroke-linecap="round" d="M 28.2876 19.9059 C 29.4869 20.0887 30.7422 20.4526 31.6392 21.2205 C 32.3764 21.9177 32.8077 23.0171 32.8365 23.9836 C 32.8717 25.1313 32.7755 26.6496 31.8138 27.2774 C 30.7186 27.9919 29.0293 27.7606 27.803 27.2003 C 26.6078 26.638 25.8373 25.3617 25.154 24.1899 C 24.7091 23.426 24.5145 22.4951 24.6139 21.5916 C 24.6705 21.0816 25.1564 20.642 25.6228 20.4259 C 26.4883 20.025 27.3938 19.7697 28.2876 19.9059 Z "/>
    <path id="ID0.9459127215668559" fill="#FFD499" stroke="none" stroke-linecap="round" d="M 28.8 23.4 C 29.604 23.799 30.453 24.177 31.3 24.55 C 31.556 24.62 32.113 24.425 32.1 24.725 C 32.07 25.389 31.726 26.088 31.206 26.51 C 30.72 26.904 30.037 26.909 29.45 26.85 C 28.892 26.836 28.338 26.611 27.9 26.3 C 27.348 25.902 26.758 25.485 26.45 24.85 C 25.966 23.851 25.109 21.949 25.7 21.6 C 26.338 21.223 27.731 22.871 28.8 23.4 Z " stroke-width="1"/>
    <path id="ID0.6276269098743796" fill="#F0C690" stroke="none" d="M 31.4745 20.1428 L 33.7183 20.4641 L 33.5444 28.6505 L 31.2928 28.6931 L 31.4745 20.1428 Z " stroke-width="1.3604594252276252"/>
    <path id="ID0.7435970422811806" fill="none" stroke="#663B00" stroke-width="2" stroke-linecap="round" d="M 40.45 11.35 L 47.7 14.4 "/>
    <path id="ID0.41598089784383774" fill="none" stroke="url(#grad_12)" stroke-width="2" stroke-linecap="round" d="M 49.8 8.75 L 49.8 17.5 L 52.6 18.7 L 52.4 23.2 L 50.15 23.85 L 49.3 26.9 L 45.3 31.25 L 37.35 33.1 L 33.4 31.05 "/>
    <path id="ID0.46292465971782804" fill="#876A53" stroke="none" stroke-linecap="round" d="M 36.8853 26.7261 C 39.2007 27.0979 41.5902 26.5668 43.8505 26.3943 C 46.085 26.2239 48.6711 24.8299 50.5348 25.6198 C 51.4774 26.0203 49.9989 27.8856 49.3552 28.8281 C 48.57 29.9687 47.5162 30.9777 46.3782 31.8152 C 45.3502 32.5121 44.1853 33.104 42.9517 33.364 C 40.7431 33.8275 38.3289 34.6097 36.2112 33.8618 C 34.3441 33.2047 32.4938 31.48 31.9984 29.5472 C 31.5682 27.8667 32.3849 25.5214 33.8521 24.6795 C 34.9025 24.0776 35.7124 26.4994 36.8853 26.7261 Z " stroke-width="1.1148966279215178"/>
    <path id="ID0.46292465971782804" fill="#9C7A60" stroke="none" stroke-linecap="round" d="M 37.4 26.6627 C 38.362 26.7001 39.047 25.5364 40 25.4325 C 40.801 25.346 41.595 25.8462 42.35 25.9793 C 43.143 26.1178 43.903 26.3729 44.75 26.2982 C 46.109 26.1798 47.949 24.9532 48.75 25.4781 C 49.378 25.8918 48.271 27.4063 47.75 28.1663 C 47.182 28.9937 46.351 29.6698 45.5 30.2621 C 44.57 30.91 43.611 31.5333 42.5 31.7657 C 40.497 32.173 38.385 32.7917 36.5 32.1757 C 34.838 31.6345 33.275 30.192 32.75 28.6219 C 32.338 27.3853 32.748 25.5237 33.95 24.9769 C 35.053 24.4767 36.102 26.5297 37.4 26.6627 Z " stroke-width="0.956651212253104"/>
    <path id="ID0.8556915456429124" fill="#663B00" stroke="none" stroke-linecap="round" d="M 39.45 1.55 C 40.148 1.569 40.708 2.233 41.4 2.35 C 42.718 2.572 44.021 2.783 45.3 2.55 C 46.454 2.339 47.695 0.323 48.5 1.2 C 50.018 2.743 50.672 5.397 50.1 7.55 C 49.753 8.856 47.697 8.994 46.35 9.1 C 42.953 9.368 39.475 8.532 36 8.6 C 35.179 8.625 35.083 8.506 34.8 9.35 C 33.669 12.728 34.111 16.673 32.35 19.75 C 31.695 20.823 29.821 19.901 28.6 20 C 26.518 20.169 23.416 22.295 22.35 20.55 C 20.557 17.608 21.74 13.583 22.4 10.2 C 22.841 7.942 23.808 5.484 25.65 4.1 C 27.595 2.589 30.356 2.692 32.8 2.25 C 34.991 1.854 37.225 1.496 39.45 1.55 Z " stroke-width="1"/>
    <path id="ID0.4824404357932508" fill="#7C4600" stroke="#7C4600" stroke-width="2" stroke-linecap="round" d="M 47.5 2.4 C 47.381 2.164 45.145 3.81 43.65 3.85 C 42.025 3.893 40.535 2.421 38.9 2.55 C 34.602 2.889 29.828 2.903 26.15 5.2 C 24.157 6.487 23.404 10.464 23.95 12 C 24.288 12.952 26.81 11.041 28 10.2 C 29.365 9.299 30.041 7.454 31.5 6.85 C 33.416 6.056 35.646 6.536 37.7 6.25 C 40.427 5.87 43.274 5.822 45.85 4.85 C 46.845 4.474 48.357 2.608 47.9 2.4 Z "/>
    <path id="ID0.5121778678148985" fill="#A57647" stroke="#A57647" stroke-width="0.5658375621728011" stroke-linecap="round" d="M 44.4389 3.6005 C 44.2943 3.7643 44.0059 3.6109 43.7472 3.6624 C 43.533 3.7049 43.323 3.8012 43.1812 3.9345 C 43.0409 4.0667 43.1079 4.3039 42.9454 4.417 C 42.4772 4.7342 41.1776 4.8864 41.2003 5.0974 C 41.2688 5.3582 42.5467 5.3171 43.134 5.3943 C 43.3547 5.423 43.572 5.5128 43.7943 5.4933 C 44.2411 5.454 44.6791 5.3468 45.0992 5.2211 C 45.319 5.1553 45.5133 5.0405 45.6966 4.9242 C 45.8668 4.8163 46.0218 4.6904 46.1526 4.5531 C 46.6072 4.0825 47.2732 3.5901 47.6461 2.982 C 47.7552 2.7486 47.8735 2.1006 47.5204 2.1655 C 46.4661 2.3721 45.5589 3.2578 44.549 3.6624 Z "/>
    <path id="ID0.5121778678148985" fill="#A57647" stroke="#A57647" stroke-width="0.5658375621728011" stroke-linecap="round" d="M 36.6389 3.3005 C 36.4943 3.4242 36.2059 3.3109 35.9472 3.3624 C 35.733 3.4049 35.5862 3.5771 35.3812 3.6345 C 35.007 3.7315 34.2587 3.4895 34.092 3.7088 C 33.9489 3.9146 34.3634 4.2756 34.658 4.3892 C 35.0913 4.5916 35.6447 4.6161 36.0887 4.5747 C 36.4242 4.5413 36.7301 4.4426 37.032 4.2655 C 37.2574 4.1361 37.3285 3.8337 37.5979 3.7706 C 38.085 3.6548 38.7082 3.7701 39.2802 3.6469 C 39.4575 3.6385 39.8964 3.5437 39.7832 3.3871 C 39.5402 3.1041 38.8962 2.866 38.3997 2.8923 C 37.7948 2.8569 37.3209 3.2213 36.749 3.3624 Z "/>
  </g>
  <path id="ID0.4464579694904387" fill="#434343" stroke="none" d="M 72.075 21.8 C 72.096 21.8 72.114 21.8 72.128 21.8 C 72.142 21.8 72.15 21.8 72.15 21.8 C 72.15 21.8 72.142 21.8 72.128 21.8 C 72.114 21.8 72.096 21.8 72.075 21.8 C 72.054 21.8 72.036 21.8 72.022 21.8 C 72.008 21.8 72 21.8 72 21.8 C 72 21.8 72.008 21.8 72.022 21.8 C 72.036 21.8 72.054 21.8 72.075 21.8 Z " stroke-width="1"/>
  <path id="ID0.68038400541991" fill="#434343" stroke="#434343" stroke-width="1.6951220035552979" stroke-linecap="round" d="M 34.6247 51.5924 C 33.7424 51.1711 32.5931 51.5975 31.6159 51.6771 C 31.0471 51.7238 30.3733 51.5839 29.9207 51.9314 C 29.4698 52.2781 29.2113 52.9315 29.2427 53.4994 C 29.274 54.0673 29.7173 54.5529 30.0902 54.9826 C 30.4657 55.4157 30.9471 55.7607 31.4463 56.0421 C 31.96 56.3311 32.5109 56.6396 33.0991 56.6777 C 33.6661 56.7142 34.4196 56.715 34.7518 56.254 C 35.0824 55.7946 34.7222 55.1165 34.6247 54.5588 C 34.5238 53.9825 34.1713 53.4485 34.1585 52.8637 C 34.1484 52.406 35.0129 51.7644 34.6247 51.5924 Z "/>
  <path id="ID0.20703006582334638" fill="url(#grad_13-.1662404537200928,0,0,1.1662404537200928,-203.75,-170.8)" stroke="none" d="M 12.6459 13.0578 C 13.0716 13.0205 13.5684 13.0648 13.888 13.3902 C 14.2693 13.7762 14.5119 14.3069 14.5119 14.8946 C 14.5119 15.4824 14.274 16.0142 13.888 16.3991 C 13.5031 16.7851 12.9713 17.023 12.3835 17.023 C 11.7957 17.023 11.2639 16.7851 10.8791 16.3991 C 10.493 16.0142 10.2365 15.4393 10.2551 14.8946 C 10.2715 14.4095 10.6015 14.0048 10.9549 13.7576 C 11.4412 13.3599 12.057 13.1068 12.6459 13.0578 Z " stroke-width="1.1662404537200928"/>
  <path id="ID0.20703006582334638" fill="url(#grad_14-.1662404537200928,0,0,1.1662404537200928,-205.15,-169.55)" stroke="none" d="M 10.9835 14.0162 C 11.5258 14.0046 12.1439 14.2215 12.488 14.6402 C 12.9311 15.1837 13.2192 16.0129 13.1119 16.7569 C 13.0664 17.1103 12.4413 17.0403 12.1206 17.2817 C 11.7217 17.5849 11.4885 18.2264 10.9835 18.273 C 10.4424 18.322 9.8639 18.0351 9.4791 17.6491 C 9.093 17.2642 8.7443 16.6753 8.8551 16.1446 C 8.9857 15.5207 9.6073 15.116 10.0214 14.6577 C 10.3234 14.4011 10.6103 14.0244 10.9835 14.0162 Z " stroke-width="1.1662404537200928"/>
  <g id="ID0.7100869915448129">
    <path id="ID0.8643447342328727" fill="#F3E066" stroke="none" d="M 12.1192 19.281 L 21.4899 19.281 L 21.4899 23.7321 L 12.1192 23.7321 L 12.1192 19.281 Z " stroke-width="0.9370665550231934"/>
    <path id="ID0.3959999615326524" fill="#000000" stroke="none" stroke-linecap="round" d="M 12.1192 22.0922 L 12.1661 20.4992 L 16.1955 23.779 L 14.3213 23.779 L 12.1192 22.0922 Z " stroke-width="0.9370665550231934"/>
    <path id="ID0.3959999615326524" fill="#000000" stroke="none" stroke-linecap="round" d="M 14.2441 19.3468 L 16.3244 19.3468 L 21.3846 23.8448 L 19.1356 23.8448 L 14.2441 19.3468 Z " stroke-width="1.12447988986969"/>
    <path id="ID0.8609093781560659" fill="#F2BD4C" stroke="none" d="M 12.0727 9.2432 L 21.4433 9.2432 L 21.4433 19.3167 L 12.0727 19.3167 L 12.0727 9.2432 Z " stroke-width="0.9070249057351821"/>
    <path id="ID0.8326035565696657" fill="#EDB94B" stroke="none" stroke-linecap="round" d="M 14.419 7.1055 L 22.8504 7.1992 L 21.5829 9.2607 L 12.2147 9.2607 L 14.419 7.1055 Z " stroke-width="1.0229414811553421"/>
    <path id="ID0.8326035565696657" fill="#C69B3E" stroke="none" stroke-linecap="round" d="M 22.559 19.8466 L 22.6162 7.0067 L 21.2558 9.0445 L 21.1972 23.6479 L 22.559 19.8466 Z " stroke-width="1.022941455452482"/>
  </g>
  <path id="ID0.20703006582334638" fill="url(#grad_15-.1662404537200928,0,0,1.1662404537200928,-206.75,-168)" stroke="none" d="M 9.3835 15.5662 C 9.9246 15.5231 10.5031 15.8042 10.888 16.1902 C 11.274 16.575 11.5725 17.1558 11.5119 17.6946 C 11.4571 18.181 11.0058 18.5297 10.6955 18.89 C 10.2873 19.2469 9.9013 19.7531 9.3835 19.823 C 8.8459 19.8965 8.2639 19.5851 7.8791 19.1991 C 7.493 18.8142 7.1665 18.2299 7.2551 17.6946 C 7.3484 17.1337 7.9724 16.7943 8.3631 16.3826 C 8.6838 16.0829 8.9415 15.6001 9.3835 15.5662 Z " stroke-width="1.1662404537200928"/>
  <path id="ID0.20703006582334638" fill="url(#grad_16-.310023546218872,0,0,1.310023546218872,-234.65,-189)" stroke="none" d="M 8.1301 17.1977 C 8.7537 17.1794 9.3235 17.6536 9.7349 18.1147 C 10.1567 18.4868 10.5681 19.0186 10.5209 19.5885 C 10.4724 20.1767 9.9917 20.6588 9.5384 21.0623 C 9.1742 21.4762 8.696 22.0055 8.1301 21.9793 C 7.5039 21.9492 7.0782 21.2745 6.6563 20.8003 C 6.2725 20.4688 5.6948 20.1204 5.7393 19.5885 C 5.7878 18.9872 6.3943 18.5628 6.7873 18.1147 C 7.2013 17.7558 7.5904 17.2134 8.1301 17.1977 Z " stroke-width="1.310023546218872"/>
  <path id="ID0.20703006582334638" fill="url(#grad_17-.4465314149856567,-0.2603985071182251,0.2603985071182251,1.4465314149856567,-303,-161.15)" stroke="none" d="M 6.0652 18.2757 C 6.7501 18.1315 7.4736 18.5419 8.0194 18.9693 C 8.5592 19.2962 9.1191 19.8018 9.1803 20.4404 C 9.2437 21.0995 8.8087 21.7274 8.3884 22.263 C 8.0685 22.7925 7.6457 23.472 7.0156 23.5555 C 6.3182 23.6467 5.714 22.9864 5.1539 22.5466 C 4.6642 22.2569 3.957 21.987 3.9005 21.3908 C 3.8345 20.7172 4.4198 20.128 4.7647 19.5552 C 5.1505 19.0765 5.4723 18.4003 6.0652 18.2757 Z " stroke-width="1.4697824726978501"/>
  <path id="ID0.20703006582334638" fill="url(#grad_18-.3918256759643555,-0.4723152816295624,0.4723152816295624,1.3918256759643555,-328.25,-110.75)" stroke="none" d="M 4.0325 20.7915 C 4.6884 20.5472 5.4648 20.8456 6.0681 21.1872 C 6.6504 21.4304 7.2792 21.8472 7.4346 22.4696 C 7.5951 23.112 7.2582 23.7976 6.9221 24.3897 C 6.6844 24.9608 6.3672 25.6955 5.7565 25.8717 C 5.0803 26.0655 4.3847 25.5022 3.7656 25.1504 C 3.2383 24.9367 2.4989 24.7747 2.3544 24.1936 C 2.1891 23.5373 2.6805 22.8676 2.9365 22.2499 C 3.2469 21.7193 3.4648 21.0028 4.0325 20.7915 Z " stroke-width="1.4697824456478068"/>
  <path id="ID0.20703006582334638" fill="url(#grad_19-.1278034448623657,-0.942507266998291,0.942507266998291,1.1278034448623657,-355.2,21.55)" stroke="none" d="M 2.1608 24.3961 C 2.6845 23.9317 3.5162 23.93 4.2021 24.031 C 4.833 24.0478 5.5697 24.2097 5.9391 24.7343 C 6.3206 25.2755 6.2535 26.0365 6.1536 26.7099 C 6.1379 27.3283 6.107 28.128 5.601 28.5126 C 5.0402 28.9372 4.1883 28.6627 3.4839 28.5579 C 2.915 28.5487 2.167 28.6644 1.8227 28.1744 C 1.4318 27.6219 1.6486 26.8201 1.6646 26.1516 C 1.7627 25.5448 1.7075 24.7979 2.1608 24.3961 Z " stroke-width="1.4697824868285807"/>
  <path id="ID0.20703006582334638" fill="url(#grad_20-.778253972530365,-1.5934242010116577,1.5934242010116577,0.778253972530365,-393.35,200.75)" stroke="none" d="M 1.6849 27.9458 C 2.033 27.1765 2.9484 26.7651 3.7536 26.5387 C 4.4568 26.2466 5.3481 26.0622 6.0132 26.4581 C 6.6999 26.8665 7.0006 27.7377 7.2221 28.5288 C 7.5093 29.2177 7.869 30.1137 7.5009 30.7865 C 7.0922 31.5302 6.0187 31.6473 5.1913 31.8786 C 4.5601 32.1486 3.793 32.6443 3.1726 32.2741 C 2.47 31.858 2.314 30.8681 2.0026 30.1239 C 1.8119 29.4071 1.3834 28.6117 1.6849 27.9458 Z " stroke-width="1.773324541681227"/>
  <path id="ID0.20703006582334638" fill="url(#grad_21-.003129436168819666,-1.7733218669891357,1.7733218669891357,0.003129436168819666,-277.05,359.5)" stroke="none" d="M 2.6508 31.3517 C 2.6275 30.5076 3.2708 29.7373 3.896 29.1816 C 4.4006 28.6114 5.1216 28.0559 5.8928 28.1211 C 6.689 28.1881 7.3404 28.8401 7.8855 29.4546 C 8.445 29.9486 9.1603 30.5971 9.1234 31.3631 C 9.0812 32.2107 8.1669 32.7854 7.5239 33.3553 C 7.0744 33.8741 6.6013 34.6553 5.8814 34.5937 C 5.0676 34.5267 4.4945 33.7046 3.8889 33.1715 C 3.404 32.6103 2.6708 32.0823 2.6508 31.3517 Z " stroke-width="1.7733246282935815"/>
  <path id="ID0.20703006582334638" fill="url(#grad_22-0.5790072083473206,-1.6761356592178345,1.6761356592178345,-0.5790072083473206,-150.5,435.8)" stroke="none" d="M 6.0192 34.0344 C 5.7202 33.2447 6.0751 32.306 6.4833 31.5759 C 6.7728 30.8717 7.2715 30.1103 8.0215 29.9188 C 8.7955 29.7208 9.6248 30.1229 10.3414 30.5245 C 11.032 30.8075 11.9205 31.1854 12.1371 31.921 C 12.3754 32.7356 11.7003 33.5785 11.28 34.3278 C 11.0256 34.9654 10.8351 35.8586 10.1349 36.0367 C 9.3441 36.2404 8.533 35.652 7.786 35.3472 C 7.1438 34.9761 6.2779 34.718 6.0192 34.0344 Z " stroke-width="1.7733245882860142"/>
  <path id="ID0.20703006582334638" fill="url(#grad_23-.3310973644256592,1.3796685934066772,-1.46064031124115,1.4082322120666504,-1.9,-446.5)" stroke="none" d="M 14.8808 30.8428 C 15.5349 31.4798 15.5852 32.5898 15.489 33.5187 C 15.5028 34.3629 15.3277 35.3678 14.6444 35.9308 C 13.9393 36.512 12.9133 36.5239 12.0029 36.4803 C 11.1713 36.5417 10.0953 36.6071 9.5495 35.9829 C 8.9468 35.291 9.2665 34.1174 9.3666 33.1633 C 9.3461 32.4028 9.1476 31.4198 9.7859 30.895 C 10.5056 30.2996 11.5951 30.4821 12.494 30.4144 C 13.3149 30.4646 14.3149 30.2913 14.8808 30.8428 Z " stroke-width="1.9738152394993378"/>
  <g id="ID0.10950249573215842">
    <path id="ID0.6494581247679889" fill="none" stroke="url(#grad_24)" stroke-width="5.281088948249817" d="M 17.0984 45.8902 L 23.0132 45.8902 L 23.0132 49.9567 L 17.0984 49.9567 L 17.0984 45.8902 Z "/>
    <path id="ID0.11857579834759235" fill="#4F4F4F" stroke="none" d="M 16.7416 37.0161 L 23.4475 37.0161 L 23.4475 50.4279 L 16.7416 50.4279 L 16.7416 37.0161 Z " stroke-width="1.1662404537200928"/>
    <path id="ID0.4165389509871602" fill="none" stroke="url(#grad_25)" stroke-width="2.3324809074401855" stroke-linecap="round" d="M 15.5753 38.7492 L 15.5753 49.537 L 24.4971 49.5953 L 24.5554 38.7492 "/>
    <path id="ID0.8643447342328727" fill="#F3E066" stroke="none" d="M 14.1758 33.7927 L 25.8382 33.7927 L 25.8382 39.3324 L 14.1758 39.3324 L 14.1758 33.7927 Z " stroke-width="1.1662404537200928"/>
    <path id="ID0.3959999615326524" fill="#000000" stroke="none" stroke-linecap="round" d="M 14.1758 37.2914 L 14.2342 35.3088 L 19.249 39.3907 L 16.9165 39.3907 L 14.1758 37.2914 Z " stroke-width="1.1662404537200928"/>
    <path id="ID0.3959999615326524" fill="#000000" stroke="none" stroke-linecap="round" d="M 16.872 33.7309 L 19.4611 33.7309 L 25.7588 39.3288 L 22.9598 39.3288 L 16.872 33.7309 Z " stroke-width="1.3994885683059692"/>
    <path id="ID0.6601373604498804" fill="url(#grad_26-.0641272068023682,0,0,1.0641272068023682,-191.05,-150.15)" stroke="url(#grad_27)" stroke-width="2.1282544136047363" stroke-linecap="round" d="M 24.7018 33.6248 L 15.2311 33.4651 L 15.2311 25.9098 L 19.8068 21.6001 L 24.7018 25.7502 L 24.7018 33.6248 Z "/>
    <path id="ID0.811193433124572" fill="url(#grad_28-.7227405905723572,0,0,0.7227405905723572,-112,-92.65)" stroke="none" d="M 19.846 25.5904 C 20.2001 25.5904 20.5203 25.7342 20.753 25.9662 C 20.985 26.1989 21.1288 26.5191 21.1288 26.8732 C 21.1288 27.2274 20.985 27.5475 20.753 27.7803 C 20.5203 28.0123 20.2001 28.1561 19.846 28.1561 C 19.4918 28.1561 19.1716 28.0123 18.9389 27.7803 C 18.7069 27.5475 18.5631 27.2274 18.5631 26.8732 C 18.5631 26.5191 18.7069 26.1989 18.9389 25.9662 C 19.1716 25.7342 19.4918 25.5904 19.846 25.5904 Z " stroke-width="0.7227405905723572"/>
    <path id="ID0.811193433124572" fill="url(#grad_29-.7227405905723572,0,0,0.7227405905723572,-114.75,-89.55)" stroke="none" d="M 17.096 28.6904 C 17.4501 28.6904 17.7703 28.8342 18.003 29.0662 C 18.235 29.2989 18.3788 29.6191 18.3788 29.9732 C 18.3788 30.3274 18.235 30.6475 18.003 30.8803 C 17.7703 31.1123 17.4501 31.2561 17.096 31.2561 C 16.7418 31.2561 16.4216 31.1123 16.1889 30.8803 C 15.9569 30.6475 15.8131 30.3274 15.8131 29.9732 C 15.8131 29.6191 15.9569 29.2989 16.1889 29.0662 C 16.4216 28.8342 16.7418 28.6904 17.096 28.6904 Z " stroke-width="0.7227405905723572"/>
    <path id="ID0.811193433124572" fill="url(#grad_30-.7227405905723572,0,0,0.7227405905723572,-109.2,-89.4)" stroke="none" d="M 22.646 28.8404 C 23.0001 28.8404 23.3203 28.9842 23.553 29.2162 C 23.785 29.4489 23.9288 29.7691 23.9288 30.1232 C 23.9288 30.4774 23.785 30.7975 23.553 31.0303 C 23.3203 31.2623 23.0001 31.4061 22.646 31.4061 C 22.2918 31.4061 21.9716 31.2623 21.7389 31.0303 C 21.5069 30.7975 21.3631 30.4774 21.3631 30.1232 C 21.3631 29.7691 21.5069 29.4489 21.7389 29.2162 C 21.9716 28.9842 22.2918 28.8404 22.646 28.8404 Z " stroke-width="0.7227405905723572"/>
  </g>
  <path id="ID0.44960210053250194" fill="none" stroke="#876A52" stroke-width="2.2339593153854165" stroke-linecap="round" d="M 48.0987 29.2429 L 43.1782 29.1524 Z "/>
</svg>