<svg xmlns="http://www.w3.org/2000/svg" xmlns:xlink="http://www.w3.org/1999/xlink" version="1.1" width="56.75906773218392" height="62.093773084967125" viewBox="-0.42936621014713516 0.47380485232234726 56.75906773218392 62.093773084967125">
  <defs>
    <linearGradient id="grad_1" x2="1">
      <stop offset="0" stop-color="#4F4F4F" stop-opacity="1"/>
      <stop offset="1" stop-color="#4F4F4F" stop-opacity="1"/>
    </linearGradient>
    <linearGradient id="grad_2" x2="1">
      <stop offset="0" stop-color="#4F4F4F" stop-opacity="1"/>
      <stop offset="1" stop-color="#4F4F4F" stop-opacity="1"/>
    </linearGradient>
    <linearGradient id="grad_3" x2="1">
      <stop offset="0" stop-color="#F0C590" stop-opacity="1"/>
      <stop offset="1" stop-color="#F0C590" stop-opacity="1"/>
    </linearGradient>
    <radialGradient id="grad_4" cx="0.6575" cy="0.5616" r="0.8547499999999999">
      <stop offset="0" stop-color="#E1B174" stop-opacity="1"/>
      <stop offset="1" stop-color="#AE632A" stop-opacity="1"/>
    </radialGradient>
    <radialGradient id="grad_5" cx="0.6575" cy="0.5616" r="0.8547499999999999">
      <stop offset="0" stop-color="#E1B174" stop-opacity="1"/>
      <stop offset="1" stop-color="#AE632A" stop-opacity="1"/>
    </radialGradient>
    <radialGradient id="grad_6" cx="0.6575" cy="0.5616" r="0.8547499999999999">
      <stop offset="0" stop-color="#E1B174" stop-opacity="1"/>
      <stop offset="1" stop-color="#AE632A" stop-opacity="1"/>
    </radialGradient>
    <radialGradient id="grad_7" cx="0.6575" cy="0.5616" r="0.8547499999999999">
      <stop offset="0" stop-color="#E1B174" stop-opacity="1"/>
      <stop offset="1" stop-color="#AE632A" stop-opacity="1"/>
    </radialGradient>
    <radialGradient id="grad_8" cx="0.6575" cy="0.5616" r="0.8547499999999999">
      <stop offset="0" stop-color="#E1B174" stop-opacity="1"/>
      <stop offset="1" stop-color="#AE632A" stop-opacity="1"/>
    </radialGradient>
    <radialGradient id="grad_9" cx="0.6575" cy="0.5616" r="0.8547499999999999">
      <stop offset="0" stop-color="#E1B174" stop-opacity="1"/>
      <stop offset="1" stop-color="#AE632A" stop-opacity="1"/>
    </radialGradient>
    <radialGradient id="grad_10" cx="0.6575" cy="0.5616" r="0.8547499999999999">
      <stop offset="0" stop-color="#E1B174" stop-opacity="1"/>
      <stop offset="1" stop-color="#AE632A" stop-opacity="1"/>
    </radialGradient>
    <radialGradient id="grad_11" cx="0.6575" cy="0.5616" r="0.8547499999999999">
      <stop offset="0" stop-color="#E1B174" stop-opacity="1"/>
      <stop offset="1" stop-color="#AE632A" stop-opacity="1"/>
    </radialGradient>
    <radialGradient id="grad_12" cx="0.6575" cy="0.5616" r="0.8547499999999999">
      <stop offset="0" stop-color="#E1B174" stop-opacity="1"/>
      <stop offset="1" stop-color="#AE632A" stop-opacity="1"/>
    </radialGradient>
    <radialGradient id="grad_13" cx="0.6575" cy="0.5616" r="0.8547499999999999">
      <stop offset="0" stop-color="#E1B174" stop-opacity="1"/>
      <stop offset="1" stop-color="#AE632A" stop-opacity="1"/>
    </radialGradient>
    <radialGradient id="grad_14" cx="0.6575" cy="0.5616" r="0.8547499999999999">
      <stop offset="0" stop-color="#E1B174" stop-opacity="1"/>
      <stop offset="1" stop-color="#AE632A" stop-opacity="1"/>
    </radialGradient>
    <linearGradient id="grad_15" x2="1">
      <stop offset="0" stop-color="#4F4F4F" stop-opacity="1"/>
      <stop offset="1" stop-color="#4F4F4F" stop-opacity="1"/>
    </linearGradient>
    <linearGradient id="grad_16" y2="1" x2="0">
      <stop offset="0" stop-color="#4F4F4F" stop-opacity="1"/>
      <stop offset="1" stop-color="#737373" stop-opacity="1"/>
    </linearGradient>
    <radialGradient id="grad_17" cx="0.5366" cy="0.2556" r="0.96772">
      <stop offset="0" stop-color="#737373" stop-opacity="1"/>
      <stop offset="1" stop-color="#4F4F4F" stop-opacity="1"/>
    </radialGradient>
    <radialGradient id="grad_18" cx="0.6192" cy="0.2218" r="1.01166">
      <stop offset="0" stop-color="#737373" stop-opacity="1"/>
      <stop offset="1" stop-color="#4F4F4F" stop-opacity="1"/>
    </radialGradient>
    <radialGradient id="grad_19" cx="0.4929" cy="0.5492" r="0.71396">
      <stop offset="0" stop-color="#646464" stop-opacity="1"/>
      <stop offset="1" stop-color="#434343" stop-opacity="1"/>
    </radialGradient>
    <radialGradient id="grad_20" cx="0.4929" cy="0.5492" r="0.71396">
      <stop offset="0" stop-color="#646464" stop-opacity="1"/>
      <stop offset="1" stop-color="#434343" stop-opacity="1"/>
    </radialGradient>
    <radialGradient id="grad_21" cx="0.4929" cy="0.5492" r="0.71396">
      <stop offset="0" stop-color="#646464" stop-opacity="1"/>
      <stop offset="1" stop-color="#434343" stop-opacity="1"/>
    </radialGradient>
  <linearGradient id="grad_1-.9355133771896362,0.022388353943824768,-0.01218391302973032,0.5091134905815125,-185.1,-63" x2="48.4426" x1="17.4771" y1="38.0237" y2="38.7647" gradientUnits="userSpaceOnUse">
      <stop offset="0" stop-color="#4F4F4F" stop-opacity="1"/>
      <stop offset="1" stop-color="#4F4F4F" stop-opacity="1"/>
    </linearGradient><radialGradient id="grad_4-.173354983329773,0.02808029018342495,-0.02808029018342495,1.173354983329773,-200.15,-179.65" cx="13.4959" cy="12.7851" r="3.5436" gradientUnits="userSpaceOnUse">
      <stop offset="0" stop-color="#E1B174" stop-opacity="1"/>
      <stop offset="1" stop-color="#AE632A" stop-opacity="1"/>
    </radialGradient><radialGradient id="grad_5-.173354983329773,0.02808029018342495,-0.02808029018342495,1.173354983329773,-202.15,-178.4" cx="11.5068" cy="13.9145" r="3.6829" gradientUnits="userSpaceOnUse">
      <stop offset="0" stop-color="#E1B174" stop-opacity="1"/>
      <stop offset="1" stop-color="#AE632A" stop-opacity="1"/>
    </radialGradient><radialGradient id="grad_6-.173354983329773,0.02808029018342495,-0.02808029018342495,1.173354983329773,-203.5,-176.8" cx="10.1492" cy="15.5156" r="3.6779" gradientUnits="userSpaceOnUse">
      <stop offset="0" stop-color="#E1B174" stop-opacity="1"/>
      <stop offset="1" stop-color="#AE632A" stop-opacity="1"/>
    </radialGradient><radialGradient id="grad_7-.3180150985717773,0.03154224157333374,-0.03154224157333374,1.3180150985717773,-231.05,-198.55" cx="8.941" cy="17.4713" r="4.1164" gradientUnits="userSpaceOnUse">
      <stop offset="0" stop-color="#E1B174" stop-opacity="1"/>
      <stop offset="1" stop-color="#AE632A" stop-opacity="1"/>
    </radialGradient><radialGradient id="grad_8-.4447875022888184,-0.3170790374279022,0.3170790374279022,1.4447875022888184,-311.85,-152.35" cx="7.2958" cy="19.0761" r="4.6184" gradientUnits="userSpaceOnUse">
      <stop offset="0" stop-color="#E1B174" stop-opacity="1"/>
      <stop offset="1" stop-color="#AE632A" stop-opacity="1"/>
    </radialGradient><radialGradient id="grad_9-.2366878986358643,-0.8115127682685852,0.8115127682685852,1.2366878986358643,-353.35,-24.5" cx="5.9474" cy="21.8289" r="4.6184" gradientUnits="userSpaceOnUse">
      <stop offset="0" stop-color="#E1B174" stop-opacity="1"/>
      <stop offset="1" stop-color="#AE632A" stop-opacity="1"/>
    </radialGradient><radialGradient id="grad_10-.157376766204834,-0.9211021661758423,0.9211021661758423,1.157376766204834,-356.6,11.65" cx="5.4274" cy="24.9599" r="4.6184" gradientUnits="userSpaceOnUse">
      <stop offset="0" stop-color="#E1B174" stop-opacity="1"/>
      <stop offset="1" stop-color="#AE632A" stop-opacity="1"/>
    </radialGradient><radialGradient id="grad_11-.23802368342876434,-1.7687091827392578,1.7687091827392578,0.23802368342876434,-320.1,318.5" cx="6.1697" cy="27.6479" r="5.5723" gradientUnits="userSpaceOnUse">
      <stop offset="0" stop-color="#E1B174" stop-opacity="1"/>
      <stop offset="1" stop-color="#AE632A" stop-opacity="1"/>
    </radialGradient><radialGradient id="grad_12-1.1195762157440186,-1.389797329902649,1.389797329902649,-1.1195762157440186,-6.8,466.25" cx="6.6728" cy="29.3687" r="5.5723" gradientUnits="userSpaceOnUse">
      <stop offset="0" stop-color="#E1B174" stop-opacity="1"/>
      <stop offset="1" stop-color="#AE632A" stop-opacity="1"/>
    </radialGradient><radialGradient id="grad_13-1.1195762157440186,-1.389797329902649,1.389797329902649,-1.1195762157440186,-4.4,466.6" cx="9.0728" cy="29.7187" r="5.5723" gradientUnits="userSpaceOnUse">
      <stop offset="0" stop-color="#E1B174" stop-opacity="1"/>
      <stop offset="1" stop-color="#AE632A" stop-opacity="1"/>
    </radialGradient><radialGradient id="grad_14-.3059983253479004,1.4201346635818481,-1.5034576654434204,1.3816542625427246,9.8,-452" cx="12.8601" cy="32.3094" r="6.2022" gradientUnits="userSpaceOnUse">
      <stop offset="0" stop-color="#E1B174" stop-opacity="1"/>
      <stop offset="1" stop-color="#AE632A" stop-opacity="1"/>
    </radialGradient><radialGradient id="grad_17-.0706188678741455,0.025621647015213966,-0.025621647015213966,1.0706188678741455,-187.55,-157.3" cx="20.8931" cy="23.6792" r="10.5408" gradientUnits="userSpaceOnUse">
      <stop offset="0" stop-color="#737373" stop-opacity="1"/>
      <stop offset="1" stop-color="#4F4F4F" stop-opacity="1"/>
    </radialGradient><radialGradient id="grad_19-.7271495461463928,0.017401868477463722,-0.017401868477463722,0.7271495461463928,-109.45,-97.55" cx="20.3011" cy="26.0035" r="1.8435" gradientUnits="userSpaceOnUse">
      <stop offset="0" stop-color="#646464" stop-opacity="1"/>
      <stop offset="1" stop-color="#434343" stop-opacity="1"/>
    </radialGradient><radialGradient id="grad_20-.7271495461463928,0.017401868477463722,-0.017401868477463722,0.7271495461463928,-112.25,-94.5" cx="17.5011" cy="29.0535" r="1.8435" gradientUnits="userSpaceOnUse">
      <stop offset="0" stop-color="#646464" stop-opacity="1"/>
      <stop offset="1" stop-color="#434343" stop-opacity="1"/>
    </radialGradient><radialGradient id="grad_21-.7271495461463928,0.017401868477463722,-0.017401868477463722,0.7271495461463928,-106.65,-94.2" cx="23.1011" cy="29.3535" r="1.8435" gradientUnits="userSpaceOnUse">
      <stop offset="0" stop-color="#646464" stop-opacity="1"/>
      <stop offset="1" stop-color="#434343" stop-opacity="1"/>
    </radialGradient></defs>
  <!-- Exported by Scratch - http://scratch.mit.edu/ -->
  <path id="ID0.10165197495371103" fill="#4F4F4F" stroke="#4F4F4F" stroke-width="1.479591748687785" stroke-linecap="round" d="M 26.3116 58.0758 C 26.7699 58.1633 27.243 58.1356 27.7512 58.1759 C 28.8065 58.2609 29.8648 58.3618 30.9179 58.4778 C 31.8742 58.5734 32.8259 58.7392 33.7761 58.8989 C 34.2797 58.9402 34.8202 59.2883 35.2823 59.0797 C 35.868 58.8137 36.3485 58.2086 36.5046 57.5613 C 36.6245 57.0912 36.407 56.496 36.0085 56.1392 C 35.5311 55.7139 34.7873 55.8065 34.1657 55.5919 C 33.7554 55.4517 33.3636 55.2516 32.9453 55.1411 C 32.0312 54.9001 30.9932 54.9676 30.0977 54.6095 C 29.6281 54.4221 29.5506 53.6753 29.0878 53.51 C 28.1404 53.2748 27.0573 53.2005 26.1542 53.4904 C 25.6773 53.6449 25.4952 54.2763 25.3282 54.7493 C 25.1635 55.2137 25.222 55.7306 25.1878 56.2222 C 25.1535 56.7147 24.8827 57.2707 25.121 57.7022 C 25.3107 58.0428 25.8881 58.0042 26.3116 58.0758 Z "/>
  <path id="ID0.8862749082036316" fill="#2F5E8D" stroke="#23476A" stroke-width="1.999999930807166" stroke-linecap="round" d="M 27.1031 54.7464 C 27.4844 56.1737 30.229 55.1748 31.5328 54.481 C 32.3756 54.0311 32.3705 52.7963 32.6797 51.9296 C 33.3746 49.7455 34.6132 47.5906 34.5416 45.3373 C 34.5054 44.1859 33.3446 43.1996 32.3084 42.7 C 31.5558 42.3363 30.6191 42.7729 29.889 43.143 C 29.3925 43.3962 29.11 43.5297 28.9304 44.3641 C 28.0878 47.7878 26.206 51.3884 27.1031 54.7464 Z "/>
  <path id="ID0.04297091066837311" fill="#4F4F4F" stroke="none" d="M 26.0653 52.6126 L 29.3397 53.5843 L 32.894 54.4152 L 30.2895 58.149 L 24.6618 55.1503 L 26.0653 52.6126 Z " stroke-width="0.8790433319430213"/>
  <path id="ID0.10165197495371103" fill="#666666" stroke="#666666" stroke-width="1.4795918435203528" stroke-linecap="round" d="M 32.143 59.7901 C 32.6073 59.7438 33.053 59.5827 33.5516 59.4768 C 34.5876 59.2583 35.6309 59.0542 36.6736 58.866 C 37.6175 58.6859 38.5772 58.5742 39.5335 58.4572 C 40.0281 58.3537 40.6453 58.5337 41.029 58.2023 C 41.5149 57.7809 41.8036 57.064 41.7692 56.3991 C 41.7505 55.9143 41.3728 55.4055 40.8893 55.1767 C 40.3107 54.9047 39.6239 55.2049 38.9669 55.1759 C 38.5337 55.1581 38.1011 55.0777 37.6687 55.0907 C 36.7238 55.1195 35.7479 55.4793 34.7875 55.3905 C 34.2839 55.3443 33.9974 54.6503 33.5067 54.6235 C 32.5315 54.6673 31.472 54.904 30.6886 55.4387 C 30.2752 55.7223 30.2801 56.3795 30.2545 56.8805 C 30.2287 57.3725 30.4317 57.8514 30.5386 58.3325 C 30.6457 58.8144 30.5442 59.4245 30.8953 59.7704 C 31.1741 60.043 31.7167 59.8419 32.143 59.7901 Z "/>
  <path id="ID0.8862749082036316" fill="#3C71B4" stroke="#2F588C" stroke-width="2.0000000395820483" stroke-linecap="round" d="M 32.4602 56.5401 C 33.3452 57.172 35.3108 56.2145 35.5024 55.1276 C 36.0607 51.2232 33.6905 47.1918 34.4434 43.342 C 34.6817 42.1254 37.4199 43.2302 37.9325 42.0425 C 38.9987 39.5654 40.1092 33.9392 38.3171 33.9503 C 35.5064 33.9689 31.2653 38.674 28.7306 41.9759 C 27.8478 43.1278 28.5886 44.939 28.853 46.3813 C 29.1728 48.1183 29.7149 49.7787 30.2575 51.4241 C 30.9182 53.168 30.9518 55.4619 32.4602 56.5401 Z "/>
  <path id="ID0.4931722558103502" fill="url(#grad_1-.9355133771896362,0.022388353943824768,-0.01218391302973032,0.5091134905815125,-185.1,-63)" stroke="url(#grad_2)" stroke-width="1.506672831985684" d="M 17.4479 39.2455 L 19.9901 40.5799 L 43.562 41.2714 L 44.0414 38.8377 L 48.4426 38.7647 L 48.2048 42.8343 L 17.6353 43.147 L 17.4479 39.2455 Z "/>
  <path id="ID0.2493568635545671" fill="#FFFFFF" stroke="none" stroke-linecap="round" d="M 33.6922 35.24 L 40.4438 35.2515 L 40.0482 39.2432 L 33.5402 41.5882 L 33.6922 35.24 Z " stroke-width="1.0000000168520873"/>
  <path id="ID0.3092493093572557" fill="#FFD499" stroke="#F0C690" stroke-width="1.1486011354884194" stroke-linecap="round" d="M 27.2051 36.5921 C 26.7998 36.8654 27.5277 38.2125 28.0726 38.8295 C 29.5853 40.5461 31.3503 42.0977 33.3962 43.0364 C 35.6601 44.1065 38.2316 44.4379 40.6943 44.711 C 42.709 44.9382 44.7644 44.9131 46.7817 44.6372 C 47.5757 44.5288 48.6057 44.4158 48.9902 43.6837 C 49.694 42.4855 50.3922 40.7337 49.6682 39.5182 C 48.9673 38.3468 47.1269 38.2345 45.7596 38.2652 C 44.3779 38.2965 43.1677 39.5006 41.7717 39.5681 C 40.1242 39.6494 38.3942 39.329 36.9162 38.5761 C 34.6925 37.5201 33.3174 34.8436 30.9031 34.2562 L 27.5205 36.4189 Z "/>
  <path id="ID0.09319758368656039" fill="#3C71B4" stroke="#2F588D" stroke-width="1.6734694524987723" stroke-linecap="round" d="M 29.3151 31.0733 C 28.5147 31.2626 28.0064 32.0388 27.4388 32.535 C 27.0105 32.9122 26.528 33.2413 26.1561 33.676 C 25.7617 34.137 25.345 34.6233 25.1571 35.2005 C 24.9845 35.7304 25.0818 36.3178 25.117 36.8735 C 25.1529 37.4385 24.9923 38.1319 25.3698 38.5535 C 25.7529 38.9812 26.4594 38.9763 27.0327 39.0118 C 27.5977 39.0463 28.2383 39.0666 28.7127 38.7591 C 29.2118 38.4354 29.3965 37.7819 29.7107 37.2764 C 30.0198 36.7791 30.1147 36.0992 30.5843 35.7489 C 31.0444 35.4059 31.698 35.4458 32.2673 35.3707 C 32.8626 35.292 33.483 35.4199 34.0687 35.2883 C 34.6224 35.1642 35.4331 35.1451 35.6333 34.6143 C 35.8477 34.0478 35.4241 33.3153 34.9623 32.9243 C 34.073 32.1706 32.9292 31.7365 31.8186 31.3843 C 30.9447 31.109 30.0914 30.8475 29.3151 31.0733 Z "/>
  <g id="ID0.7357129715383053">
    <path id="ID0.191649260930717" fill="#FFD499" stroke="none" stroke-linecap="round" d="M 39.0298 9.1446 C 42.8016 8.3447 47.7288 5.6516 50.5751 8.2527 C 53.5701 10.9887 50.5039 16.4997 51.3478 20.5249 C 51.5619 21.4958 53.2191 21.1035 53.4727 21.9346 C 53.8626 23.2088 53.6617 24.7878 53.0404 25.9115 C 52.7611 26.4131 51.6661 25.6187 51.3195 26.0475 C 50.0047 27.6762 50.1141 30.4163 48.3337 31.5793 C 44.9925 33.7627 40.948 35.5712 36.9623 35.367 C 34.1132 35.2209 32.2317 32.1036 29.8438 30.5139 C 29.0062 29.9573 27.8704 29.7969 27.4394 28.8765 C 25.5407 25.2482 22.1741 21.3614 23.1187 17.3855 C 23.8596 14.2641 28.4039 13.7162 31.2505 12.2146 C 33.7249 10.9595 36.2836 9.7266 39.0298 9.1446 Z " stroke-width="0.999999994758977"/>
    <path id="ID0.8556915456429124" fill="#F0C690" stroke="none" stroke-linecap="round" d="M 42.2034 4.1282 C 42.8964 4.2139 43.3903 4.9284 44.068 5.111 C 45.3587 5.4581 46.6501 5.6093 47.931 5.6831 C 48.8919 5.7403 50.2043 4.7844 50.7612 5.503 C 51.9433 7.0321 52.8818 9.2992 52.2307 11.1193 C 51.7622 12.4305 49.6615 12.0227 48.3497 12.3035 C 39.356 14.1588 40.5965 11.9122 38.7085 11.2264 C 38.1658 10.9151 37.0791 10.87 36.8287 11.4477 C 36.0854 13.1614 34.7068 16.2377 36.1533 16.9081 C 38.2903 17.899 41.2218 14.6053 43.8963 14.7387 C 45.621 14.8251 47.8018 15.768 48.3146 17.3734 C 49.0334 19.7621 48.7049 22.9925 46.9598 24.6773 C 45.3387 26.2414 42.4233 25.8659 40.2207 25.2855 C 38.3102 24.7704 36.5111 20.2215 35.4502 21.6124 C 33.3695 24.3419 35.3642 29.7103 34.0535 33.5335 C 33.7266 34.4896 32.5948 32.5304 31.8339 32.0644 C 30.1318 31.0219 28.1737 30.3123 26.7073 28.9599 C 25.7311 28.0584 25.2883 26.6335 24.7431 25.3555 C 24.1707 24.109 23.3963 22.8421 23.3645 21.4055 C 23.2888 17.9595 23.0953 14.2962 24.4042 11.1078 C 25.2893 8.9535 27.4578 7.5475 29.3858 6.3122 C 31.2425 5.1907 33.4302 4.557 35.517 4.1889 C 37.7091 3.8008 39.9938 3.8616 42.2034 4.1282 Z " stroke-width="0.999999994758977"/>
    <path id="ID0.2703239833936095" fill="#653B00" stroke="none" stroke-linecap="round" d="M 43.216 16.0861 C 44.6514 16.224 45.7821 16.4592 46.8258 17.1392 C 47.6 17.6446 48.5012 18.575 48.4335 19.551 C 48.3414 20.2374 47.2128 20.4514 46.5012 20.5176 C 45.2179 20.6364 43.9542 20.1132 42.6688 19.9515 C 41.5025 19.8776 40.265 20.1686 39.1471 19.811 C 38.4708 19.5933 37.4868 19.1281 37.5385 18.4539 C 37.6421 17.5115 38.6283 16.7724 39.4717 16.4325 C 40.6191 15.9712 41.7806 15.9482 43.216 16.0861 Z " stroke-width="0.999999994758977"/>
    <g id="ID0.956311296671629">
      <path id="ID0.30213406030088663" fill="#FFFFFF" stroke="none" stroke-linecap="round" d="M 43.0473 17.0243 C 44.2143 17.1085 45.5711 17.2249 46.3673 18.0698 C 47.1832 18.9376 47.5379 20.2068 47.4145 21.491 C 47.2911 22.7752 46.7092 23.9643 45.735 24.6501 C 44.8091 25.3006 43.5154 25.0784 42.4347 24.9596 C 41.2837 24.864 39.859 24.8929 39.1546 24.0179 C 38.4416 23.129 38.6683 21.7478 38.8052 20.6138 C 38.8836 19.5071 38.9224 18.1469 39.7869 17.4375 C 40.634 16.7435 41.9667 16.8925 43.0473 17.0243 Z " stroke-width="0.9946808082933493"/>
      <path id="ID0.8961478788405657" fill="#000000" stroke="none" stroke-linecap="round" d="M 45.4123 17.2944 C 46.0747 17.358 46.7023 17.9809 47 18.5961 C 47.3776 19.3768 47.4254 20.3147 47.3623 21.179 C 47.2456 22.186 47.0638 23.2768 46.4719 24.0912 C 46.0597 24.6582 45.2518 24.9863 44.5512 24.9559 C 43.9369 24.8599 43.3587 24.3257 43.0778 23.7651 C 42.6544 22.92 42.5348 22.0222 42.6378 20.9499 C 42.7409 19.8776 43.1035 18.9322 43.6058 18.2699 C 44.108 17.6087 44.7499 17.2307 45.4123 17.2944 Z " stroke-width="0.9946808082933493"/>
    </g>
    <path id="ID0.06146117439493537" fill="#F0C690" stroke="#FFDBA0" stroke-width="1.7719572615476205" stroke-linecap="round" d="M 28.8979 20.5446 C 30.0742 20.8413 31.289 21.3236 32.1084 22.1738 C 32.7756 22.9383 33.0998 24.0739 33.036 25.0387 C 32.9613 26.1845 32.7202 27.6867 31.703 28.2196 C 30.5444 28.8261 28.885 28.4342 27.7179 27.7593 C 26.5819 27.0852 25.937 25.7411 25.369 24.5093 C 24.9992 23.7064 24.8945 22.761 25.0799 21.8712 C 25.185 21.369 25.7107 20.9779 26.1956 20.8073 C 27.0955 20.491 28.0213 20.3235 28.8979 20.5446 Z "/>
    <path id="ID0.9459127215668559" fill="#FFD499" stroke="none" stroke-linecap="round" d="M 29.0624 24.0094 C 29.8245 24.4834 30.6335 24.9409 31.4409 25.3932 C 31.6891 25.4874 32.2621 25.3465 32.2205 25.6439 C 32.1271 26.302 31.7179 26.9649 31.1599 27.3352 C 30.6384 27.6809 29.9581 27.6206 29.3794 27.5057 C 28.8253 27.4384 28.2954 27.1615 27.8891 26.81 C 27.3777 26.361 26.8303 25.8895 26.5845 25.228 C 26.1982 24.1872 25.5271 22.212 26.1487 21.9211 C 26.8199 21.6069 28.0489 23.3806 29.0624 24.0094 Z " stroke-width="0.999999994758977"/>
    <path id="ID0.6276269098743796" fill="#F0C690" stroke="none" d="M 32.028 21.0435 L 34.2309 21.5779 L 33.2748 29.7101 L 31.0294 29.5372 L 32.028 21.0435 Z " stroke-width="1.3604594336042972"/>
    <path id="ID0.7435970422811806" fill="none" stroke="#663B00" stroke-width="1.999999989517954" stroke-linecap="round" d="M 41.8115 13.1289 L 48.7365 16.8583 "/>
    <path id="ID0.41598089784383774" fill="none" stroke="url(#grad_3)" stroke-width="1.999999989517954" stroke-linecap="round" d="M 51.3673 11.4351 L 50.5304 20.145 L 53.2028 21.6073 L 52.5733 26.0675 L 50.2715 26.4994 L 49.1336 29.4541 L 44.7359 33.4015 L 36.6454 34.4827 L 32.9096 32.0643 "/>
    <path id="ID0.46292465971782804" fill="#876A53" stroke="none" stroke-linecap="round" d="M 36.7912 28.1007 C 39.0604 28.6921 41.4898 28.3921 43.7563 28.4365 C 45.9968 28.4806 48.7044 27.3404 50.484 28.305 C 51.3839 28.7938 49.7339 30.509 49.003 31.3857 C 48.1122 32.446 46.9668 33.3495 45.7539 34.0743 C 44.664 34.6698 43.4477 35.1475 42.195 35.2883 C 39.9522 35.5385 37.4742 36.0862 35.4378 35.1392 C 33.6421 34.3065 31.9653 32.4127 31.657 30.4414 C 31.3894 28.7275 32.4267 26.471 33.9677 25.7733 C 35.0708 25.2747 35.6455 27.7627 36.7912 28.1007 Z " stroke-width="1.1148966210708273"/>
    <path id="ID0.46292465971782804" fill="#9C7A60" stroke="none" stroke-linecap="round" d="M 37.2766 28.1585 C 38.2306 28.2877 39.0238 27.1949 39.9823 27.1826 C 40.7879 27.173 41.5304 27.747 42.2693 27.9516 C 43.0454 28.1653 43.7775 28.492 44.6277 28.4986 C 45.9918 28.5107 47.9407 27.4658 48.6878 28.0649 C 49.2734 28.5367 48.0266 29.9384 47.4353 30.6451 C 46.7908 31.4143 45.8989 32.0079 44.9952 32.5161 C 44.0075 33.0721 42.9933 33.6008 41.8651 33.7258 C 39.8323 33.9397 37.6708 34.3536 35.8534 33.5601 C 34.2508 32.8624 32.8329 31.277 32.4605 29.6639 C 32.1687 28.3936 32.7549 26.5797 34.0036 26.1504 C 35.1494 25.7579 35.9973 27.9019 37.2766 28.1585 Z " stroke-width="0.9566512086958655"/>
    <path id="ID0.8556915456429124" fill="#663B00" stroke="none" stroke-linecap="round" d="M 41.7534 3.2782 C 42.4464 3.3639 42.9403 4.0784 43.618 4.261 C 44.9087 4.6081 46.1855 4.9427 47.481 4.8331 C 48.6498 4.7335 50.078 2.8454 50.7954 3.7954 C 52.1589 5.4765 52.556 8.1809 51.7807 10.2693 C 51.3104 11.5361 49.2506 11.4768 47.8997 11.4535 C 44.4926 11.3954 41.1105 10.2306 37.6449 9.9659 C 36.8253 9.9122 36.7411 9.7846 36.3787 10.5977 C 34.9298 13.852 34.9924 17.8212 32.9452 20.7156 C 32.1906 21.7211 30.4134 20.6241 29.1885 20.6058 C 27.0999 20.5749 23.8087 22.3945 22.9145 20.5555 C 21.4111 17.4555 22.9737 13.5621 23.9542 10.2578 C 24.6092 8.0523 25.8069 5.698 27.7728 4.4966 C 29.8534 3.1785 32.5919 3.5451 35.067 3.3389 C 37.2858 3.1543 39.5438 3.0116 41.7534 3.2782 Z " stroke-width="0.999999994758977"/>
    <path id="ID0.4824404357932508" fill="#7C4600" stroke="#7C4600" stroke-width="1.999999989517954" stroke-linecap="round" d="M 49.6852 4.8942 C 49.5893 4.6479 47.2061 6.0725 45.7142 5.9693 C 44.0925 5.8567 42.7501 4.249 41.1103 4.221 C 36.7996 4.1473 32.0461 3.7047 28.1653 5.6393 C 26.0583 6.7298 24.9284 10.6166 25.325 12.1978 C 25.5704 13.1777 28.2636 11.5167 29.5286 10.7934 C 30.9735 10.0271 31.8229 8.2552 33.3329 7.7935 C 35.3161 7.1864 37.49 7.8775 39.5619 7.7892 C 42.3127 7.6718 45.1513 7.8963 47.8084 7.1752 C 48.8348 6.8961 50.5184 5.1832 50.0834 4.9325 Z "/>
    <path id="ID0.5121778678148985" fill="#A57647" stroke="#A57647" stroke-width="0.5658375425062391" stroke-linecap="round" d="M 46.4743 5.8691 C 46.3147 6.0183 46.0423 5.838 45.7798 5.8645 C 45.5626 5.8864 45.3443 5.9621 45.1904 6.0813 C 45.0382 6.1994 45.0822 6.442 44.9095 6.539 C 44.4131 6.81 43.105 6.8371 43.1073 7.0494 C 43.1506 7.3155 44.4266 7.3969 45.0038 7.5299 C 45.2208 7.5796 45.4285 7.6898 45.6517 7.6916 C 46.1002 7.6951 46.5464 7.6304 46.9766 7.5454 C 47.2017 7.501 47.4061 7.4053 47.5997 7.307 C 47.7793 7.2159 47.9457 7.1054 48.089 6.9812 C 48.5866 6.5563 49.2966 6.1299 49.726 5.5601 C 49.8569 5.3383 50.0366 4.7046 49.6789 4.7354 C 48.6097 4.8402 47.622 5.6351 46.578 5.9412 Z "/>
    <path id="ID0.5121778678148985" fill="#A57647" stroke="#A57647" stroke-width="0.5658375425062391" stroke-linecap="round" d="M 38.7743 4.7691 C 38.6185 4.8784 38.3423 4.738 38.0798 4.7645 C 37.8626 4.7864 37.7 4.9438 37.4904 4.9813 C 37.1087 5.0421 36.3869 4.7296 36.2001 4.9319 C 36.038 5.1231 36.416 5.5221 36.6984 5.6633 C 37.1103 5.9062 37.6588 5.9835 38.1047 5.9849 C 38.4419 5.9837 38.7559 5.9147 39.0733 5.7672 C 39.3101 5.66 39.4097 5.3658 39.684 5.3288 C 40.1799 5.2601 40.7892 5.4345 41.3703 5.3665 C 41.5477 5.3751 41.9937 5.3228 41.896 5.156 C 41.6811 4.851 41.0629 4.5525 40.5661 4.5311 C 39.9673 4.4381 39.4608 4.7555 38.878 4.8412 Z "/>
  </g>
  <path id="ID0.04297091066837311" fill="#666666" stroke="none" d="M 30.21 55.1614 L 36.3716 53.5845 L 37.3972 57.5915 L 31.2356 59.1685 L 30.21 55.1614 Z " stroke-width="0.8778353584184341"/>
  <path id="ID0.20703006582334638" fill="url(#grad_4-.173354983329773,0.02808029018342495,-0.02808029018342495,1.173354983329773,-200.15,-179.65)" stroke="none" d="M 13.1392 10.5397 C 13.5683 10.5124 14.0671 10.569 14.3808 10.904 C 14.7552 11.3016 14.9865 11.8413 14.9723 12.4327 C 14.9581 13.024 14.706 13.5534 14.3083 13.9313 C 13.9118 14.3104 13.3711 14.537 12.7797 14.5228 C 12.1883 14.5086 11.659 14.2565 11.2811 13.8588 C 10.902 13.4623 10.6577 12.8777 10.6896 12.3302 C 10.7177 11.8425 11.0595 11.4433 11.4209 11.203 C 11.9198 10.8146 12.5454 10.5748 13.1392 10.5397 Z " stroke-width="1.173690938706437"/>
  <g id="ID0.7100869915448129">
    <path id="ID0.8643447342328727" fill="#F3E066" stroke="none" d="M 13.9111 18.0898 L 23.3389 18.3154 L 23.2317 22.7936 L 13.8039 22.568 L 13.9111 18.0898 Z " stroke-width="0.9430529360304887"/>
    <path id="ID0.3959999615326524" fill="#000000" stroke="none" stroke-linecap="round" d="M 13.8434 20.9181 L 13.9289 19.3165 L 17.9039 22.7133 L 16.0183 22.6682 L 13.8434 20.9181 Z " stroke-width="0.9430529360304887"/>
    <path id="ID0.3959999615326524" fill="#000000" stroke="none" stroke-linecap="round" d="M 16.139 18.2787 L 18.232 18.3288 L 23.2147 22.976 L 20.952 22.9218 L 16.139 18.2787 Z " stroke-width="1.1316635947595122"/>
    <path id="ID0.8609093781560659" fill="#F2BD4C" stroke="none" d="M 14.1483 8.041 L 23.5762 8.2666 L 23.3336 18.4015 L 13.9058 18.1759 L 14.1483 8.041 Z " stroke-width="0.9128193890189372"/>
    <path id="ID0.8326035565696657" fill="#EDB94B" stroke="none" stroke-linecap="round" d="M 16.569 5.9836 L 25.0496 6.2808 L 23.7247 8.3244 L 14.2993 8.0989 L 16.569 5.9836 Z " stroke-width="1.0294764887246304"/>
    <path id="ID0.8326035565696657" fill="#C69B3E" stroke="none" stroke-linecap="round" d="M 24.3644 18.8136 L 24.7311 5.8967 L 23.3133 7.9142 L 22.9028 22.6053 L 24.3644 18.8136 Z " stroke-width="1.0294764769320606"/>
  </g>
  <path id="ID0.20703006582334638" fill="url(#grad_5-.173354983329773,0.02808029018342495,-0.02808029018342495,1.173354983329773,-202.15,-178.4)" stroke="none" d="M 10.8822 11.4901 C 11.4281 11.4914 12.0447 11.7245 12.3808 12.154 C 12.8136 12.7115 13.0834 13.5527 12.9576 14.2987 C 12.9033 14.6531 12.2761 14.5677 11.9476 14.8028 C 11.539 15.0983 11.2889 15.738 10.7797 15.7728 C 10.2341 15.8091 9.659 15.5065 9.2811 15.1088 C 8.902 14.7123 8.5653 14.1114 8.6896 13.5802 C 8.836 12.9556 9.4711 12.5634 9.8987 12.1122 C 10.2088 11.8614 10.5065 11.4893 10.8822 11.4901 Z " stroke-width="1.173690938706437"/>
  <path id="ID0.20703006582334638" fill="url(#grad_6-.173354983329773,0.02808029018342495,-0.02808029018342495,1.173354983329773,-203.5,-176.8)" stroke="none" d="M 9.5322 13.0901 C 10.0777 13.0597 10.6529 13.3564 11.0308 13.754 C 11.4099 14.1505 11.6963 14.742 11.6223 15.2827 C 11.5554 15.7706 11.093 16.1106 10.7722 16.4657 C 10.3529 16.8149 9.9523 17.3149 9.4297 17.3728 C 8.887 17.4338 8.309 17.1065 7.9311 16.7088 C 7.552 16.3123 7.2375 15.7166 7.3396 15.1802 C 7.4469 14.618 8.0828 14.2916 8.4858 13.8868 C 8.8157 13.593 9.0867 13.1134 9.5322 13.0901 Z " stroke-width="1.173690938706437"/>
  <path id="ID0.20703006582334638" fill="url(#grad_7-.3180150985717773,0.03154224157333374,-0.03154224157333374,1.3180150985717773,-231.05,-198.55)" stroke="none" d="M 8.2464 14.7511 C 8.8742 14.7477 9.4361 15.2385 9.8389 15.7124 C 10.2543 16.0969 10.6554 16.6419 10.5942 17.2141 C 10.5313 17.8047 10.036 18.2782 9.5702 18.6732 C 9.1938 19.0809 8.7 19.6019 8.1313 19.5619 C 7.502 19.5165 7.0899 18.8275 6.6769 18.3402 C 6.2987 17.9975 5.7258 17.633 5.7835 17.099 C 5.8467 16.4952 6.4672 16.0827 6.8734 15.6414 C 7.2985 15.2903 7.703 14.754 8.2464 14.7511 Z " stroke-width="1.3183924730772103"/>
  <path id="ID0.20703006582334638" fill="url(#grad_8-.4447875022888184,-0.3170790374279022,0.3170790374279022,1.4447875022888184,-311.85,-152.35)" stroke="none" d="M 5.8135 16.2969 C 6.4968 16.1257 7.24 16.5108 7.8053 16.9198 C 8.3606 17.228 8.943 17.7151 9.0289 18.3549 C 9.1178 19.0154 8.7043 19.6634 8.302 20.2181 C 8.0006 20.7628 7.6013 21.4623 6.9708 21.5704 C 6.2729 21.6887 5.6401 21.0477 5.0601 20.6268 C 4.5565 20.3541 3.835 20.1097 3.7554 19.5123 C 3.6633 18.8374 4.2295 18.2225 4.5545 17.6332 C 4.9242 17.1372 5.222 16.4449 5.8135 16.2969 Z " stroke-width="1.479172080167202"/>
  <path id="ID0.20703006582334638" fill="url(#grad_9-.2366878986358643,-0.8115127682685852,0.8115127682685852,1.2366878986358643,-353.35,-24.5)" stroke="none" d="M 3.5713 19.7611 C 4.1486 19.3575 4.9803 19.4522 5.6543 19.6326 C 6.283 19.7226 7.0008 19.9698 7.3093 20.537 C 7.6279 21.1223 7.4726 21.8752 7.2947 22.5369 C 7.2073 23.1533 7.0838 23.9491 6.5333 24.275 C 5.9235 24.6344 5.1037 24.2613 4.4117 24.0749 C 3.844 23.9998 3.0828 24.0287 2.7953 23.499 C 2.4686 22.9014 2.7783 22.125 2.8717 21.4586 C 3.0402 20.8633 3.0715 20.1103 3.5713 19.7611 Z " stroke-width="1.4791720426290285"/>
  <path id="ID0.20703006582334638" fill="url(#grad_10-.157376766204834,-0.9211021661758423,0.9211021661758423,1.157376766204834,-356.6,11.65)" stroke="none" d="M 2.8723 23.1178 C 3.4103 22.6632 4.2472 22.6815 4.9349 22.7997 C 5.5692 22.8318 6.3065 23.0124 6.6656 23.549 C 7.0363 24.1028 6.9505 24.8667 6.8338 25.5419 C 6.8031 26.1637 6.7528 26.9675 6.2344 27.3423 C 5.6599 27.7559 4.8094 27.4592 4.1033 27.3369 C 3.5312 27.3139 2.7757 27.4123 2.4411 26.9111 C 2.0612 26.3458 2.2986 25.5443 2.3308 24.8721 C 2.4441 24.2639 2.4065 23.5112 2.8723 23.1178 Z " stroke-width="1.47917212638847"/>
  <path id="ID0.20703006582334638" fill="url(#grad_11-.23802368342876434,-1.7687091827392578,1.7687091827392578,0.23802368342876434,-320.1,318.5)" stroke="none" d="M 2.4066 28.1789 C 2.4951 27.3337 3.2389 26.6504 3.9362 26.1788 C 4.5152 25.6769 5.308 25.2182 6.0689 25.3854 C 6.8542 25.5577 7.4177 26.2944 7.8801 26.9797 C 8.3729 27.5466 9.0006 28.2884 8.8624 29.0477 C 8.7079 29.8877 7.7197 30.3399 7.0027 30.8233 C 6.4855 31.2813 5.9101 31.998 5.2001 31.8412 C 4.397 31.6665 3.9342 30.7705 3.4007 30.1584 C 2.9913 29.5343 2.3297 28.9105 2.4066 28.1789 Z " stroke-width="1.7846533128255386"/>
  <path id="ID0.20703006582334638" fill="url(#grad_12-1.1195762157440186,-1.389797329902649,1.389797329902649,-1.1195762157440186,-6.8,466.25)" stroke="none" d="M 4.4686 32.4645 C 3.9163 31.8186 3.9324 30.8088 4.07 29.9783 C 4.1042 29.2128 4.3169 28.3219 4.9618 27.8849 C 5.6272 27.4336 6.5496 27.5317 7.365 27.6677 C 8.1154 27.7003 9.0855 27.7553 9.5414 28.3781 C 10.0446 29.0681 9.6927 30.0964 9.5501 30.9492 C 9.5265 31.6397 9.6506 32.5504 9.0482 32.9577 C 8.3689 33.4201 7.4002 33.1394 6.5891 33.1054 C 5.8545 32.9729 4.9466 33.0237 4.4686 32.4645 Z " stroke-width="1.7846533335816874"/>
  <path id="ID0.20703006582334638" fill="url(#grad_13-1.1195762157440186,-1.389797329902649,1.389797329902649,-1.1195762157440186,-4.4,466.6)" stroke="none" d="M 6.8686 32.8145 C 6.3163 32.1686 6.3324 31.1588 6.47 30.3283 C 6.5042 29.5628 6.7169 28.6719 7.3618 28.2349 C 8.0272 27.7836 8.9496 27.8817 9.765 28.0177 C 10.5154 28.0503 11.4855 28.1053 11.9414 28.7281 C 12.4446 29.4181 12.0927 30.4464 11.9501 31.2992 C 11.9265 31.9897 12.0506 32.9004 11.4482 33.3077 C 10.7689 33.7701 9.8002 33.4894 8.9891 33.4554 C 8.2545 33.3229 7.3466 33.3737 6.8686 32.8145 Z " stroke-width="1.7846533335816874"/>
  <path id="ID0.20703006582334638" fill="url(#grad_14-.3059983253479004,1.4201346635818481,-1.5034576654434204,1.3816542625427246,9.8,-452)" stroke="none" d="M 15.1899 28.6588 C 15.8326 29.3155 15.8565 30.4334 15.7373 31.3657 C 15.7309 32.2153 15.5306 33.2222 14.8295 33.7721 C 14.1062 34.3399 13.0736 34.3272 12.1587 34.2614 C 11.3205 34.3032 10.2364 34.343 9.7023 33.7019 C 9.1126 32.9913 9.4624 31.8182 9.5861 30.8607 C 9.5839 30.0951 9.4078 29.1013 10.0626 28.5886 C 10.8011 28.007 11.8929 28.2168 12.7988 28.1704 C 13.6235 28.2405 14.6338 28.0903 15.1899 28.6588 Z " stroke-width="1.98642480745169"/>
  <g id="ID0.10950249573215842">
    <path id="ID0.6494581247679889" fill="none" stroke="url(#grad_15)" stroke-width="5.314827162115559" d="M 17.1578 44.9953 L 23.1087 45.1377 L 23.0108 49.229 L 17.0599 49.0865 L 17.1578 44.9953 Z "/>
    <path id="ID0.11857579834759235" fill="#4F4F4F" stroke="none" d="M 17.007 36.1239 L 23.7538 36.2853 L 23.4309 49.7789 L 16.6841 49.6175 L 17.007 36.1239 Z " stroke-width="1.173690938706437"/>
    <path id="ID0.4165389509871602" fill="none" stroke="url(#grad_16)" stroke-width="2.347381877412874" stroke-linecap="round" d="M 15.7696 37.7325 L 15.5099 48.586 L 24.4846 48.8595 L 24.8044 37.9487 "/>
    <path id="ID0.8643447342328727" fill="#F3E066" stroke="none" d="M 14.4809 32.712 L 26.2145 32.9928 L 26.0811 38.5663 L 14.3475 38.2855 L 14.4809 32.712 Z " stroke-width="1.173690938706437"/>
    <path id="ID0.3959999615326524" fill="#000000" stroke="none" stroke-linecap="round" d="M 14.3967 36.2321 L 14.5031 34.2388 L 19.4502 38.4663 L 17.1035 38.4101 L 14.3967 36.2321 Z " stroke-width="1.173690938706437"/>
    <path id="ID0.3959999615326524" fill="#000000" stroke="none" stroke-linecap="round" d="M 17.2341 32.7735 L 19.839 32.8358 L 26.0403 38.6195 L 23.2242 38.5521 L 17.2341 32.7735 Z " stroke-width="1.408429126483375"/>
    <path id="ID0.6601373604498804" fill="url(#grad_17-.0706188678741455,0.025621647015213966,-0.025621647015213966,1.0706188678741455,-187.55,-157.3)" stroke="url(#grad_18)" stroke-width="2.141850815574128" stroke-linecap="round" d="M 25.0931 32.7907 L 15.5685 32.402 L 15.7504 24.8006 L 20.4578 20.5748 L 25.2827 24.8681 L 25.0931 32.7907 Z "/>
    <path id="ID0.811193433124572" fill="url(#grad_19-.7271495461463928,0.017401868477463722,-0.017401868477463722,0.7271495461463928,-109.45,-97.55)" stroke="none" d="M 20.3533 24.5862 C 20.7096 24.5947 21.0283 24.7471 21.2568 24.9862 C 21.4846 25.2259 21.6216 25.5515 21.6131 25.9078 C 21.6046 26.2641 21.4522 26.5827 21.2132 26.8113 C 20.9734 27.0391 20.6478 27.1761 20.2915 27.1676 C 19.9352 27.1591 19.6166 27.0066 19.388 26.7676 C 19.1602 26.5279 19.0232 26.2023 19.0317 25.846 C 19.0403 25.4897 19.1927 25.171 19.4317 24.9425 C 19.6714 24.7147 19.997 24.5777 20.3533 24.5862 Z " stroke-width="0.7273577438148383"/>
    <path id="ID0.811193433124572" fill="url(#grad_20-.7271495461463928,0.017401868477463722,-0.017401868477463722,0.7271495461463928,-112.25,-94.5)" stroke="none" d="M 17.5533 27.6362 C 17.9096 27.6447 18.2283 27.7971 18.4568 28.0362 C 18.6846 28.2759 18.8216 28.6015 18.8131 28.9578 C 18.8046 29.3141 18.6522 29.6327 18.4132 29.8613 C 18.1734 30.0891 17.8478 30.2261 17.4915 30.2176 C 17.1352 30.2091 16.8166 30.0566 16.588 29.8176 C 16.3602 29.5779 16.2232 29.2523 16.2317 28.896 C 16.2403 28.5397 16.3927 28.221 16.6317 27.9925 C 16.8714 27.7647 17.197 27.6277 17.5533 27.6362 Z " stroke-width="0.7273577438148383"/>
    <path id="ID0.811193433124572" fill="url(#grad_21-.7271495461463928,0.017401868477463722,-0.017401868477463722,0.7271495461463928,-106.65,-94.2)" stroke="none" d="M 23.1533 27.9362 C 23.5096 27.9447 23.8283 28.0971 24.0568 28.3362 C 24.2846 28.5759 24.4216 28.9015 24.4131 29.2578 C 24.4046 29.6141 24.2522 29.9327 24.0132 30.1613 C 23.7734 30.3891 23.4478 30.5261 23.0915 30.5176 C 22.7352 30.5091 22.4166 30.3566 22.188 30.1176 C 21.9602 29.8779 21.8232 29.5523 21.8317 29.196 C 21.8403 28.8397 21.9927 28.521 22.2317 28.2925 C 22.4714 28.0647 22.797 27.9277 23.1533 27.9362 Z " stroke-width="0.7273577438148383"/>
  </g>
  <path id="ID0.134396662004292" fill="#876A52" stroke="none" d="M 43.8831 30.45 L 48.1331 30.45 L 48.1331 32.3 L 43.8831 32.3 L 43.8831 30.45 Z " stroke-width="1.0768922071005929"/>
</svg>