<svg xmlns="http://www.w3.org/2000/svg" xmlns:xlink="http://www.w3.org/1999/xlink" version="1.1" width="56.159073072760094" height="64.05588551172494" viewBox="-0.9293663293564247 0.4238049000060631 56.159073072760094 64.05588551172494">
  <defs>
    <linearGradient id="grad_1" x2="1">
      <stop offset="0" stop-color="#4F4F4F" stop-opacity="1"/>
      <stop offset="1" stop-color="#4F4F4F" stop-opacity="1"/>
    </linearGradient>
    <linearGradient id="grad_2" x2="1">
      <stop offset="0" stop-color="#4F4F4F" stop-opacity="1"/>
      <stop offset="1" stop-color="#4F4F4F" stop-opacity="1"/>
    </linearGradient>
    <linearGradient id="grad_3" x2="1">
      <stop offset="0" stop-color="#F0C590" stop-opacity="1"/>
      <stop offset="1" stop-color="#F0C590" stop-opacity="1"/>
    </linearGradient>
    <radialGradient id="grad_4" cx="0.6575" cy="0.5616" r="0.8547499999999999">
      <stop offset="0" stop-color="#E1B174" stop-opacity="1"/>
      <stop offset="1" stop-color="#AE632A" stop-opacity="1"/>
    </radialGradient>
    <radialGradient id="grad_5" cx="0.6575" cy="0.5616" r="0.8547499999999999">
      <stop offset="0" stop-color="#E1B174" stop-opacity="1"/>
      <stop offset="1" stop-color="#AE632A" stop-opacity="1"/>
    </radialGradient>
    <radialGradient id="grad_6" cx="0.6575" cy="0.5616" r="0.8547499999999999">
      <stop offset="0" stop-color="#E1B174" stop-opacity="1"/>
      <stop offset="1" stop-color="#AE632A" stop-opacity="1"/>
    </radialGradient>
    <radialGradient id="grad_7" cx="0.6575" cy="0.5616" r="0.8547499999999999">
      <stop offset="0" stop-color="#E1B174" stop-opacity="1"/>
      <stop offset="1" stop-color="#AE632A" stop-opacity="1"/>
    </radialGradient>
    <radialGradient id="grad_8" cx="0.6575" cy="0.5616" r="0.8547499999999999">
      <stop offset="0" stop-color="#E1B174" stop-opacity="1"/>
      <stop offset="1" stop-color="#AE632A" stop-opacity="1"/>
    </radialGradient>
    <radialGradient id="grad_9" cx="0.6575" cy="0.5616" r="0.8547499999999999">
      <stop offset="0" stop-color="#E1B174" stop-opacity="1"/>
      <stop offset="1" stop-color="#AE632A" stop-opacity="1"/>
    </radialGradient>
    <radialGradient id="grad_10" cx="0.6575" cy="0.5616" r="0.8547499999999999">
      <stop offset="0" stop-color="#E1B174" stop-opacity="1"/>
      <stop offset="1" stop-color="#AE632A" stop-opacity="1"/>
    </radialGradient>
    <radialGradient id="grad_11" cx="0.6575" cy="0.5616" r="0.8547499999999999">
      <stop offset="0" stop-color="#E1B174" stop-opacity="1"/>
      <stop offset="1" stop-color="#AE632A" stop-opacity="1"/>
    </radialGradient>
    <radialGradient id="grad_12" cx="0.6575" cy="0.5616" r="0.8547499999999999">
      <stop offset="0" stop-color="#E1B174" stop-opacity="1"/>
      <stop offset="1" stop-color="#AE632A" stop-opacity="1"/>
    </radialGradient>
    <radialGradient id="grad_13" cx="0.6575" cy="0.5616" r="0.8547499999999999">
      <stop offset="0" stop-color="#E1B174" stop-opacity="1"/>
      <stop offset="1" stop-color="#AE632A" stop-opacity="1"/>
    </radialGradient>
    <radialGradient id="grad_14" cx="0.6575" cy="0.5616" r="0.8547499999999999">
      <stop offset="0" stop-color="#E1B174" stop-opacity="1"/>
      <stop offset="1" stop-color="#AE632A" stop-opacity="1"/>
    </radialGradient>
    <linearGradient id="grad_15" x2="1">
      <stop offset="0" stop-color="#4F4F4F" stop-opacity="1"/>
      <stop offset="1" stop-color="#4F4F4F" stop-opacity="1"/>
    </linearGradient>
    <linearGradient id="grad_16" y2="1" x2="0">
      <stop offset="0" stop-color="#4F4F4F" stop-opacity="1"/>
      <stop offset="1" stop-color="#737373" stop-opacity="1"/>
    </linearGradient>
    <radialGradient id="grad_17" cx="0.5366" cy="0.2556" r="0.96772">
      <stop offset="0" stop-color="#737373" stop-opacity="1"/>
      <stop offset="1" stop-color="#4F4F4F" stop-opacity="1"/>
    </radialGradient>
    <radialGradient id="grad_18" cx="0.6192" cy="0.2218" r="1.01166">
      <stop offset="0" stop-color="#737373" stop-opacity="1"/>
      <stop offset="1" stop-color="#4F4F4F" stop-opacity="1"/>
    </radialGradient>
    <radialGradient id="grad_19" cx="0.4929" cy="0.5492" r="0.71396">
      <stop offset="0" stop-color="#646464" stop-opacity="1"/>
      <stop offset="1" stop-color="#434343" stop-opacity="1"/>
    </radialGradient>
    <radialGradient id="grad_20" cx="0.4929" cy="0.5492" r="0.71396">
      <stop offset="0" stop-color="#646464" stop-opacity="1"/>
      <stop offset="1" stop-color="#434343" stop-opacity="1"/>
    </radialGradient>
    <radialGradient id="grad_21" cx="0.4929" cy="0.5492" r="0.71396">
      <stop offset="0" stop-color="#646464" stop-opacity="1"/>
      <stop offset="1" stop-color="#434343" stop-opacity="1"/>
    </radialGradient>
  <linearGradient id="grad_1-.9355133771896362,0.022388353943824768,-0.01218391302973032,0.5091134905815125,-185.1,-63" x2="48.4426" x1="17.4771" y1="38.0237" y2="38.7647" gradientUnits="userSpaceOnUse">
      <stop offset="0" stop-color="#4F4F4F" stop-opacity="1"/>
      <stop offset="1" stop-color="#4F4F4F" stop-opacity="1"/>
    </linearGradient><radialGradient id="grad_4-.173354983329773,0.02808029018342495,-0.02808029018342495,1.173354983329773,-200.65,-178.65" cx="12.9959" cy="13.7851" r="3.5436" gradientUnits="userSpaceOnUse">
      <stop offset="0" stop-color="#E1B174" stop-opacity="1"/>
      <stop offset="1" stop-color="#AE632A" stop-opacity="1"/>
    </radialGradient><radialGradient id="grad_5-.173354983329773,0.02808029018342495,-0.02808029018342495,1.173354983329773,-202.65,-177.4" cx="11.0068" cy="14.9145" r="3.6829" gradientUnits="userSpaceOnUse">
      <stop offset="0" stop-color="#E1B174" stop-opacity="1"/>
      <stop offset="1" stop-color="#AE632A" stop-opacity="1"/>
    </radialGradient><radialGradient id="grad_6-.173354983329773,0.02808029018342495,-0.02808029018342495,1.173354983329773,-204,-175.8" cx="9.6492" cy="16.5156" r="3.6779" gradientUnits="userSpaceOnUse">
      <stop offset="0" stop-color="#E1B174" stop-opacity="1"/>
      <stop offset="1" stop-color="#AE632A" stop-opacity="1"/>
    </radialGradient><radialGradient id="grad_7-.3180150985717773,0.03154224157333374,-0.03154224157333374,1.3180150985717773,-231.55,-197.55" cx="8.441" cy="18.4713" r="4.1164" gradientUnits="userSpaceOnUse">
      <stop offset="0" stop-color="#E1B174" stop-opacity="1"/>
      <stop offset="1" stop-color="#AE632A" stop-opacity="1"/>
    </radialGradient><radialGradient id="grad_8-.4447875022888184,-0.3170790374279022,0.3170790374279022,1.4447875022888184,-312.35,-151.35" cx="6.7958" cy="20.0761" r="4.6184" gradientUnits="userSpaceOnUse">
      <stop offset="0" stop-color="#E1B174" stop-opacity="1"/>
      <stop offset="1" stop-color="#AE632A" stop-opacity="1"/>
    </radialGradient><radialGradient id="grad_9-.2366878986358643,-0.8115127682685852,0.8115127682685852,1.2366878986358643,-353.85,-23.5" cx="5.4474" cy="22.8289" r="4.6184" gradientUnits="userSpaceOnUse">
      <stop offset="0" stop-color="#E1B174" stop-opacity="1"/>
      <stop offset="1" stop-color="#AE632A" stop-opacity="1"/>
    </radialGradient><radialGradient id="grad_10-.157376766204834,-0.9211021661758423,0.9211021661758423,1.157376766204834,-357.1,12.65" cx="4.9274" cy="25.9599" r="4.6184" gradientUnits="userSpaceOnUse">
      <stop offset="0" stop-color="#E1B174" stop-opacity="1"/>
      <stop offset="1" stop-color="#AE632A" stop-opacity="1"/>
    </radialGradient><radialGradient id="grad_11-.23802368342876434,-1.7687091827392578,1.7687091827392578,0.23802368342876434,-320.6,319.5" cx="5.6697" cy="28.6479" r="5.5723" gradientUnits="userSpaceOnUse">
      <stop offset="0" stop-color="#E1B174" stop-opacity="1"/>
      <stop offset="1" stop-color="#AE632A" stop-opacity="1"/>
    </radialGradient><radialGradient id="grad_12-1.1195762157440186,-1.389797329902649,1.389797329902649,-1.1195762157440186,-7.3,467.25" cx="6.1728" cy="30.3687" r="5.5723" gradientUnits="userSpaceOnUse">
      <stop offset="0" stop-color="#E1B174" stop-opacity="1"/>
      <stop offset="1" stop-color="#AE632A" stop-opacity="1"/>
    </radialGradient><radialGradient id="grad_13-1.1195762157440186,-1.389797329902649,1.389797329902649,-1.1195762157440186,-4.9,467.6" cx="8.5728" cy="30.7187" r="5.5723" gradientUnits="userSpaceOnUse">
      <stop offset="0" stop-color="#E1B174" stop-opacity="1"/>
      <stop offset="1" stop-color="#AE632A" stop-opacity="1"/>
    </radialGradient><radialGradient id="grad_14-.3059983253479004,1.4201346635818481,-1.5034576654434204,1.3816542625427246,9.3,-451" cx="12.3601" cy="33.3094" r="6.2022" gradientUnits="userSpaceOnUse">
      <stop offset="0" stop-color="#E1B174" stop-opacity="1"/>
      <stop offset="1" stop-color="#AE632A" stop-opacity="1"/>
    </radialGradient><radialGradient id="grad_17-.0706188678741455,0.025621647015213966,-0.025621647015213966,1.0706188678741455,-188.05,-156.3" cx="20.3931" cy="24.6792" r="10.5408" gradientUnits="userSpaceOnUse">
      <stop offset="0" stop-color="#737373" stop-opacity="1"/>
      <stop offset="1" stop-color="#4F4F4F" stop-opacity="1"/>
    </radialGradient><radialGradient id="grad_19-.7271495461463928,0.017401868477463722,-0.017401868477463722,0.7271495461463928,-109.95,-96.55" cx="19.8011" cy="27.0035" r="1.8435" gradientUnits="userSpaceOnUse">
      <stop offset="0" stop-color="#646464" stop-opacity="1"/>
      <stop offset="1" stop-color="#434343" stop-opacity="1"/>
    </radialGradient><radialGradient id="grad_20-.7271495461463928,0.017401868477463722,-0.017401868477463722,0.7271495461463928,-112.75,-93.5" cx="17.0011" cy="30.0535" r="1.8435" gradientUnits="userSpaceOnUse">
      <stop offset="0" stop-color="#646464" stop-opacity="1"/>
      <stop offset="1" stop-color="#434343" stop-opacity="1"/>
    </radialGradient><radialGradient id="grad_21-.7271495461463928,0.017401868477463722,-0.017401868477463722,0.7271495461463928,-107.15,-93.2" cx="22.6011" cy="30.3535" r="1.8435" gradientUnits="userSpaceOnUse">
      <stop offset="0" stop-color="#646464" stop-opacity="1"/>
      <stop offset="1" stop-color="#434343" stop-opacity="1"/>
    </radialGradient></defs>
  <!-- Exported by Scratch - http://scratch.mit.edu/ -->
  <path id="ID0.10165197495371103" fill="#4F4F4F" stroke="#4F4F4F" stroke-width="1.4795918405057134" stroke-linecap="round" d="M 39.9395 59.9039 C 40.3361 59.658 40.6654 59.3172 41.0666 59.0027 C 41.9007 58.3506 42.7477 57.7081 43.6011 57.0803 C 44.3695 56.5031 45.1821 55.9806 45.9893 55.4546 C 46.3879 55.144 47.0213 55.034 47.22 54.5676 C 47.4709 53.9753 47.4146 53.2046 47.0911 52.6226 C 46.861 52.1955 46.2979 51.9049 45.7631 51.9122 C 45.1238 51.9226 44.6392 52.4944 44.0365 52.7575 C 43.6397 52.9322 43.2158 53.0503 42.8333 53.2523 C 41.9974 53.694 41.2795 54.4466 40.378 54.7895 C 39.9055 54.9696 39.3428 54.4725 38.8903 54.6644 C 38.0339 55.1329 37.1867 55.8117 36.7185 56.6366 C 36.4722 57.0732 36.7658 57.6611 36.9633 58.1223 C 37.1566 58.5755 37.5496 58.9162 37.8574 59.3011 C 38.1656 59.6867 38.343 60.2792 38.8105 60.4353 C 39.1808 60.5574 39.5795 60.138 39.9395 59.9039 Z "/>
  <path id="ID0.10165197495371103" fill="#666666" stroke="#666666" stroke-width="1.4795918391369325" stroke-linecap="round" d="M 16.7641 54.0695 C 16.9889 54.4784 17.312 54.8251 17.605 55.2422 C 18.2124 56.1094 18.8095 56.989 19.3917 57.8742 C 19.9278 58.6718 20.4069 59.5107 20.8898 60.3444 C 21.1791 60.7587 21.2556 61.3971 21.711 61.62 C 22.2893 61.9016 23.0619 61.8859 23.66 61.5934 C 24.0986 61.3859 24.4185 60.8389 24.4392 60.3044 C 24.4624 59.6654 23.9168 59.1515 23.6857 58.5358 C 23.5321 58.1304 23.4364 57.7009 23.2548 57.3083 C 22.8575 56.4505 22.1437 55.694 21.8485 54.7757 C 21.6934 54.2944 22.2194 53.7586 22.0515 53.2967 C 21.6286 52.4169 20.9952 51.5352 20.196 51.0244 C 19.7729 50.7554 19.1704 51.0178 18.6995 51.1908 C 18.2368 51.3601 17.876 51.7347 17.4754 52.0218 C 17.0742 52.3094 16.4732 52.4554 16.2928 52.9141 C 16.1513 53.2774 16.5492 53.6976 16.7641 54.0695 Z "/>
  <path id="ID0.8862749082036316" fill="#2F5E8D" stroke="#23476A" stroke-width="1.9876926925086822" stroke-linecap="round" d="M 38.3782 57.294 C 39.4144 57.8187 40.6951 55.8726 40.6128 54.7502 C 40.4507 52.5397 38.9815 50.6743 37.9752 48.7638 C 36.9494 47.0313 36.0904 45.0459 34.5372 43.8544 C 33.6328 43.1607 32.1827 43.2937 31.1266 43.7205 C 30.3588 44.03 30.0497 45.0155 29.8304 45.8038 C 29.6824 46.3409 29.8032 46.8994 30.077 47.3352 C 30.8967 48.6396 32.1056 49.5782 33.0669 50.7437 C 34.8238 52.8725 35.8874 56.0296 38.3782 57.294 Z "/>
  <path id="ID0.8862749082036316" fill="#3C71B4" stroke="#2F588C" stroke-width="2.0000000395820483" stroke-linecap="round" d="M 18.9615 49.396 C 18.6068 51.1735 20.3392 54.2589 22.2268 54.0926 C 25.5407 53.8655 27.9909 50.7192 30.4414 48.5282 C 32.0673 47.0737 32.8048 44.7891 34.4434 43.342 C 35.3725 42.5216 37.4199 43.2302 37.9325 42.0425 C 38.9987 39.5654 40.0642 34.0079 38.3171 33.9503 C 35.7435 33.8647 32.3028 39.0502 29.4375 41.7463 C 28.4574 42.6683 27.6211 43.7705 26.6503 44.7168 C 25.6589 45.6825 24.824 46.8058 23.6675 47.5315 C 22.2287 48.4342 19.2702 47.8563 18.9615 49.396 Z "/>
  <path id="ID0.4931722558103502" fill="url(#grad_1-.9355133771896362,0.022388353943824768,-0.01218391302973032,0.5091134905815125,-185.1,-63)" stroke="url(#grad_2)" stroke-width="1.506672831985684" d="M 17.4479 39.2455 L 19.9901 40.5799 L 43.562 41.2714 L 44.0414 38.8377 L 48.4426 38.7647 L 48.2048 42.8343 L 17.6353 43.147 L 17.4479 39.2455 Z "/>
  <path id="ID0.2493568635545671" fill="#FFFFFF" stroke="none" stroke-linecap="round" d="M 33.6922 35.24 L 40.4438 35.2515 L 40.0482 39.2432 L 33.5402 41.5882 L 33.6922 35.24 Z " stroke-width="1.0000000168520873"/>
  <path id="ID0.3092493093572557" fill="#FFD499" stroke="#F0C690" stroke-width="1.1486011354884194" stroke-linecap="round" d="M 27.2051 36.5921 C 26.7998 36.8654 27.5277 38.2125 28.0726 38.8295 C 29.5853 40.5461 31.3503 42.0977 33.3962 43.0364 C 35.6601 44.1065 38.2316 44.4379 40.6943 44.711 C 42.709 44.9382 44.7644 44.9131 46.7817 44.6372 C 47.5757 44.5288 48.6057 44.4158 48.9902 43.6837 C 49.694 42.4855 50.3922 40.7337 49.6682 39.5182 C 48.9673 38.3468 47.1269 38.2345 45.7596 38.2652 C 44.3779 38.2965 43.1677 39.5006 41.7717 39.5681 C 40.1242 39.6494 38.3942 39.329 36.9162 38.5761 C 34.6925 37.5201 33.3174 34.8436 30.9031 34.2562 L 27.5205 36.4189 Z "/>
  <path id="ID0.09319758368656039" fill="#3C71B4" stroke="#2F588D" stroke-width="1.6734694524987723" stroke-linecap="round" d="M 29.3151 31.0733 C 28.5147 31.2626 28.0064 32.0388 27.4388 32.535 C 27.0105 32.9122 26.528 33.2413 26.1561 33.676 C 25.7617 34.137 25.345 34.6233 25.1571 35.2005 C 24.9845 35.7304 25.0818 36.3178 25.117 36.8735 C 25.1529 37.4385 24.9923 38.1319 25.3698 38.5535 C 25.7529 38.9812 26.4594 38.9763 27.0327 39.0118 C 27.5977 39.0463 28.2383 39.0666 28.7127 38.7591 C 29.2118 38.4354 29.3965 37.7819 29.7107 37.2764 C 30.0198 36.7791 30.1147 36.0992 30.5843 35.7489 C 31.0444 35.4059 31.698 35.4458 32.2673 35.3707 C 32.8626 35.292 33.483 35.4199 34.0687 35.2883 C 34.6224 35.1642 35.4331 35.1451 35.6333 34.6143 C 35.8477 34.0478 35.4241 33.3153 34.9623 32.9243 C 34.073 32.1706 32.9292 31.7365 31.8186 31.3843 C 30.9447 31.109 30.0914 30.8475 29.3151 31.0733 Z "/>
  <g id="ID0.7357129715383053">
    <path id="ID0.191649260930717" fill="#FFD499" stroke="none" stroke-linecap="round" d="M 37.9298 9.0946 C 41.7016 8.2947 46.6288 5.6016 49.4751 8.2027 C 52.4701 10.9387 49.4039 16.4497 50.2478 20.4749 C 50.4619 21.4458 52.1191 21.0535 52.3727 21.8846 C 52.7626 23.1588 52.5617 24.7378 51.9404 25.8615 C 51.6611 26.3631 50.5661 25.5687 50.2195 25.9975 C 48.9047 27.6262 49.0141 30.3663 47.2337 31.5293 C 43.8925 33.7127 39.848 35.5212 35.8623 35.317 C 33.0132 35.1709 31.1317 32.0536 28.7438 30.4639 C 27.9062 29.9073 26.7704 29.7469 26.3394 28.8265 C 24.4407 25.1982 21.0741 21.3114 22.0187 17.3355 C 22.7596 14.2141 27.3039 13.6662 30.1505 12.1646 C 32.6249 10.9095 35.1836 9.6766 37.9298 9.0946 Z " stroke-width="0.999999994758977"/>
    <path id="ID0.8556915456429124" fill="#F0C690" stroke="none" stroke-linecap="round" d="M 41.1534 4.0282 C 41.8464 4.1139 42.3403 4.8284 43.018 5.011 C 44.3087 5.3581 45.6001 5.5093 46.881 5.5831 C 47.8419 5.6403 49.1543 4.6844 49.7112 5.403 C 50.8933 6.9321 51.8318 9.1992 51.1807 11.0193 C 50.7122 12.3305 48.6115 11.9227 47.2997 12.2035 C 38.306 14.0588 39.5465 11.8122 37.6585 11.1264 C 37.1158 10.8151 36.0291 10.77 35.7787 11.3477 C 35.0354 13.0614 33.6568 16.1377 35.1033 16.8081 C 37.2403 17.799 40.1718 14.5053 42.8463 14.6387 C 44.571 14.7251 46.7518 15.668 47.2646 17.2734 C 47.9834 19.6621 47.6549 22.8925 45.9098 24.5773 C 44.2887 26.1414 41.3733 25.7659 39.1707 25.1855 C 37.2602 24.6704 35.4611 20.1215 34.4002 21.5124 C 32.3195 24.2419 34.3142 29.6103 33.0035 33.4335 C 32.6766 34.3896 31.5448 32.4304 30.7839 31.9644 C 29.0818 30.9219 27.1237 30.2123 25.6573 28.8599 C 24.6811 27.9584 24.2383 26.5335 23.6931 25.2555 C 23.1207 24.009 22.3463 22.7421 22.3145 21.3055 C 22.2388 17.8595 22.0453 14.1962 23.3542 11.0078 C 24.2393 8.8535 26.4078 7.4475 28.3358 6.2122 C 30.1925 5.0907 32.3802 4.457 34.467 4.0889 C 36.6591 3.7008 38.9438 3.7616 41.1534 4.0282 Z " stroke-width="0.999999994758977"/>
    <path id="ID0.2703239833936095" fill="#653B00" stroke="none" stroke-linecap="round" d="M 42.116 15.9861 C 43.5514 16.124 44.6821 16.3592 45.7258 17.0392 C 46.5 17.5446 47.4012 18.475 47.3335 19.451 C 47.2414 20.1374 46.1128 20.3514 45.4012 20.4176 C 44.1179 20.5364 42.8542 20.0132 41.5688 19.8515 C 40.4025 19.7776 39.165 20.0686 38.0471 19.711 C 37.3708 19.4933 36.3868 19.0281 36.4385 18.3539 C 36.5421 17.4115 37.5283 16.6724 38.3717 16.3325 C 39.5191 15.8712 40.6806 15.8482 42.116 15.9861 Z " stroke-width="0.999999994758977"/>
    <g id="ID0.956311296671629">
      <path id="ID0.30213406030088663" fill="#FFFFFF" stroke="none" stroke-linecap="round" d="M 41.9473 16.9243 C 43.1143 17.0085 44.4711 17.1249 45.2673 17.9698 C 46.0832 18.8376 46.4379 20.1068 46.3145 21.391 C 46.1911 22.6752 45.6092 23.8643 44.635 24.5501 C 43.7091 25.2006 42.4154 24.9784 41.3347 24.8596 C 40.1837 24.764 38.759 24.7929 38.0546 23.9179 C 37.3416 23.029 37.5683 21.6478 37.7052 20.5138 C 37.7836 19.4071 37.8224 18.0469 38.6869 17.3375 C 39.534 16.6435 40.8667 16.7925 41.9473 16.9243 Z " stroke-width="0.9946808082933493"/>
      <path id="ID0.8961478788405657" fill="#000000" stroke="none" stroke-linecap="round" d="M 44.3623 17.2444 C 45.0247 17.308 45.6523 17.9309 45.95 18.5461 C 46.3276 19.3268 46.3754 20.2647 46.3123 21.129 C 46.1956 22.136 46.0138 23.2268 45.4219 24.0412 C 45.0097 24.6082 44.2018 24.9363 43.5012 24.9059 C 42.8869 24.8099 42.3087 24.2757 42.0278 23.7151 C 41.6044 22.87 41.4848 21.9722 41.5878 20.8999 C 41.6909 19.8276 42.0535 18.8822 42.5558 18.2199 C 43.058 17.5587 43.6999 17.1807 44.3623 17.2444 Z " stroke-width="0.9946808082933493"/>
    </g>
    <path id="ID0.06146117439493537" fill="#F0C690" stroke="#FFDBA0" stroke-width="1.7719572615476205" stroke-linecap="round" d="M 27.7979 20.4446 C 28.9742 20.7413 30.189 21.2236 31.0084 22.0738 C 31.6756 22.8383 31.9998 23.9739 31.936 24.9387 C 31.8613 26.0845 31.6202 27.5867 30.603 28.1196 C 29.4444 28.7261 27.785 28.3342 26.6179 27.6593 C 25.4819 26.9852 24.837 25.6411 24.269 24.4093 C 23.8992 23.6064 23.7945 22.661 23.9799 21.7712 C 24.085 21.269 24.6107 20.8779 25.0956 20.7073 C 25.9955 20.391 26.9213 20.2235 27.7979 20.4446 Z "/>
    <path id="ID0.9459127215668559" fill="#FFD499" stroke="none" stroke-linecap="round" d="M 27.9624 23.9594 C 28.7245 24.4334 29.5335 24.8909 30.3409 25.3432 C 30.5891 25.4374 31.1621 25.2965 31.1205 25.5939 C 31.0271 26.252 30.6179 26.9149 30.0599 27.2852 C 29.5384 27.6309 28.8581 27.5706 28.2794 27.4557 C 27.7253 27.3884 27.1954 27.1115 26.7891 26.76 C 26.2777 26.311 25.7303 25.8395 25.4845 25.178 C 25.0982 24.1372 24.4271 22.162 25.0487 21.8711 C 25.7199 21.5569 26.9489 23.3306 27.9624 23.9594 Z " stroke-width="0.999999994758977"/>
    <path id="ID0.6276269098743796" fill="#F0C690" stroke="none" d="M 30.928 20.9935 L 33.1309 21.5279 L 32.1748 29.6601 L 29.9294 29.4872 L 30.928 20.9935 Z " stroke-width="1.3604594336042972"/>
    <path id="ID0.7435970422811806" fill="none" stroke="#663B00" stroke-width="1.999999989517954" stroke-linecap="round" d="M 40.7115 13.0789 L 47.6365 16.8083 "/>
    <path id="ID0.41598089784383774" fill="none" stroke="url(#grad_3)" stroke-width="1.999999989517954" stroke-linecap="round" d="M 50.2673 11.3851 L 49.4304 20.095 L 52.1028 21.5573 L 51.4733 26.0175 L 49.1715 26.4494 L 48.0336 29.4041 L 43.6359 33.3515 L 35.5454 34.4327 L 31.8096 32.0143 "/>
    <path id="ID0.46292465971782804" fill="#876A53" stroke="none" stroke-linecap="round" d="M 35.6912 28.0007 C 37.9604 28.5921 40.3898 28.2921 42.6563 28.3365 C 44.8968 28.3806 47.6044 27.2404 49.384 28.205 C 50.2839 28.6938 48.6339 30.409 47.903 31.2857 C 47.0122 32.346 45.8668 33.2495 44.6539 33.9743 C 43.564 34.5698 42.3477 35.0475 41.095 35.1883 C 38.8522 35.4385 36.3742 35.9862 34.3378 35.0392 C 32.5421 34.2065 30.8653 32.3127 30.557 30.3414 C 30.2894 28.6275 31.3267 26.371 32.8677 25.6733 C 33.9708 25.1747 34.5455 27.6627 35.6912 28.0007 Z " stroke-width="1.1148966210708273"/>
    <path id="ID0.46292465971782804" fill="#9C7A60" stroke="none" stroke-linecap="round" d="M 36.2266 28.1085 C 37.1806 28.2377 37.9738 27.1449 38.9323 27.1326 C 39.7379 27.123 40.4804 27.697 41.2193 27.9016 C 41.9954 28.1153 42.7275 28.442 43.5777 28.4486 C 44.9418 28.4607 46.8907 27.4158 47.6378 28.0149 C 48.2234 28.4867 46.9766 29.8884 46.3853 30.5951 C 45.7408 31.3643 44.8489 31.9579 43.9452 32.4661 C 42.9575 33.0221 41.9433 33.5508 40.8151 33.6758 C 38.7823 33.8897 36.6208 34.3036 34.8034 33.5101 C 33.2008 32.8124 31.7829 31.227 31.4105 29.6139 C 31.1187 28.3436 31.7049 26.5297 32.9536 26.1004 C 34.0994 25.7079 34.9473 27.8519 36.2266 28.1085 Z " stroke-width="0.9566512086958655"/>
    <path id="ID0.8556915456429124" fill="#663B00" stroke="none" stroke-linecap="round" d="M 40.6534 3.2282 C 41.3464 3.3139 41.8403 4.0284 42.518 4.211 C 43.8087 4.5581 45.0855 4.8927 46.381 4.7831 C 47.5498 4.6835 48.978 2.7954 49.6954 3.7454 C 51.0589 5.4265 51.456 8.1309 50.6807 10.2193 C 50.2104 11.4861 48.1506 11.4268 46.7997 11.4035 C 43.3926 11.3454 40.0105 10.1806 36.5449 9.9159 C 35.7253 9.8622 35.6411 9.7346 35.2787 10.5477 C 33.8298 13.802 33.8924 17.7712 31.8452 20.6656 C 31.0906 21.6711 29.3134 20.5741 28.0885 20.5558 C 25.9999 20.5249 22.7087 22.3445 21.8145 20.5055 C 20.3111 17.4055 21.8737 13.5121 22.8542 10.2078 C 23.5092 8.0023 24.7069 5.648 26.6728 4.4466 C 28.7534 3.1285 31.4919 3.4951 33.967 3.2889 C 36.1858 3.1043 38.4438 2.9616 40.6534 3.2282 Z " stroke-width="0.999999994758977"/>
    <path id="ID0.4824404357932508" fill="#7C4600" stroke="#7C4600" stroke-width="1.999999989517954" stroke-linecap="round" d="M 48.5852 4.8442 C 48.4893 4.5979 46.1061 6.0225 44.6142 5.9193 C 42.9925 5.8067 41.6501 4.199 40.0103 4.171 C 35.6996 4.0973 30.9461 3.6547 27.0653 5.5893 C 24.9583 6.6798 23.8284 10.5666 24.225 12.1478 C 24.4704 13.1277 27.1636 11.4667 28.4286 10.7434 C 29.8735 9.9771 30.7229 8.2052 32.2329 7.7435 C 34.2161 7.1364 36.39 7.8275 38.4619 7.7392 C 41.2127 7.6218 44.0513 7.8463 46.7084 7.1252 C 47.7348 6.8461 49.4184 5.1332 48.9834 4.8825 Z "/>
    <path id="ID0.5121778678148985" fill="#A57647" stroke="#A57647" stroke-width="0.5658375425062391" stroke-linecap="round" d="M 45.3743 5.7691 C 45.2147 5.9183 44.9423 5.738 44.6798 5.7645 C 44.4626 5.7864 44.2443 5.8621 44.0904 5.9813 C 43.9382 6.0994 43.9822 6.342 43.8095 6.439 C 43.3131 6.71 42.005 6.7371 42.0073 6.9494 C 42.0506 7.2155 43.3266 7.2969 43.9038 7.4299 C 44.1208 7.4796 44.3285 7.5898 44.5517 7.5916 C 45.0002 7.5951 45.4464 7.5304 45.8766 7.4454 C 46.1017 7.401 46.3061 7.3053 46.4997 7.207 C 46.6793 7.1159 46.8457 7.0054 46.989 6.8812 C 47.4866 6.4563 48.1966 6.0299 48.626 5.4601 C 48.7569 5.2383 48.9366 4.6046 48.5789 4.6354 C 47.5097 4.7402 46.522 5.5351 45.478 5.8412 Z "/>
    <path id="ID0.5121778678148985" fill="#A57647" stroke="#A57647" stroke-width="0.5658375425062391" stroke-linecap="round" d="M 37.6743 4.6691 C 37.5185 4.7784 37.2423 4.638 36.9798 4.6645 C 36.7626 4.6864 36.6 4.8438 36.3904 4.8813 C 36.0087 4.9421 35.2869 4.6296 35.1001 4.8319 C 34.938 5.0231 35.316 5.4221 35.5984 5.5633 C 36.0103 5.8062 36.5588 5.8835 37.0047 5.8849 C 37.3419 5.8837 37.6559 5.8147 37.9733 5.6672 C 38.2101 5.56 38.3097 5.2658 38.584 5.2288 C 39.0799 5.1601 39.6892 5.3345 40.2703 5.2665 C 40.4477 5.2751 40.8937 5.2228 40.796 5.056 C 40.5811 4.751 39.9629 4.4525 39.4661 4.4311 C 38.8673 4.3381 38.3608 4.6555 37.778 4.7412 Z "/>
  </g>
  <path id="ID0.04297091066837311" fill="#666666" stroke="none" d="M 19.4949 49.2069 L 23.9445 54.2345 L 20.7547 57.2178 L 16.459 51.6934 L 19.4949 49.2069 Z " stroke-width="0.9253676945318251"/>
  <path id="ID0.04297091066837311" fill="#4F4F4F" stroke="none" d="M 36.1815 56.5287 L 41.1515 53.2161 L 43.1451 56.6748 L 38.7875 60.8173 L 36.1815 56.5287 Z " stroke-width="0.8528203333089243"/>
  <g id="ID0.07606879575178027">
    <path id="ID0.20703006582334638" fill="url(#grad_4-.173354983329773,0.02808029018342495,-0.02808029018342495,1.173354983329773,-200.65,-178.65)" stroke="none" d="M 12.6392 11.5397 C 13.0683 11.5124 13.5671 11.569 13.8808 11.904 C 14.2552 12.3016 14.4865 12.8413 14.4723 13.4327 C 14.4581 14.024 14.206 14.5534 13.8083 14.9313 C 13.4118 15.3104 12.8711 15.537 12.2797 15.5228 C 11.6883 15.5086 11.159 15.2565 10.7811 14.8588 C 10.402 14.4623 10.1577 13.8777 10.1896 13.3302 C 10.2177 12.8425 10.5595 12.4433 10.9209 12.203 C 11.4198 11.8146 12.0454 11.5748 12.6392 11.5397 Z " stroke-width="1.173690938706437"/>
    <g id="ID0.7100869915448129">
      <path id="ID0.8643447342328727" fill="#F3E066" stroke="none" d="M 13.4111 19.0898 L 22.8389 19.3154 L 22.7317 23.7936 L 13.3039 23.568 L 13.4111 19.0898 Z " stroke-width="0.9430529360304887"/>
      <path id="ID0.3959999615326524" fill="#000000" stroke="none" stroke-linecap="round" d="M 13.3434 21.9181 L 13.4289 20.3165 L 17.4039 23.7133 L 15.5183 23.6682 L 13.3434 21.9181 Z " stroke-width="0.9430529360304887"/>
      <path id="ID0.3959999615326524" fill="#000000" stroke="none" stroke-linecap="round" d="M 15.639 19.2787 L 17.732 19.3288 L 22.7147 23.976 L 20.452 23.9218 L 15.639 19.2787 Z " stroke-width="1.1316635947595122"/>
      <path id="ID0.8609093781560659" fill="#F2BD4C" stroke="none" d="M 13.6483 9.041 L 23.0762 9.2666 L 22.8336 19.4015 L 13.4058 19.1759 L 13.6483 9.041 Z " stroke-width="0.9128193890189372"/>
      <path id="ID0.8326035565696657" fill="#EDB94B" stroke="none" stroke-linecap="round" d="M 16.069 6.9836 L 24.5496 7.2808 L 23.2247 9.3244 L 13.7993 9.0989 L 16.069 6.9836 Z " stroke-width="1.0294764887246304"/>
      <path id="ID0.8326035565696657" fill="#C69B3E" stroke="none" stroke-linecap="round" d="M 23.8644 19.8136 L 24.2311 6.8967 L 22.8133 8.9142 L 22.4028 23.6053 L 23.8644 19.8136 Z " stroke-width="1.0294764769320606"/>
    </g>
    <path id="ID0.20703006582334638" fill="url(#grad_5-.173354983329773,0.02808029018342495,-0.02808029018342495,1.173354983329773,-202.65,-177.4)" stroke="none" d="M 10.3822 12.4901 C 10.9281 12.4914 11.5447 12.7245 11.8808 13.154 C 12.3136 13.7115 12.5834 14.5527 12.4576 15.2987 C 12.4033 15.6531 11.7761 15.5677 11.4476 15.8028 C 11.039 16.0983 10.7889 16.738 10.2797 16.7728 C 9.7341 16.8091 9.159 16.5065 8.7811 16.1088 C 8.402 15.7123 8.0653 15.1114 8.1896 14.5802 C 8.336 13.9556 8.9711 13.5634 9.3987 13.1122 C 9.7088 12.8614 10.0065 12.4893 10.3822 12.4901 Z " stroke-width="1.173690938706437"/>
    <path id="ID0.20703006582334638" fill="url(#grad_6-.173354983329773,0.02808029018342495,-0.02808029018342495,1.173354983329773,-204,-175.8)" stroke="none" d="M 9.0322 14.0901 C 9.5777 14.0597 10.1529 14.3564 10.5308 14.754 C 10.9099 15.1505 11.1963 15.742 11.1223 16.2827 C 11.0554 16.7706 10.593 17.1106 10.2722 17.4657 C 9.8529 17.8149 9.4523 18.3149 8.9297 18.3728 C 8.387 18.4338 7.809 18.1065 7.4311 17.7088 C 7.052 17.3123 6.7375 16.7166 6.8396 16.1802 C 6.9469 15.618 7.5828 15.2916 7.9858 14.8868 C 8.3157 14.593 8.5867 14.1134 9.0322 14.0901 Z " stroke-width="1.173690938706437"/>
    <path id="ID0.20703006582334638" fill="url(#grad_7-.3180150985717773,0.03154224157333374,-0.03154224157333374,1.3180150985717773,-231.55,-197.55)" stroke="none" d="M 7.7464 15.7511 C 8.3742 15.7477 8.9361 16.2385 9.3389 16.7124 C 9.7543 17.0969 10.1554 17.6419 10.0942 18.2141 C 10.0313 18.8047 9.536 19.2782 9.0702 19.6732 C 8.6938 20.0809 8.2 20.6019 7.6313 20.5619 C 7.002 20.5165 6.5899 19.8275 6.1769 19.3402 C 5.7987 18.9975 5.2258 18.633 5.2835 18.099 C 5.3467 17.4952 5.9672 17.0827 6.3734 16.6414 C 6.7985 16.2903 7.203 15.754 7.7464 15.7511 Z " stroke-width="1.3183924730772103"/>
    <path id="ID0.20703006582334638" fill="url(#grad_8-.4447875022888184,-0.3170790374279022,0.3170790374279022,1.4447875022888184,-312.35,-151.35)" stroke="none" d="M 5.3135 17.2969 C 5.9968 17.1257 6.74 17.5108 7.3053 17.9198 C 7.8606 18.228 8.443 18.7151 8.5289 19.3549 C 8.6178 20.0154 8.2043 20.6634 7.802 21.2181 C 7.5006 21.7628 7.1013 22.4623 6.4708 22.5704 C 5.7729 22.6887 5.1401 22.0477 4.5601 21.6268 C 4.0565 21.3541 3.335 21.1097 3.2554 20.5123 C 3.1633 19.8374 3.7295 19.2225 4.0545 18.6332 C 4.4242 18.1372 4.722 17.4449 5.3135 17.2969 Z " stroke-width="1.479172080167202"/>
    <path id="ID0.20703006582334638" fill="url(#grad_9-.2366878986358643,-0.8115127682685852,0.8115127682685852,1.2366878986358643,-353.85,-23.5)" stroke="none" d="M 3.0713 20.7611 C 3.6486 20.3575 4.4803 20.4522 5.1543 20.6326 C 5.783 20.7226 6.5008 20.9698 6.8093 21.537 C 7.1279 22.1223 6.9726 22.8752 6.7947 23.5369 C 6.7073 24.1533 6.5838 24.9491 6.0333 25.275 C 5.4235 25.6344 4.6037 25.2613 3.9117 25.0749 C 3.344 24.9998 2.5828 25.0287 2.2953 24.499 C 1.9686 23.9014 2.2783 23.125 2.3717 22.4586 C 2.5402 21.8633 2.5715 21.1103 3.0713 20.7611 Z " stroke-width="1.4791720426290285"/>
    <path id="ID0.20703006582334638" fill="url(#grad_10-.157376766204834,-0.9211021661758423,0.9211021661758423,1.157376766204834,-357.1,12.65)" stroke="none" d="M 2.3723 24.1178 C 2.9103 23.6632 3.7472 23.6815 4.4349 23.7997 C 5.0692 23.8318 5.8065 24.0124 6.1656 24.549 C 6.5363 25.1028 6.4505 25.8667 6.3338 26.5419 C 6.3031 27.1637 6.2528 27.9675 5.7344 28.3423 C 5.1599 28.7559 4.3094 28.4592 3.6033 28.3369 C 3.0312 28.3139 2.2757 28.4123 1.9411 27.9111 C 1.5612 27.3458 1.7986 26.5443 1.8308 25.8721 C 1.9441 25.2639 1.9065 24.5112 2.3723 24.1178 Z " stroke-width="1.47917212638847"/>
    <path id="ID0.20703006582334638" fill="url(#grad_11-.23802368342876434,-1.7687091827392578,1.7687091827392578,0.23802368342876434,-320.6,319.5)" stroke="none" d="M 1.9066 29.1789 C 1.9951 28.3337 2.7389 27.6504 3.4362 27.1788 C 4.0152 26.6769 4.808 26.2182 5.5689 26.3854 C 6.3542 26.5577 6.9177 27.2944 7.3801 27.9797 C 7.8729 28.5466 8.5006 29.2884 8.3624 30.0477 C 8.2079 30.8877 7.2197 31.3399 6.5027 31.8233 C 5.9855 32.2813 5.4101 32.998 4.7001 32.8412 C 3.897 32.6665 3.4342 31.7705 2.9007 31.1584 C 2.4913 30.5343 1.8297 29.9105 1.9066 29.1789 Z " stroke-width="1.7846533128255386"/>
    <path id="ID0.20703006582334638" fill="url(#grad_12-1.1195762157440186,-1.389797329902649,1.389797329902649,-1.1195762157440186,-7.3,467.25)" stroke="none" d="M 3.9686 33.4645 C 3.4163 32.8186 3.4324 31.8088 3.57 30.9783 C 3.6042 30.2128 3.8169 29.3219 4.4618 28.8849 C 5.1272 28.4336 6.0496 28.5317 6.865 28.6677 C 7.6154 28.7003 8.5855 28.7553 9.0414 29.3781 C 9.5446 30.0681 9.1927 31.0964 9.0501 31.9492 C 9.0265 32.6397 9.1506 33.5504 8.5482 33.9577 C 7.8689 34.4201 6.9002 34.1394 6.0891 34.1054 C 5.3545 33.9729 4.4466 34.0237 3.9686 33.4645 Z " stroke-width="1.7846533335816874"/>
    <path id="ID0.20703006582334638" fill="url(#grad_13-1.1195762157440186,-1.389797329902649,1.389797329902649,-1.1195762157440186,-4.9,467.6)" stroke="none" d="M 6.3686 33.8145 C 5.8163 33.1686 5.8324 32.1588 5.97 31.3283 C 6.0042 30.5628 6.2169 29.6719 6.8618 29.2349 C 7.5272 28.7836 8.4496 28.8817 9.265 29.0177 C 10.0154 29.0503 10.9855 29.1053 11.4414 29.7281 C 11.9446 30.4181 11.5927 31.4464 11.4501 32.2992 C 11.4265 32.9897 11.5506 33.9004 10.9482 34.3077 C 10.2689 34.7701 9.3002 34.4894 8.4891 34.4554 C 7.7545 34.3229 6.8466 34.3737 6.3686 33.8145 Z " stroke-width="1.7846533335816874"/>
    <path id="ID0.20703006582334638" fill="url(#grad_14-.3059983253479004,1.4201346635818481,-1.5034576654434204,1.3816542625427246,9.3,-451)" stroke="none" d="M 14.6899 29.6588 C 15.3326 30.3155 15.3565 31.4334 15.2373 32.3657 C 15.2309 33.2153 15.0306 34.2222 14.3295 34.7721 C 13.6062 35.3399 12.5736 35.3272 11.6587 35.2614 C 10.8205 35.3032 9.7364 35.343 9.2023 34.7019 C 8.6126 33.9913 8.9624 32.8182 9.0861 31.8607 C 9.0839 31.0951 8.9078 30.1013 9.5626 29.5886 C 10.3011 29.007 11.3929 29.2168 12.2988 29.1704 C 13.1235 29.2405 14.1338 29.0903 14.6899 29.6588 Z " stroke-width="1.98642480745169"/>
    <g id="ID0.10950249573215842">
      <path id="ID0.6494581247679889" fill="none" stroke="url(#grad_15)" stroke-width="5.314827162115559" d="M 16.6578 45.9953 L 22.6087 46.1377 L 22.5108 50.229 L 16.5599 50.0865 L 16.6578 45.9953 Z "/>
      <path id="ID0.11857579834759235" fill="#4F4F4F" stroke="none" d="M 16.507 37.1239 L 23.2538 37.2853 L 22.9309 50.7789 L 16.1841 50.6175 L 16.507 37.1239 Z " stroke-width="1.173690938706437"/>
      <path id="ID0.4165389509871602" fill="none" stroke="url(#grad_16)" stroke-width="2.347381877412874" stroke-linecap="round" d="M 15.2696 38.7325 L 15.0099 49.586 L 23.9846 49.8595 L 24.3044 38.9487 "/>
      <path id="ID0.8643447342328727" fill="#F3E066" stroke="none" d="M 13.9809 33.712 L 25.7145 33.9928 L 25.5811 39.5663 L 13.8475 39.2855 L 13.9809 33.712 Z " stroke-width="1.173690938706437"/>
      <path id="ID0.3959999615326524" fill="#000000" stroke="none" stroke-linecap="round" d="M 13.8967 37.2321 L 14.0031 35.2388 L 18.9502 39.4663 L 16.6035 39.4101 L 13.8967 37.2321 Z " stroke-width="1.173690938706437"/>
      <path id="ID0.3959999615326524" fill="#000000" stroke="none" stroke-linecap="round" d="M 16.7341 33.7735 L 19.339 33.8358 L 25.5403 39.6195 L 22.7242 39.5521 L 16.7341 33.7735 Z " stroke-width="1.408429126483375"/>
      <path id="ID0.6601373604498804" fill="url(#grad_17-.0706188678741455,0.025621647015213966,-0.025621647015213966,1.0706188678741455,-188.05,-156.3)" stroke="url(#grad_18)" stroke-width="2.141850815574128" stroke-linecap="round" d="M 24.5931 33.7907 L 15.0685 33.402 L 15.2504 25.8006 L 19.9578 21.5748 L 24.7827 25.8681 L 24.5931 33.7907 Z "/>
      <path id="ID0.811193433124572" fill="url(#grad_19-.7271495461463928,0.017401868477463722,-0.017401868477463722,0.7271495461463928,-109.95,-96.55)" stroke="none" d="M 19.8533 25.5862 C 20.2096 25.5947 20.5283 25.7471 20.7568 25.9862 C 20.9846 26.2259 21.1216 26.5515 21.1131 26.9078 C 21.1046 27.2641 20.9522 27.5827 20.7132 27.8113 C 20.4734 28.0391 20.1478 28.1761 19.7915 28.1676 C 19.4352 28.1591 19.1166 28.0066 18.888 27.7676 C 18.6602 27.5279 18.5232 27.2023 18.5317 26.846 C 18.5403 26.4897 18.6927 26.171 18.9317 25.9425 C 19.1714 25.7147 19.497 25.5777 19.8533 25.5862 Z " stroke-width="0.7273577438148383"/>
      <path id="ID0.811193433124572" fill="url(#grad_20-.7271495461463928,0.017401868477463722,-0.017401868477463722,0.7271495461463928,-112.75,-93.5)" stroke="none" d="M 17.0533 28.6362 C 17.4096 28.6447 17.7283 28.7971 17.9568 29.0362 C 18.1846 29.2759 18.3216 29.6015 18.3131 29.9578 C 18.3046 30.3141 18.1522 30.6327 17.9132 30.8613 C 17.6734 31.0891 17.3478 31.2261 16.9915 31.2176 C 16.6352 31.2091 16.3166 31.0566 16.088 30.8176 C 15.8602 30.5779 15.7232 30.2523 15.7317 29.896 C 15.7403 29.5397 15.8927 29.221 16.1317 28.9925 C 16.3714 28.7647 16.697 28.6277 17.0533 28.6362 Z " stroke-width="0.7273577438148383"/>
      <path id="ID0.811193433124572" fill="url(#grad_21-.7271495461463928,0.017401868477463722,-0.017401868477463722,0.7271495461463928,-107.15,-93.2)" stroke="none" d="M 22.6533 28.9362 C 23.0096 28.9447 23.3283 29.0971 23.5568 29.3362 C 23.7846 29.5759 23.9216 29.9015 23.9131 30.2578 C 23.9046 30.6141 23.7522 30.9327 23.5132 31.1613 C 23.2734 31.3891 22.9478 31.5261 22.5915 31.5176 C 22.2352 31.5091 21.9166 31.3566 21.688 31.1176 C 21.4602 30.8779 21.3232 30.5523 21.3317 30.196 C 21.3403 29.8397 21.4927 29.521 21.7317 29.2925 C 21.9714 29.0647 22.297 28.9277 22.6533 28.9362 Z " stroke-width="0.7273577438148383"/>
    </g>
  </g>
  <path id="ID0.379759285133332" fill="#876A52" stroke="none" d="M 42.15 30.15 L 46.9 30.15 L 46.9 31.75 L 42.15 31.75 L 42.15 30.15 Z " stroke-width="1"/>
</svg>