<svg xmlns="http://www.w3.org/2000/svg" xmlns:xlink="http://www.w3.org/1999/xlink" version="1.1" width="62.77740474704267" height="56.74554439548017" viewBox="-0.4307057666945511 -0.20011351587057646 62.77740474704267 56.74554439548017">
  <defs>
    <linearGradient id="grad_1" x2="1">
      <stop offset="0" stop-color="#F0C590" stop-opacity="1"/>
      <stop offset="1" stop-color="#F0C590" stop-opacity="1"/>
    </linearGradient>
    <radialGradient id="grad_2" cx="0.6575" cy="0.5616" r="0.8547499999999999">
      <stop offset="0" stop-color="#E1B174" stop-opacity="1"/>
      <stop offset="1" stop-color="#AE632A" stop-opacity="1"/>
    </radialGradient>
    <radialGradient id="grad_3" cx="0.6575" cy="0.5616" r="0.8547499999999999">
      <stop offset="0" stop-color="#E1B174" stop-opacity="1"/>
      <stop offset="1" stop-color="#AE632A" stop-opacity="1"/>
    </radialGradient>
    <radialGradient id="grad_4" cx="0.6575" cy="0.5616" r="0.8547499999999999">
      <stop offset="0" stop-color="#E1B174" stop-opacity="1"/>
      <stop offset="1" stop-color="#AE632A" stop-opacity="1"/>
    </radialGradient>
    <radialGradient id="grad_5" cx="0.6575" cy="0.5616" r="0.8547499999999999">
      <stop offset="0" stop-color="#E1B174" stop-opacity="1"/>
      <stop offset="1" stop-color="#AE632A" stop-opacity="1"/>
    </radialGradient>
    <radialGradient id="grad_6" cx="0.6575" cy="0.5616" r="0.8547499999999999">
      <stop offset="0" stop-color="#E1B174" stop-opacity="1"/>
      <stop offset="1" stop-color="#AE632A" stop-opacity="1"/>
    </radialGradient>
    <radialGradient id="grad_7" cx="0.6575" cy="0.5616" r="0.8547499999999999">
      <stop offset="0" stop-color="#E1B174" stop-opacity="1"/>
      <stop offset="1" stop-color="#AE632A" stop-opacity="1"/>
    </radialGradient>
    <radialGradient id="grad_8" cx="0.6575" cy="0.5616" r="0.8547499999999999">
      <stop offset="0" stop-color="#E1B174" stop-opacity="1"/>
      <stop offset="1" stop-color="#AE632A" stop-opacity="1"/>
    </radialGradient>
    <radialGradient id="grad_9" cx="0.6575" cy="0.5616" r="0.8547499999999999">
      <stop offset="0" stop-color="#E1B174" stop-opacity="1"/>
      <stop offset="1" stop-color="#AE632A" stop-opacity="1"/>
    </radialGradient>
    <radialGradient id="grad_10" cx="0.6575" cy="0.5616" r="0.8547499999999999">
      <stop offset="0" stop-color="#E1B174" stop-opacity="1"/>
      <stop offset="1" stop-color="#AE632A" stop-opacity="1"/>
    </radialGradient>
    <radialGradient id="grad_11" cx="0.6575" cy="0.5616" r="0.8547499999999999">
      <stop offset="0" stop-color="#E1B174" stop-opacity="1"/>
      <stop offset="1" stop-color="#AE632A" stop-opacity="1"/>
    </radialGradient>
    <radialGradient id="grad_12" cx="0.6575" cy="0.5616" r="0.8547499999999999">
      <stop offset="0" stop-color="#E1B174" stop-opacity="1"/>
      <stop offset="1" stop-color="#AE632A" stop-opacity="1"/>
    </radialGradient>
    <linearGradient id="grad_13" x2="1">
      <stop offset="0" stop-color="#4F4F4F" stop-opacity="1"/>
      <stop offset="1" stop-color="#4F4F4F" stop-opacity="1"/>
    </linearGradient>
    <linearGradient id="grad_14" y2="1" x2="0">
      <stop offset="0" stop-color="#4F4F4F" stop-opacity="1"/>
      <stop offset="1" stop-color="#737373" stop-opacity="1"/>
    </linearGradient>
    <radialGradient id="grad_15" cx="0.5366" cy="0.2556" r="0.96772">
      <stop offset="0" stop-color="#737373" stop-opacity="1"/>
      <stop offset="1" stop-color="#4F4F4F" stop-opacity="1"/>
    </radialGradient>
    <radialGradient id="grad_16" cx="0.6192" cy="0.2218" r="1.01166">
      <stop offset="0" stop-color="#737373" stop-opacity="1"/>
      <stop offset="1" stop-color="#4F4F4F" stop-opacity="1"/>
    </radialGradient>
    <radialGradient id="grad_17" cx="0.4929" cy="0.5492" r="0.71396">
      <stop offset="0" stop-color="#646464" stop-opacity="1"/>
      <stop offset="1" stop-color="#434343" stop-opacity="1"/>
    </radialGradient>
    <radialGradient id="grad_18" cx="0.4929" cy="0.5492" r="0.71396">
      <stop offset="0" stop-color="#646464" stop-opacity="1"/>
      <stop offset="1" stop-color="#434343" stop-opacity="1"/>
    </radialGradient>
    <radialGradient id="grad_19" cx="0.4929" cy="0.5492" r="0.71396">
      <stop offset="0" stop-color="#646464" stop-opacity="1"/>
      <stop offset="1" stop-color="#434343" stop-opacity="1"/>
    </radialGradient>
  <radialGradient id="grad_2-.0365686416625977,1.055213451385498,-1.055213451385498,1.0365686416625977,9.75,-355.9" cx="34.1954" cy="5.5463" r="4.6184" gradientUnits="userSpaceOnUse">
      <stop offset="0" stop-color="#E1B174" stop-opacity="1"/>
      <stop offset="1" stop-color="#AE632A" stop-opacity="1"/>
    </radialGradient><radialGradient id="grad_3-.094205342233181,1.169904112815857,-1.169904112815857,0.094205342233181,217.15,-218.5" cx="47.9984" cy="14.0157" r="3.5436" gradientUnits="userSpaceOnUse">
      <stop offset="0" stop-color="#E1B174" stop-opacity="1"/>
      <stop offset="1" stop-color="#AE632A" stop-opacity="1"/>
    </radialGradient><radialGradient id="grad_4-.094205342233181,1.169904112815857,-1.169904112815857,0.094205342233181,215.7,-220.35" cx="46.6695" cy="12.1639" r="3.6829" gradientUnits="userSpaceOnUse">
      <stop offset="0" stop-color="#E1B174" stop-opacity="1"/>
      <stop offset="1" stop-color="#AE632A" stop-opacity="1"/>
    </radialGradient><radialGradient id="grad_5-.094205342233181,1.169904112815857,-1.169904112815857,0.094205342233181,213.95,-221.55" cx="44.9176" cy="10.9565" r="3.6779" gradientUnits="userSpaceOnUse">
      <stop offset="0" stop-color="#E1B174" stop-opacity="1"/>
      <stop offset="1" stop-color="#AE632A" stop-opacity="1"/>
    </radialGradient><radialGradient id="grad_6-.1058196946978569,1.3141387701034546,-1.3141387701034546,0.1058196946978569,232.7,-251.2" cx="42.8325" cy="9.9728" r="4.1164" gradientUnits="userSpaceOnUse">
      <stop offset="0" stop-color="#E1B174" stop-opacity="1"/>
      <stop offset="1" stop-color="#AE632A" stop-opacity="1"/>
    </radialGradient><radialGradient id="grad_7-.4657428562641144,1.4039350748062134,-1.4039350748062134,0.4657428562641144,178.35,-326.75" cx="41.0746" cy="8.5058" r="4.6184" gradientUnits="userSpaceOnUse">
      <stop offset="0" stop-color="#E1B174" stop-opacity="1"/>
      <stop offset="1" stop-color="#AE632A" stop-opacity="1"/>
    </radialGradient><radialGradient id="grad_8-.9358299970626831,1.1455007791519165,-1.1455007791519165,0.9358299970626831,46.9,-354.7" cx="38.2216" cy="7.468" r="4.6184" gradientUnits="userSpaceOnUse">
      <stop offset="0" stop-color="#E1B174" stop-opacity="1"/>
      <stop offset="1" stop-color="#AE632A" stop-opacity="1"/>
    </radialGradient><radialGradient id="grad_9-.7838771343231201,0.052627936005592346,-0.052627936005592346,1.7838771343231201,-290.75,-285.95" cx="32.4832" cy="8.2729" r="5.5723" gradientUnits="userSpaceOnUse">
      <stop offset="0" stop-color="#E1B174" stop-opacity="1"/>
      <stop offset="1" stop-color="#AE632A" stop-opacity="1"/>
    </radialGradient><radialGradient id="grad_10-.2657126188278198,-1.2581570148468018,1.2581570148468018,1.2657126188278198,-405.05,41" cx="30.8606" cy="8.9252" r="5.5723" gradientUnits="userSpaceOnUse">
      <stop offset="0" stop-color="#E1B174" stop-opacity="1"/>
      <stop offset="1" stop-color="#AE632A" stop-opacity="1"/>
    </radialGradient><radialGradient id="grad_11-.2657126188278198,-1.2581570148468018,1.2581570148468018,1.2657126188278198,-405.15,43.4" cx="30.7606" cy="11.3252" r="5.5723" gradientUnits="userSpaceOnUse">
      <stop offset="0" stop-color="#E1B174" stop-opacity="1"/>
      <stop offset="1" stop-color="#AE632A" stop-opacity="1"/>
    </radialGradient><radialGradient id="grad_12-1.2764806747436523,1.4467241764068604,-1.5306421518325806,-1.3514761924743652,509.85,-38.05" cx="28.4899" cy="15.4046" r="6.2022" gradientUnits="userSpaceOnUse">
      <stop offset="0" stop-color="#E1B174" stop-opacity="1"/>
      <stop offset="1" stop-color="#AE632A" stop-opacity="1"/>
    </radialGradient><radialGradient id="grad_15-.08595695346593857,1.0674701929092407,-1.0674701929092407,0.08595695346593857,196.25,-203.65" cx="37.9504" cy="22.4988" r="10.5408" gradientUnits="userSpaceOnUse">
      <stop offset="0" stop-color="#737373" stop-opacity="1"/>
      <stop offset="1" stop-color="#4F4F4F" stop-opacity="1"/>
    </radialGradient><radialGradient id="grad_17-.05838077515363693,0.7250109910964966,-0.7250109910964966,0.05838077515363693,144.95,-119.75" cx="35.5733" cy="22.1568" r="1.8435" gradientUnits="userSpaceOnUse">
      <stop offset="0" stop-color="#646464" stop-opacity="1"/>
      <stop offset="1" stop-color="#434343" stop-opacity="1"/>
    </radialGradient><radialGradient id="grad_18-.05838077515363693,0.7250109910964966,-0.7250109910964966,0.05838077515363693,141.6,-122.2" cx="32.2233" cy="19.7068" r="1.8435" gradientUnits="userSpaceOnUse">
      <stop offset="0" stop-color="#646464" stop-opacity="1"/>
      <stop offset="1" stop-color="#434343" stop-opacity="1"/>
    </radialGradient><radialGradient id="grad_19-.05838077515363693,0.7250109910964966,-0.7250109910964966,0.05838077515363693,141.9,-116.6" cx="32.5233" cy="25.3068" r="1.8435" gradientUnits="userSpaceOnUse">
      <stop offset="0" stop-color="#646464" stop-opacity="1"/>
      <stop offset="1" stop-color="#434343" stop-opacity="1"/>
    </radialGradient></defs>
  <!-- Exported by Scratch - http://scratch.mit.edu/ -->
  <path id="ID0.10165197495371103" fill="#4F4F4F" stroke="#4F4F4F" stroke-width="1.4795917355812551" stroke-linecap="round" d="M 9.9455 17.9293 C 9.5467 18.1715 9.2142 18.5091 8.81 18.8198 C 7.9698 19.464 7.1167 20.0984 6.2574 20.7181 C 5.4836 21.2881 4.6661 21.8029 3.8539 22.3212 C 3.4524 22.628 2.818 22.732 2.6149 23.1965 C 2.3585 23.7864 2.4074 24.5576 2.7254 25.1426 C 2.9515 25.5719 3.5118 25.8679 4.0467 25.8656 C 4.686 25.8612 5.176 25.294 5.7812 25.0367 C 6.1796 24.8658 6.6046 24.7516 6.989 24.5533 C 7.829 24.1195 8.5541 23.3737 9.4587 23.0393 C 9.9329 22.8637 10.4909 23.3661 10.9451 23.1785 C 11.8059 22.7181 12.6596 22.0473 13.1355 21.2269 C 13.386 20.7926 13.0979 20.202 12.9048 19.739 C 12.7157 19.284 12.3259 18.9396 12.0218 18.5517 C 11.7173 18.1633 11.5455 17.5691 11.0795 17.4086 C 10.7104 17.283 10.3078 17.6986 9.9455 17.9293 Z "/>
  <path id="ID0.10165197495371103" fill="#666666" stroke="#666666" stroke-width="1.4795918351173003" stroke-linecap="round" d="M 2.6704 42.3007 C 2.8713 42.7219 3.1737 43.0867 3.4422 43.52 C 3.9986 44.4208 4.5439 45.3334 5.074 46.2507 C 5.5631 47.078 5.9931 47.9431 6.427 48.8033 C 6.6919 49.2337 6.7314 49.8753 7.1732 50.1242 C 7.7343 50.4387 8.5065 50.4676 9.1205 50.2101 C 9.5704 50.0283 9.9212 49.5007 9.9728 48.9683 C 10.0328 48.3317 9.5178 47.7871 9.3226 47.1591 C 9.1927 46.7456 9.1219 46.3113 8.9633 45.9088 C 8.6162 45.0294 7.9472 44.233 7.7055 43.2993 C 7.5785 42.8098 8.1345 42.3052 7.9936 41.8344 C 7.6222 40.9317 7.0407 40.0148 6.2724 39.4588 C 5.8655 39.1659 5.2489 39.393 4.7688 39.5386 C 4.297 39.6808 3.9152 40.034 3.4987 40.2975 C 3.0815 40.5615 2.4731 40.6725 2.2665 41.12 C 2.1044 41.4746 2.4774 41.917 2.6704 42.3007 Z "/>
  <path id="ID0.8862749082036316" fill="#2F5E8D" stroke="#23476A" stroke-width="1.9999999603043752" stroke-linecap="round" d="M 12.048 20.8123 C 10.8091 20.0075 9.4394 22.5871 8.9355 23.9754 C 8.6107 24.8738 9.4413 25.7875 9.792 26.6383 C 10.7382 28.7259 11.2611 31.1557 12.823 32.7815 C 13.6207 33.6124 15.1434 33.5678 16.2475 33.2451 C 17.05 33.0113 17.4535 32.0599 17.748 31.2961 C 17.9472 30.7756 18.0676 30.4873 17.6423 29.7473 C 15.9758 26.6402 14.9627 22.7057 12.048 20.8123 Z "/>
  <path id="ID0.8862749082036316" fill="#3C71B4" stroke="#2F588C" stroke-width="2.000000005172681" stroke-linecap="round" d="M 5.092 40.7575 C 5.2071 42.0305 9.1573 41.5249 11.0703 40.9082 C 13.9459 39.9843 15.8954 36.7264 18.9461 36.3027 C 20.1738 36.1318 19.3672 39.2513 20.6017 39.6376 C 23.1764 40.4401 27.6288 41.434 28.69 39.1778 C 30.0444 36.2997 27.8986 31.8375 25.4524 29.4939 C 24.0557 28.1151 21.6254 30.1577 19.7102 30.4787 C 18.2633 30.7212 16.6624 30.4238 15.3414 31.059 C 13.4568 31.9984 11.9724 33.5776 10.427 35.04 C 8.5353 36.8294 4.939 39.0622 5.092 40.7575 Z "/>
  <path id="ID0.2493568635545671" fill="#FFFFFF" stroke="none" stroke-linecap="round" d="M 18.9879 36.8467 L 27.2347 35.2295 L 27.6865 41.4634 L 23.6753 41.4854 L 18.9698 40.3595 L 18.9879 36.8467 Z " stroke-width="0.9999999747725888"/>
  <path id="ID0.191649260930717" fill="#FFD499" stroke="none" stroke-linecap="round" d="M 52.9286 37.817 C 54.1168 41.4851 57.3081 46.1052 55.0173 49.2067 C 52.6079 52.4703 46.8077 49.9944 42.8922 51.2527 C 41.9489 51.5667 42.5115 53.174 41.7114 53.5128 C 40.4847 54.0332 38.8934 53.9977 37.7111 53.4967 C 37.1831 53.2712 37.8592 52.0994 37.3967 51.7993 C 35.6399 50.6612 32.9262 51.0552 31.5841 49.4056 C 29.0648 46.3098 26.8452 42.4755 26.6334 38.4902 C 26.4822 35.6414 29.3866 33.4456 30.7191 30.9052 C 31.1856 30.0142 31.2269 28.8679 32.0975 28.3435 C 35.5084 26.0774 39.0236 22.3245 43.0762 22.8501 C 46.2578 23.2621 47.2758 27.7246 49.0655 30.3996 C 50.5713 32.7299 52.0639 35.1463 52.9286 37.817 Z " stroke-width="0.9999999966728147"/>
  <path id="ID0.8556915456429124" fill="#F0C690" stroke="none" stroke-linecap="round" d="M 58.2466 40.5652 C 58.2335 41.2633 57.5743 41.829 57.4632 42.5219 C 57.2524 43.8418 57.2364 45.1419 57.2963 46.4235 C 57.3394 47.3851 58.4267 48.591 57.77 49.2196 C 56.3723 50.5545 54.2151 51.7238 52.3372 51.2657 C 50.9843 50.9362 51.1713 48.8045 50.7554 47.529 C 47.9741 38.7773 50.3376 39.7773 50.8231 37.8281 C 51.0763 37.2559 51.0081 36.1705 50.4074 35.9816 C 48.6256 35.4207 45.4226 34.3698 44.9064 35.8782 C 44.1432 38.1068 47.7242 40.6795 47.8699 43.3534 C 47.9635 45.0776 47.2527 47.3447 45.7094 48.0219 C 43.4085 48.9854 40.1615 48.995 38.3042 47.4347 C 36.5798 45.9852 36.6499 43.0465 36.9978 40.7955 C 37.3112 38.8418 41.6482 36.5789 40.1544 35.6685 C 37.2232 33.8833 32.0915 36.426 28.1527 35.5204 C 27.1678 35.2947 28.9986 33.9651 29.3827 33.1598 C 30.2425 31.3585 30.7444 29.3372 31.9368 27.738 C 32.7318 26.6732 34.1029 26.0845 35.3172 25.4092 C 36.4973 24.7102 37.6767 23.8081 39.1022 23.627 C 42.5216 23.193 46.1449 22.6192 49.4523 23.5892 C 51.6869 24.2453 53.311 26.2556 54.7402 28.0445 C 56.049 29.7745 56.9069 31.8843 57.4902 33.9214 C 58.1044 36.0612 58.2817 38.3398 58.2466 40.5652 Z " stroke-width="0.9999999966728147"/>
  <path id="ID0.8961478788405657" fill="#000000" stroke="none" stroke-linecap="round" d="M 42.316 47.0775 C 42.015 47.0904 41.6756 46.4899 41.4838 45.8569 C 41.2403 45.0535 41.1285 44.038 41.0732 43.089 C 41.0279 41.9779 41.0035 40.7676 41.1883 39.8073 C 41.3171 39.1388 41.645 38.6813 41.9597 38.6275 C 42.2423 38.6559 42.5512 39.1659 42.7303 39.7416 C 43.0004 40.6093 43.1402 41.5722 43.1979 42.7527 C 43.2555 43.9332 43.1854 45.0077 43.0258 45.7912 C 42.8661 46.5735 42.6169 47.0647 42.316 47.0775 Z " stroke-width="0.8347567553106228"/>
  <path id="ID0.06146117439493537" fill="#F0C690" stroke="#FFDBA0" stroke-width="1.7719572476275316" stroke-linecap="round" d="M 40.5506 28.9757 C 40.3779 30.1765 40.0248 31.4349 39.2645 32.3384 C 38.5735 33.0815 37.4778 33.5221 36.5117 33.5591 C 35.3643 33.604 33.8452 33.5207 33.2093 32.5644 C 32.4855 31.4753 32.7025 29.7841 33.2523 28.5531 C 33.8045 27.3531 35.0742 26.5718 36.2402 25.8786 C 37.0002 25.4273 37.9295 25.2248 38.8338 25.3166 C 39.3443 25.3687 39.788 25.851 40.0081 26.3155 C 40.4163 27.1775 40.6792 28.0809 40.5506 28.9757 Z "/>
  <path id="ID0.9459127215668559" fill="#FFD499" stroke="none" stroke-linecap="round" d="M 37.107 29.451 C 36.7149 30.2583 36.3441 31.1105 35.9783 31.9607 C 35.9105 32.2172 36.1102 32.7726 35.8101 32.7621 C 35.1459 32.7377 34.444 32.3997 34.0176 31.8833 C 33.6194 31.4006 33.6087 30.7177 33.6627 30.1302 C 33.6719 29.5721 33.8922 29.0162 34.1995 28.5756 C 34.5928 28.0203 35.0048 27.4267 35.6371 27.1134 C 36.632 26.6209 38.5267 25.7478 38.8807 26.3358 C 39.2631 26.9706 37.6269 28.3775 37.107 29.451 Z " stroke-width="0.9999999966728147"/>
  <path id="ID0.6276269098743796" fill="#F0C690" stroke="none" d="M 40.4072 32.1136 L 40.1051 34.3601 L 31.9175 34.2557 L 31.8558 32.0045 L 40.4072 32.1136 Z " stroke-width="1.3604594395245295"/>
  <path id="ID0.7435970422811806" fill="none" stroke="#663B00" stroke-width="1.999999969901644" stroke-linecap="round" d="M 48.0951 40.4644 L 47.2237 48.2815 "/>
  <path id="ID0.41598089784383774" fill="none" stroke="url(#grad_1)" stroke-width="1.9999999933456294" stroke-linecap="round" d="M 51.9347 50.3259 L 43.185 50.4002 L 42.0088 53.2102 L 37.5073 53.0484 L 36.8382 50.804 L 33.7811 49.9799 L 29.3973 46.017 L 27.4799 38.083 L 29.4963 34.1157 "/>
  <path id="ID0.46292465971782804" fill="#876A53" stroke="none" stroke-linecap="round" d="M 33.9159 37.6735 C 33.5638 39.9919 34.1151 42.3768 34.3068 44.6356 C 34.4962 46.8685 35.912 49.4427 35.138 51.3131 C 34.7455 52.259 32.8678 50.7965 31.9198 50.1608 C 30.7725 49.3852 29.7547 48.34 28.9076 47.2092 C 28.2019 46.1872 27.6002 45.0273 27.3297 43.796 C 26.8475 41.5914 26.0448 39.1839 26.7747 37.06 C 27.416 35.1873 29.125 33.3225 31.0534 32.8107 C 32.7302 32.3662 35.0824 33.163 35.9367 34.623 C 36.5475 35.6682 34.1327 36.4987 33.9159 37.6735 Z " stroke-width="1.1148966467812054"/>
  <path id="ID0.46292465971782804" fill="#9C7A60" stroke="none" stroke-linecap="round" d="M 33.8351 38.0929 C 33.8059 39.0552 34.9753 39.7303 35.0873 40.6824 C 35.1806 41.4827 34.6871 42.2809 34.5605 43.037 C 34.4287 43.8311 34.18 44.5933 34.2619 45.4396 C 34.3919 46.7975 35.634 48.6271 35.116 49.4325 C 34.7076 50.064 33.1838 48.9699 32.4194 48.4553 C 31.5872 47.8944 30.904 47.0691 30.3045 46.2232 C 29.6488 45.2987 29.0174 44.345 28.7756 43.2361 C 28.3513 41.2366 27.7146 39.1299 28.3146 37.2398 C 28.8418 35.5732 30.271 33.998 31.8365 33.4597 C 33.0695 33.0373 34.9346 33.4314 35.4915 34.6288 C 36.0012 35.7275 33.9571 36.7939 33.8351 38.0929 Z " stroke-width="0.9566511917605717"/>
  <path id="ID0.8556915456429124" fill="#663B00" stroke="none" stroke-linecap="round" d="M 59.0466 39.9152 C 59.0335 40.6133 58.3743 41.179 58.2632 41.8719 C 58.0524 43.1918 57.8524 44.4965 58.0963 45.7735 C 58.3171 46.9256 60.3435 48.1495 59.4734 48.9619 C 57.9433 50.4929 55.295 51.1694 53.1372 50.6157 C 51.8283 50.2798 51.6729 48.2251 51.5554 46.879 C 51.2586 43.4844 52.0651 39.9994 51.9676 36.5251 C 51.9356 35.7044 52.0538 35.6074 51.2074 35.3316 C 47.82 34.2293 43.8789 34.7047 40.787 32.9699 C 39.7085 32.324 40.6146 30.4423 40.5052 29.2221 C 40.3186 27.1417 38.1663 24.0578 39.9022 22.977 C 42.8289 21.1591 46.8638 22.3079 50.2523 22.9392 C 52.5139 23.361 54.98 24.3071 56.3796 26.1373 C 57.9071 28.0694 57.8275 30.8312 58.2902 33.2714 C 58.7048 35.4589 59.0817 37.6898 59.0466 39.9152 Z " stroke-width="0.9999999966728147"/>
  <path id="ID0.4824404357932508" fill="#7C4600" stroke="#7C4600" stroke-width="1.9999999933456294" stroke-linecap="round" d="M 58.2649 47.9721 C 58.4999 47.8511 56.835 45.6292 56.7823 44.1346 C 56.7255 42.51 58.1848 41.0076 58.042 39.3737 C 57.6665 35.0787 57.612 30.305 55.2839 26.6467 C 53.98 24.6646 49.9968 23.9454 48.4655 24.5044 C 47.5164 24.8505 49.4487 27.3562 50.2998 28.539 C 51.2123 29.8963 53.063 30.5566 53.6793 32.0105 C 54.4896 33.9197 54.0285 36.1536 54.3319 38.2051 C 54.7351 40.9288 54.8072 43.7753 55.801 46.343 C 56.1855 47.3347 58.0642 48.8309 58.2683 48.3721 Z "/>
  <path id="ID0.5121778678148985" fill="#A57647" stroke="#A57647" stroke-width="0.5658375187471002" stroke-linecap="round" d="M 56.9801 44.9318 C 56.8151 44.7885 56.966 44.4989 56.9124 44.2406 C 56.868 44.0268 56.77 43.8176 56.6354 43.6769 C 56.5021 43.5378 56.2654 43.6068 56.1509 43.4452 C 55.8298 42.9797 55.6666 41.6815 55.4557 41.7059 C 55.1956 41.7767 55.2475 43.0542 55.1753 43.6422 C 55.1484 43.8631 55.0605 44.0812 55.0819 44.3033 C 55.125 44.7497 55.2359 45.1868 55.3651 45.6058 C 55.4328 45.825 55.5492 46.0184 55.6671 46.2007 C 55.7764 46.3699 55.9037 46.5238 56.0421 46.6535 C 56.5165 47.1041 57.0145 47.7659 57.6258 48.1336 C 57.8601 48.2408 58.509 48.3535 58.4412 48.0009 C 58.2257 46.9484 57.3323 46.0489 56.9192 45.0424 Z "/>
  <path id="ID0.5121778678148985" fill="#A57647" stroke="#A57647" stroke-width="0.5658375187471002" stroke-linecap="round" d="M 57.2801 37.1318 C 57.1551 36.9882 57.266 36.6989 57.2124 36.4406 C 57.168 36.2268 56.9945 36.0815 56.9354 35.8769 C 56.8352 35.5036 57.0709 34.7532 56.8502 34.5884 C 56.6432 34.4471 56.2857 34.8646 56.1747 35.1602 C 55.9759 35.5952 55.9561 36.1488 56.0012 36.5924 C 56.0375 36.9276 56.1388 37.2327 56.3185 37.533 C 56.4498 37.7573 56.7528 37.8258 56.8181 38.0948 C 56.9381 38.5808 56.828 39.205 56.9561 39.7759 C 56.966 39.9531 57.0645 40.3913 57.2202 40.2767 C 57.5011 40.0313 57.7337 39.3853 57.7033 38.8891 C 57.7335 38.2838 57.365 37.8131 57.2192 37.2424 Z "/>
  <path id="ID0.04297091066837311" fill="#666666" stroke="none" d="M 6.1338 37.6227 L 9.7179 42.1474 L 6.3099 44.8712 L 2.935 39.8953 L 6.1338 37.6227 Z " stroke-width="0.8528202992153379"/>
  <path id="ID0.04297091066837311" fill="#4F4F4F" stroke="none" d="M 13.6373 21.374 L 11.0931 23.3976 L 8.5529 26.1755 L 6.5919 22.6982 L 10.9883 18.5969 L 13.6373 21.374 Z " stroke-width="0.8528203579763916"/>
  <path id="ID0.20703006582334638" fill="url(#grad_2-.0365686416625977,1.055213451385498,-1.055213451385498,1.0365686416625977,9.75,-355.9)" stroke="none" d="M 35.7615 2.8133 C 36.2697 3.3011 36.3386 4.1354 36.2926 4.8316 C 36.3267 5.4657 36.2238 6.2179 35.7275 6.6308 C 35.2153 7.0572 34.4466 7.0514 33.7629 7.0056 C 33.1413 7.0398 32.3367 7.0734 31.91 6.5968 C 31.4387 6.0686 31.6453 5.1918 31.6935 4.4768 C 31.6568 3.9054 31.4803 3.1643 31.944 2.7793 C 32.4667 2.3426 33.2885 2.4953 33.9604 2.4573 C 34.577 2.5068 35.3218 2.391 35.7615 2.8133 Z " stroke-width="1.4791720578969634"/>
  <path id="ID0.7804789403453469" fill="#876A52" stroke="none" d="M 32.0129 44.2553 L 32.5073 48.9795 L 30.8165 49.1565 L 30.3221 44.4323 L 32.0129 44.2553 Z " stroke-width="0.9999999818439419"/>
  <path id="ID0.8947033081203699" fill="#876A52" stroke="none" d="M 31.6282 46.3306 L 31.6282 46.3306 L 31.1806 46.3774 L 31.1806 46.3774 L 31.6282 46.3306 Z " stroke-width="0.9999999818439419"/>
  <path id="ID0.3092493093572557" fill="#FFD499" stroke="#F0C690" stroke-width="1.1486011112486423" stroke-linecap="round" d="M 27.2282 31.8627 C 27.1753 31.3767 25.6443 31.3928 24.8443 31.5873 C 22.6206 32.1256 20.4252 32.964 18.6412 34.3366 C 16.6392 35.8408 15.1475 37.9615 13.7581 40.0131 C 12.6181 41.6897 11.6823 43.5198 10.9861 45.4333 C 10.712 46.1863 10.3319 47.1502 10.8004 47.8317 C 11.5325 49.0127 12.7569 50.447 14.1698 50.373 C 15.5329 50.2988 16.49 48.7228 17.1001 47.4988 C 17.7164 46.2618 17.2152 44.6298 17.8061 43.3633 C 18.5019 41.8678 19.5918 40.4864 20.9468 39.5298 C 22.9174 38.0545 25.9264 38.0853 27.5713 36.2231 L 27.2344 32.2224 Z "/>
  <path id="ID0.09319758368656039" fill="#3C71B4" stroke="#2F588D" stroke-width="1.6734694363365425" stroke-linecap="round" d="M 29.2262 31.1414 C 28.9546 30.3649 28.1297 29.9403 27.5771 29.4274 C 27.1573 29.0406 26.7798 28.5951 26.3088 28.2703 C 25.8093 27.9261 25.2822 27.5623 24.6886 27.4354 C 24.1436 27.319 23.5696 27.4769 23.0205 27.5698 C 22.4623 27.6642 21.756 27.5767 21.3759 27.996 C 20.9905 28.4216 21.0688 29.1238 21.0932 29.6976 C 21.1178 30.2631 21.1642 30.9024 21.5195 31.3422 C 21.8933 31.8049 22.5624 31.9205 23.0979 32.1805 C 23.6247 32.4361 24.3108 32.4597 24.7081 32.8903 C 25.0971 33.3122 25.1255 33.9664 25.2594 34.5247 C 25.3996 35.1086 25.337 35.739 25.5289 36.3078 C 25.7099 36.8456 25.8133 37.6499 26.3621 37.7937 C 26.9478 37.948 27.6322 37.4505 27.9731 36.9505 C 28.63 35.9876 28.9428 34.8048 29.1774 33.6636 C 29.3603 32.7658 29.5315 31.8899 29.2262 31.1414 Z "/>
  <g id="ID0.5772601133212447">
    <path id="ID0.20703006582334638" fill="url(#grad_3-.094205342233181,1.169904112815857,-1.169904112815857,0.094205342233181,217.15,-218.5)" stroke="none" d="M 50.1944 13.4272 C 50.2662 13.8512 50.2619 14.3531 49.9613 14.7 C 49.6049 15.1137 49.0922 15.3999 48.5025 15.4474 C 47.9129 15.4949 47.3602 15.2992 46.943 14.943 C 46.5246 14.5881 46.243 14.0739 46.1955 13.4843 C 46.1481 12.8946 46.3438 12.3419 46.6999 11.9247 C 47.0548 11.5063 47.6108 11.2025 48.1587 11.1773 C 48.6467 11.1544 49.0793 11.4528 49.3559 11.7873 C 49.7941 12.2431 50.0977 12.8403 50.1944 13.4272 Z " stroke-width="1.1736908791026401"/>
    <g id="ID0.7100869915448129">
      <path id="ID0.8643447342328727" fill="#F3E066" stroke="none" d="M 42.7587 14.9718 L 43.5156 24.3719 L 39.0506 24.7314 L 38.2936 15.3313 L 42.7587 14.9718 Z " stroke-width="0.9430528911349189"/>
      <path id="ID0.3959999615326524" fill="#000000" stroke="none" stroke-linecap="round" d="M 39.9386 15.1989 L 41.5404 15.1172 L 38.5759 19.4242 L 38.4245 17.5441 L 39.9386 15.1989 Z " stroke-width="0.9430528911349189"/>
      <path id="ID0.3959999615326524" fill="#000000" stroke="none" stroke-linecap="round" d="M 42.7863 17.2528 L 42.9544 19.3396 L 38.851 24.779 L 38.6694 22.523 L 42.7863 17.2528 Z " stroke-width="1.131663589143402"/>
      <path id="ID0.8609093781560659" fill="#F2BD4C" stroke="none" d="M 52.7611 14.2024 L 53.5181 23.6025 L 43.4129 24.4162 L 42.656 15.0161 L 52.7611 14.2024 Z " stroke-width="0.9128193501146639"/>
      <path id="ID0.8326035565696657" fill="#EDB94B" stroke="none" stroke-linecap="round" d="M 55.0631 16.4379 L 55.6502 24.9034 L 53.4798 23.7985 L 52.723 14.4008 L 55.0631 16.4379 Z " stroke-width="1.0294764418274134"/>
      <path id="ID0.8326035565696657" fill="#C69B3E" stroke="none" stroke-linecap="round" d="M 43.1735 25.4279 L 56.0584 24.4481 L 53.9042 23.248 L 39.2502 24.3688 L 43.1735 25.4279 Z " stroke-width="1.0294764657395163"/>
    </g>
    <path id="ID0.20703006582334638" fill="url(#grad_4-.094205342233181,1.169904112815857,-1.169904112815857,0.094205342233181,215.7,-220.35)" stroke="none" d="M 49.0157 11.2904 C 49.0712 11.8335 48.9035 12.471 48.5113 12.85 C 48.0019 13.3384 47.1934 13.6944 46.4383 13.6469 C 46.0802 13.6298 46.0999 12.9971 45.8318 12.6948 C 45.4954 12.3192 44.8331 12.1371 44.7455 11.6343 C 44.6527 11.0954 44.8938 10.4919 45.2499 10.0747 C 45.6048 9.6563 46.1674 9.259 46.7087 9.3273 C 47.3451 9.4079 47.8013 9.9987 48.2945 10.377 C 48.5763 10.6593 48.9774 10.9167 49.0157 11.2904 Z " stroke-width="1.1736908791026401"/>
    <path id="ID0.20703006582334638" fill="url(#grad_5-.094205342233181,1.169904112815857,-1.169904112815857,0.094205342233181,213.95,-221.55)" stroke="none" d="M 47.2657 10.0904 C 47.3527 10.6298 47.1175 11.2327 46.7613 11.65 C 46.4064 12.0683 45.8479 12.4147 45.3025 12.3974 C 44.8103 12.3817 44.424 11.9571 44.0375 11.675 C 43.6465 11.2944 43.1076 10.948 42.9955 10.4343 C 42.8784 9.9009 43.1438 9.2919 43.4999 8.8747 C 43.8548 8.4563 44.4146 8.0816 44.9587 8.1273 C 45.529 8.1755 45.9198 8.774 46.3643 9.1327 C 46.6909 9.4302 47.1961 9.6497 47.2657 10.0904 Z " stroke-width="1.1736908791026401"/>
    <path id="ID0.20703006582334638" fill="url(#grad_6-.1058196946978569,1.3141387701034546,-1.3141387701034546,0.1058196946978569,232.7,-251.2)" stroke="none" d="M 45.4656 8.9988 C 45.5344 9.6228 45.1047 10.2328 44.6753 10.6827 C 44.3362 11.1359 43.8359 11.5915 43.2604 11.5902 C 42.6664 11.5891 42.144 11.1458 41.7026 10.7237 C 41.258 10.3918 40.6884 9.9549 40.669 9.385 C 40.6486 8.7544 41.291 8.2728 41.7327 7.8114 C 42.0341 7.3996 42.337 6.7919 42.8742 6.7936 C 43.4813 6.7937 43.956 7.3678 44.4372 7.7259 C 44.8307 8.1121 45.4062 8.4586 45.4656 8.9988 Z " stroke-width="1.3183923979130674"/>
    <path id="ID0.20703006582334638" fill="url(#grad_7-.4657428562641144,1.4039350748062134,-1.4039350748062134,0.4657428562641144,178.35,-326.75)" stroke="none" d="M 43.6844 6.7422 C 43.9258 7.4039 43.6201 8.1833 43.2722 8.788 C 43.0234 9.3724 42.5997 10.0023 41.9722 10.1544 C 41.3246 10.3115 40.637 9.9677 40.0435 9.6254 C 39.4704 9.3822 38.7332 9.058 38.5601 8.4422 C 38.3697 7.7604 38.9414 7.0642 39.2996 6.4436 C 39.5184 5.9144 39.6864 5.1714 40.2723 5.03 C 40.9339 4.8682 41.6044 5.3673 42.2243 5.6292 C 42.7561 5.9452 43.4757 6.1694 43.6844 6.7422 Z " stroke-width="1.4791721003426828"/>
    <path id="ID0.20703006582334638" fill="url(#grad_8-.9358299970626831,1.1455007791519165,-1.1455007791519165,0.9358299970626831,46.9,-354.7)" stroke="none" d="M 40.0309 4.8896 C 40.4924 5.4217 40.4848 6.2588 40.3754 6.9479 C 40.3514 7.5825 40.1802 8.3222 39.6482 8.688 C 39.0993 9.0658 38.3343 8.9898 37.6577 8.8817 C 37.0355 8.859 36.2312 8.8189 35.8498 8.3054 C 35.4288 7.7363 35.7146 6.882 35.8279 6.1744 C 35.8435 5.602 35.7356 4.8479 36.2324 4.5069 C 36.7929 4.1198 37.5973 4.3469 38.2698 4.3705 C 38.8794 4.4761 39.6316 4.4289 40.0309 4.8896 Z " stroke-width="1.4791720043456709"/>
    <path id="ID0.20703006582334638" fill="url(#grad_9-.7838771343231201,0.052627936005592346,-0.052627936005592346,1.7838771343231201,-290.75,-285.95)" stroke="none" d="M 31.5634 4.5855 C 32.4133 4.5856 33.1702 5.2543 33.7118 5.8987 C 34.2713 6.4223 34.81 7.1631 34.7229 7.9372 C 34.6333 8.7362 33.9592 9.3733 33.3258 9.9045 C 32.8133 10.4536 32.1409 11.1551 31.3713 11.0967 C 30.5198 11.0305 29.9672 10.0947 29.4118 9.432 C 28.9024 8.9652 28.1298 8.4675 28.2118 7.7451 C 28.3019 6.9282 29.1449 6.3746 29.6981 5.7803 C 30.2762 5.3082 30.8278 4.5853 31.5634 4.5855 Z " stroke-width="1.7846532800544412"/>
    <path id="ID0.20703006582334638" fill="url(#grad_10-.2657126188278198,-1.2581570148468018,1.2581570148468018,1.2657126188278198,-405.05,41)" stroke="none" d="M 27.5521 7.0552 C 28.137 6.4386 29.143 6.3495 29.9833 6.4 C 30.7482 6.3543 31.6564 6.4731 32.1582 7.069 C 32.6762 7.6839 32.6747 8.6114 32.6243 9.4366 C 32.67 10.1863 32.7163 11.1569 32.1444 11.6751 C 31.5104 12.2474 30.4511 12.0044 29.5881 11.9514 C 28.8989 11.9998 28.0061 12.2179 27.5383 11.6613 C 27.0077 11.0338 27.186 10.0411 27.1355 9.2308 C 27.1907 8.4864 27.0457 7.5888 27.5521 7.0552 Z " stroke-width="1.784653329772534"/>
    <path id="ID0.20703006582334638" fill="url(#grad_11-.2657126188278198,-1.2581570148468018,1.2581570148468018,1.2657126188278198,-405.15,43.4)" stroke="none" d="M 27.4521 9.4552 C 28.037 8.8386 29.043 8.7495 29.8833 8.8 C 30.6482 8.7543 31.5564 8.8731 32.0582 9.469 C 32.5762 10.0839 32.5747 11.0114 32.5243 11.8366 C 32.57 12.5863 32.6163 13.5569 32.0444 14.0751 C 31.4104 14.6474 30.3511 14.4044 29.4881 14.3514 C 28.7989 14.3998 27.9061 14.6179 27.4383 14.0613 C 26.9077 13.4338 27.086 12.4411 27.0355 11.6308 C 27.0907 10.8864 26.9457 9.9888 27.4521 9.4552 Z " stroke-width="1.784653329772534"/>
    <path id="ID0.20703006582334638" fill="url(#grad_12-1.2764806747436523,1.4467241764068604,-1.5306421518325806,-1.3514761924743652,509.85,-38.05)" stroke="none" d="M 32.3631 17.3418 C 31.777 18.0494 30.6676 18.1895 29.728 18.168 C 28.8823 18.25 27.86 18.1556 27.2401 17.5156 C 26.6001 16.8553 26.5053 15.827 26.4755 14.9102 C 26.3467 14.0809 26.1942 13.0069 26.7763 12.4089 C 27.4217 11.7485 28.6248 11.9743 29.5899 11.9977 C 30.3512 11.9157 31.3213 11.6372 31.8993 12.2351 C 32.5546 12.9089 32.4596 14.0167 32.6001 14.9129 C 32.6161 15.7403 32.8707 16.7295 32.3631 17.3418 Z " stroke-width="1.986424745761785"/>
    <g id="ID0.10950249573215842">
      <path id="ID0.6494581247679889" fill="none" stroke="url(#grad_13)" stroke-width="5.314826927218448" d="M 16.3563 21.015 L 16.8341 26.9484 L 12.7549 27.2768 L 12.2771 21.3434 L 16.3563 21.015 Z "/>
      <path id="ID0.11857579834759235" fill="#4F4F4F" stroke="none" d="M 25.1252 19.9566 L 25.6669 26.6836 L 12.213 27.7669 L 11.6713 21.04 L 25.1252 19.9566 Z " stroke-width="1.1736908791026401"/>
      <path id="ID0.4165389509871602" fill="none" stroke="url(#grad_14)" stroke-width="2.3473817582052803" stroke-linecap="round" d="M 23.396 18.8838 L 12.5744 19.7552 L 13.2366 28.7097 L 24.1214 27.8921 "/>
      <path id="ID0.8643447342328727" fill="#F3E066" stroke="none" d="M 28.2551 17.0796 L 29.1971 28.7786 L 23.6401 29.2261 L 22.698 17.527 L 28.2551 17.0796 Z " stroke-width="1.1736908791026401"/>
      <path id="ID0.3959999615326524" fill="#000000" stroke="none" stroke-linecap="round" d="M 24.7454 17.3622 L 26.7389 17.2605 L 23.0493 22.6208 L 22.8609 20.281 L 24.7454 17.3622 Z " stroke-width="1.1736908791026401"/>
      <path id="ID0.3959999615326524" fill="#000000" stroke="none" stroke-linecap="round" d="M 28.5069 19.8182 L 28.716 22.4153 L 23.6092 29.185 L 23.3831 26.3772 L 28.5069 19.8182 Z " stroke-width="1.4084291259787676"/>
      <path id="ID0.6601373604498804" fill="url(#grad_15-.08595695346593857,1.0674701929092407,-1.0674701929092407,0.08595695346593857,196.25,-203.65)" stroke="url(#grad_16)" stroke-width="2.1418507983506574" stroke-linecap="round" d="M 29.3257 27.6243 L 28.7208 18.111 L 36.2998 17.5007 L 40.9927 21.7427 L 37.2249 26.9883 L 29.3257 27.6243 Z "/>
      <path id="ID0.811193433124572" fill="url(#grad_17-.05838077515363693,0.7250109910964966,-0.7250109910964966,0.05838077515363693,144.95,-119.75)" stroke="none" d="M 36.9883 22.0612 C 37.0169 22.4165 36.8985 22.7493 36.6846 23.0015 C 36.4699 23.253 36.1603 23.4231 35.805 23.4517 C 35.4498 23.4804 35.117 23.3619 34.8648 23.148 C 34.6133 22.9333 34.4431 22.6237 34.4145 22.2685 C 34.3859 21.9132 34.5043 21.5804 34.7183 21.3282 C 34.933 21.0767 35.2425 20.9066 35.5978 20.878 C 35.953 20.8493 36.2858 20.9678 36.538 21.1817 C 36.7896 21.3964 36.9597 21.706 36.9883 22.0612 Z " stroke-width="0.7273577195013907"/>
      <path id="ID0.811193433124572" fill="url(#grad_18-.05838077515363693,0.7250109910964966,-0.7250109910964966,0.05838077515363693,141.6,-122.2)" stroke="none" d="M 33.6383 19.6112 C 33.6669 19.9665 33.5485 20.2993 33.3346 20.5515 C 33.1199 20.803 32.8103 20.9731 32.455 21.0017 C 32.0998 21.0304 31.767 20.9119 31.5148 20.698 C 31.2633 20.4833 31.0931 20.1737 31.0645 19.8185 C 31.0359 19.4632 31.1543 19.1304 31.3683 18.8782 C 31.583 18.6267 31.8925 18.4566 32.2478 18.428 C 32.603 18.3993 32.9358 18.5178 33.188 18.7317 C 33.4396 18.9464 33.6097 19.256 33.6383 19.6112 Z " stroke-width="0.7273577195013907"/>
      <path id="ID0.811193433124572" fill="url(#grad_19-.05838077515363693,0.7250109910964966,-0.7250109910964966,0.05838077515363693,141.9,-116.6)" stroke="none" d="M 33.9383 25.2112 C 33.9669 25.5665 33.8485 25.8993 33.6346 26.1515 C 33.4199 26.403 33.1103 26.5731 32.755 26.6017 C 32.3998 26.6304 32.067 26.5119 31.8148 26.298 C 31.5633 26.0833 31.3931 25.7737 31.3645 25.4185 C 31.3359 25.0632 31.4543 24.7304 31.6683 24.4782 C 31.883 24.2267 32.1925 24.0566 32.5478 24.028 C 32.903 23.9993 33.2358 24.1178 33.488 24.3317 C 33.7396 24.5464 33.9097 24.856 33.9383 25.2112 Z " stroke-width="0.7273577195013907"/>
    </g>
  </g>
</svg>