<svg xmlns="http://www.w3.org/2000/svg" xmlns:xlink="http://www.w3.org/1999/xlink" version="1.1" width="57.25907154688119" height="62.188682752935875" viewBox="-0.42936621014713516 -0.02619514767765274 57.25907154688119 62.188682752935875">
  <defs>
    <linearGradient id="grad_1" x2="1">
      <stop offset="0" stop-color="#4F4F4F" stop-opacity="1"/>
      <stop offset="1" stop-color="#4F4F4F" stop-opacity="1"/>
    </linearGradient>
    <linearGradient id="grad_2" x2="1">
      <stop offset="0" stop-color="#4F4F4F" stop-opacity="1"/>
      <stop offset="1" stop-color="#4F4F4F" stop-opacity="1"/>
    </linearGradient>
    <linearGradient id="grad_3" x2="1">
      <stop offset="0" stop-color="#F0C590" stop-opacity="1"/>
      <stop offset="1" stop-color="#F0C590" stop-opacity="1"/>
    </linearGradient>
    <radialGradient id="grad_4" cx="0.6575" cy="0.5616" r="0.8547499999999999">
      <stop offset="0" stop-color="#E1B174" stop-opacity="1"/>
      <stop offset="1" stop-color="#AE632A" stop-opacity="1"/>
    </radialGradient>
    <radialGradient id="grad_5" cx="0.6575" cy="0.5616" r="0.8547499999999999">
      <stop offset="0" stop-color="#E1B174" stop-opacity="1"/>
      <stop offset="1" stop-color="#AE632A" stop-opacity="1"/>
    </radialGradient>
    <radialGradient id="grad_6" cx="0.6575" cy="0.5616" r="0.8547499999999999">
      <stop offset="0" stop-color="#E1B174" stop-opacity="1"/>
      <stop offset="1" stop-color="#AE632A" stop-opacity="1"/>
    </radialGradient>
    <radialGradient id="grad_7" cx="0.6575" cy="0.5616" r="0.8547499999999999">
      <stop offset="0" stop-color="#E1B174" stop-opacity="1"/>
      <stop offset="1" stop-color="#AE632A" stop-opacity="1"/>
    </radialGradient>
    <radialGradient id="grad_8" cx="0.6575" cy="0.5616" r="0.8547499999999999">
      <stop offset="0" stop-color="#E1B174" stop-opacity="1"/>
      <stop offset="1" stop-color="#AE632A" stop-opacity="1"/>
    </radialGradient>
    <radialGradient id="grad_9" cx="0.6575" cy="0.5616" r="0.8547499999999999">
      <stop offset="0" stop-color="#E1B174" stop-opacity="1"/>
      <stop offset="1" stop-color="#AE632A" stop-opacity="1"/>
    </radialGradient>
    <radialGradient id="grad_10" cx="0.6575" cy="0.5616" r="0.8547499999999999">
      <stop offset="0" stop-color="#E1B174" stop-opacity="1"/>
      <stop offset="1" stop-color="#AE632A" stop-opacity="1"/>
    </radialGradient>
    <radialGradient id="grad_11" cx="0.6575" cy="0.5616" r="0.8547499999999999">
      <stop offset="0" stop-color="#E1B174" stop-opacity="1"/>
      <stop offset="1" stop-color="#AE632A" stop-opacity="1"/>
    </radialGradient>
    <radialGradient id="grad_12" cx="0.6575" cy="0.5616" r="0.8547499999999999">
      <stop offset="0" stop-color="#E1B174" stop-opacity="1"/>
      <stop offset="1" stop-color="#AE632A" stop-opacity="1"/>
    </radialGradient>
    <radialGradient id="grad_13" cx="0.6575" cy="0.5616" r="0.8547499999999999">
      <stop offset="0" stop-color="#E1B174" stop-opacity="1"/>
      <stop offset="1" stop-color="#AE632A" stop-opacity="1"/>
    </radialGradient>
    <radialGradient id="grad_14" cx="0.6575" cy="0.5616" r="0.8547499999999999">
      <stop offset="0" stop-color="#E1B174" stop-opacity="1"/>
      <stop offset="1" stop-color="#AE632A" stop-opacity="1"/>
    </radialGradient>
    <linearGradient id="grad_15" x2="1">
      <stop offset="0" stop-color="#4F4F4F" stop-opacity="1"/>
      <stop offset="1" stop-color="#4F4F4F" stop-opacity="1"/>
    </linearGradient>
    <linearGradient id="grad_16" y2="1" x2="0">
      <stop offset="0" stop-color="#4F4F4F" stop-opacity="1"/>
      <stop offset="1" stop-color="#737373" stop-opacity="1"/>
    </linearGradient>
    <radialGradient id="grad_17" cx="0.5366" cy="0.2556" r="0.96772">
      <stop offset="0" stop-color="#737373" stop-opacity="1"/>
      <stop offset="1" stop-color="#4F4F4F" stop-opacity="1"/>
    </radialGradient>
    <radialGradient id="grad_18" cx="0.6192" cy="0.2218" r="1.01166">
      <stop offset="0" stop-color="#737373" stop-opacity="1"/>
      <stop offset="1" stop-color="#4F4F4F" stop-opacity="1"/>
    </radialGradient>
    <radialGradient id="grad_19" cx="0.4929" cy="0.5492" r="0.71396">
      <stop offset="0" stop-color="#646464" stop-opacity="1"/>
      <stop offset="1" stop-color="#434343" stop-opacity="1"/>
    </radialGradient>
    <radialGradient id="grad_20" cx="0.4929" cy="0.5492" r="0.71396">
      <stop offset="0" stop-color="#646464" stop-opacity="1"/>
      <stop offset="1" stop-color="#434343" stop-opacity="1"/>
    </radialGradient>
    <radialGradient id="grad_21" cx="0.4929" cy="0.5492" r="0.71396">
      <stop offset="0" stop-color="#646464" stop-opacity="1"/>
      <stop offset="1" stop-color="#434343" stop-opacity="1"/>
    </radialGradient>
  <linearGradient id="grad_1-.9355133771896362,0.022388353943824768,-0.01218391302973032,0.5091134905815125,-185.1,-64" x2="48.4426" x1="17.4771" y1="37.0237" y2="37.7647" gradientUnits="userSpaceOnUse">
      <stop offset="0" stop-color="#4F4F4F" stop-opacity="1"/>
      <stop offset="1" stop-color="#4F4F4F" stop-opacity="1"/>
    </linearGradient><radialGradient id="grad_4-.157376766204834,-0.9211021661758423,0.9211021661758423,1.157376766204834,-356.6,10.65" cx="5.4274" cy="23.9599" r="4.6184" gradientUnits="userSpaceOnUse">
      <stop offset="0" stop-color="#E1B174" stop-opacity="1"/>
      <stop offset="1" stop-color="#AE632A" stop-opacity="1"/>
    </radialGradient><radialGradient id="grad_5-.173354983329773,0.02808029018342495,-0.02808029018342495,1.173354983329773,-199.75,-181.3" cx="13.8959" cy="11.1351" r="3.5436" gradientUnits="userSpaceOnUse">
      <stop offset="0" stop-color="#E1B174" stop-opacity="1"/>
      <stop offset="1" stop-color="#AE632A" stop-opacity="1"/>
    </radialGradient><radialGradient id="grad_6-.173354983329773,0.02808029018342495,-0.02808029018342495,1.173354983329773,-201.75,-180.05" cx="11.9068" cy="12.2645" r="3.6829" gradientUnits="userSpaceOnUse">
      <stop offset="0" stop-color="#E1B174" stop-opacity="1"/>
      <stop offset="1" stop-color="#AE632A" stop-opacity="1"/>
    </radialGradient><radialGradient id="grad_7-.173354983329773,0.02808029018342495,-0.02808029018342495,1.173354983329773,-203.1,-178.45" cx="10.5492" cy="13.8656" r="3.6779" gradientUnits="userSpaceOnUse">
      <stop offset="0" stop-color="#E1B174" stop-opacity="1"/>
      <stop offset="1" stop-color="#AE632A" stop-opacity="1"/>
    </radialGradient><radialGradient id="grad_8-.3180150985717773,0.03154224157333374,-0.03154224157333374,1.3180150985717773,-230.65,-200.2" cx="9.341" cy="15.8213" r="4.1164" gradientUnits="userSpaceOnUse">
      <stop offset="0" stop-color="#E1B174" stop-opacity="1"/>
      <stop offset="1" stop-color="#AE632A" stop-opacity="1"/>
    </radialGradient><radialGradient id="grad_9-.4447875022888184,-0.3170790374279022,0.3170790374279022,1.4447875022888184,-311.45,-154" cx="7.6958" cy="17.4261" r="4.6184" gradientUnits="userSpaceOnUse">
      <stop offset="0" stop-color="#E1B174" stop-opacity="1"/>
      <stop offset="1" stop-color="#AE632A" stop-opacity="1"/>
    </radialGradient><radialGradient id="grad_10-.2366878986358643,-0.8115127682685852,0.8115127682685852,1.2366878986358643,-352.95,-26.15" cx="6.3474" cy="20.1789" r="4.6184" gradientUnits="userSpaceOnUse">
      <stop offset="0" stop-color="#E1B174" stop-opacity="1"/>
      <stop offset="1" stop-color="#AE632A" stop-opacity="1"/>
    </radialGradient><radialGradient id="grad_11-.23802368342876434,-1.7687091827392578,1.7687091827392578,0.23802368342876434,-319.7,316.85" cx="6.5697" cy="25.9979" r="5.5723" gradientUnits="userSpaceOnUse">
      <stop offset="0" stop-color="#E1B174" stop-opacity="1"/>
      <stop offset="1" stop-color="#AE632A" stop-opacity="1"/>
    </radialGradient><radialGradient id="grad_12-1.1195762157440186,-1.389797329902649,1.389797329902649,-1.1195762157440186,-6.4,464.6" cx="7.0728" cy="27.7187" r="5.5723" gradientUnits="userSpaceOnUse">
      <stop offset="0" stop-color="#E1B174" stop-opacity="1"/>
      <stop offset="1" stop-color="#AE632A" stop-opacity="1"/>
    </radialGradient><radialGradient id="grad_13-1.1195762157440186,-1.389797329902649,1.389797329902649,-1.1195762157440186,-4,464.95" cx="9.4728" cy="28.0687" r="5.5723" gradientUnits="userSpaceOnUse">
      <stop offset="0" stop-color="#E1B174" stop-opacity="1"/>
      <stop offset="1" stop-color="#AE632A" stop-opacity="1"/>
    </radialGradient><radialGradient id="grad_14-.3059983253479004,1.4201346635818481,-1.5034576654434204,1.3816542625427246,10.2,-453.65" cx="13.2601" cy="30.6594" r="6.2022" gradientUnits="userSpaceOnUse">
      <stop offset="0" stop-color="#E1B174" stop-opacity="1"/>
      <stop offset="1" stop-color="#AE632A" stop-opacity="1"/>
    </radialGradient><radialGradient id="grad_17-.0706188678741455,0.025621647015213966,-0.025621647015213966,1.0706188678741455,-187.15,-158.95" cx="21.2931" cy="22.0292" r="10.5408" gradientUnits="userSpaceOnUse">
      <stop offset="0" stop-color="#737373" stop-opacity="1"/>
      <stop offset="1" stop-color="#4F4F4F" stop-opacity="1"/>
    </radialGradient><radialGradient id="grad_19-.7271495461463928,0.017401868477463722,-0.017401868477463722,0.7271495461463928,-109.05,-99.2" cx="20.7011" cy="24.3535" r="1.8435" gradientUnits="userSpaceOnUse">
      <stop offset="0" stop-color="#646464" stop-opacity="1"/>
      <stop offset="1" stop-color="#434343" stop-opacity="1"/>
    </radialGradient><radialGradient id="grad_20-.7271495461463928,0.017401868477463722,-0.017401868477463722,0.7271495461463928,-111.85,-96.15" cx="17.9011" cy="27.4035" r="1.8435" gradientUnits="userSpaceOnUse">
      <stop offset="0" stop-color="#646464" stop-opacity="1"/>
      <stop offset="1" stop-color="#434343" stop-opacity="1"/>
    </radialGradient><radialGradient id="grad_21-.7271495461463928,0.017401868477463722,-0.017401868477463722,0.7271495461463928,-106.25,-95.85" cx="23.5011" cy="27.7035" r="1.8435" gradientUnits="userSpaceOnUse">
      <stop offset="0" stop-color="#646464" stop-opacity="1"/>
      <stop offset="1" stop-color="#434343" stop-opacity="1"/>
    </radialGradient></defs>
  <!-- Exported by Scratch - http://scratch.mit.edu/ -->
  <path id="ID0.10165197495371103" fill="#4F4F4F" stroke="#4F4F4F" stroke-width="1.479591796579807" stroke-linecap="round" d="M 15.3214 49.378 C 15.5208 49.7999 15.822 50.1657 16.089 50.6 C 16.6422 51.5027 17.1844 52.4172 17.7113 53.3363 C 18.1976 54.1652 18.6245 55.0319 19.0554 55.8936 C 19.3188 56.3248 19.3562 56.9666 19.7971 57.217 C 20.3571 57.5335 21.1292 57.565 21.7441 57.3097 C 22.1946 57.1295 22.5473 56.603 22.6007 56.0708 C 22.6629 55.4345 22.1498 54.8881 21.9568 54.2595 C 21.8283 53.8454 21.759 53.4109 21.6018 53.0079 C 21.2577 52.1273 20.5915 51.3286 20.3531 50.394 C 20.2278 49.9041 20.7855 49.4015 20.6462 48.9301 C 20.278 48.0261 19.6997 47.1073 18.9332 46.5486 C 18.5274 46.2542 17.91 46.4792 17.4294 46.6231 C 16.9572 46.7638 16.574 47.1156 16.1566 47.3777 C 15.7386 47.6402 15.1298 47.7491 14.9216 48.1959 C 14.7583 48.5499 15.1297 48.9937 15.3214 49.378 Z "/>
  <path id="ID0.10165197495371103" fill="#666666" stroke="#666666" stroke-width="1.4795918178303473" stroke-linecap="round" d="M 38.703 59.164 C 39.1428 59.0081 39.5371 58.7453 39.9961 58.5234 C 40.9499 58.0638 41.9142 57.6164 42.8818 57.1847 C 43.7554 56.7843 44.6606 56.4467 45.5613 56.1047 C 46.0169 55.8861 46.6592 55.9135 46.9527 55.5001 C 47.3239 54.9748 47.433 54.2097 47.2408 53.5722 C 47.1069 53.1059 46.6186 52.702 46.0944 52.5953 C 45.4676 52.4694 44.8724 52.9249 44.2275 53.0537 C 43.8026 53.1398 43.3633 53.165 42.9465 53.2809 C 42.0358 53.5346 41.1741 54.117 40.2203 54.2602 C 39.7203 54.3356 39.2763 53.7301 38.7933 53.8212 C 37.8568 54.0966 36.8845 54.5795 36.2514 55.2858 C 35.9178 55.66 36.0795 56.2969 36.1743 56.7896 C 36.2667 57.2735 36.5782 57.6901 36.7969 58.1318 C 37.016 58.5741 37.0631 59.1908 37.4867 59.4428 C 37.8225 59.641 38.3013 59.3161 38.703 59.164 Z "/>
  <path id="ID0.8862749082036316" fill="#2F5E8D" stroke="#23476A" stroke-width="2.0000000010012293" stroke-linecap="round" d="M 18.3436 47.6154 C 17.4142 48.7639 19.8373 50.3946 21.1655 51.0402 C 22.0253 51.4568 23.0205 50.7259 23.9032 50.4656 C 26.0779 49.7419 28.549 49.4747 30.3285 48.0906 C 31.2379 47.3836 31.3521 45.8646 31.146 44.7329 C 30.997 43.9104 30.0927 43.4101 29.3638 43.0377 C 28.8668 42.7853 28.5926 42.6356 27.8124 42.9816 C 24.5487 44.3156 20.5302 44.9137 18.3436 47.6154 Z "/>
  <path id="ID0.8862749082036316" fill="#3C71B4" stroke="#2F588C" stroke-width="2.0000000395820483" stroke-linecap="round" d="M 37.432 56.5846 C 38.71 56.6026 38.6183 52.6213 38.2041 50.6545 C 37.5845 47.6983 34.5472 45.4203 34.4434 42.342 C 34.4013 41.1033 37.4199 42.2302 37.9325 41.0425 C 38.9987 38.5654 40.1092 32.9392 38.3171 32.9503 C 35.5064 32.9689 31.2653 37.674 28.7306 40.9759 C 27.8478 42.1278 28.3587 44.0014 28.853 45.3813 C 29.5911 47.3535 31.0072 48.9942 32.3008 50.6834 C 33.8836 52.7512 35.73 56.5602 37.432 56.5846 Z "/>
  <path id="ID0.4931722558103502" fill="url(#grad_1-.9355133771896362,0.022388353943824768,-0.01218391302973032,0.5091134905815125,-185.1,-64)" stroke="url(#grad_2)" stroke-width="1.506672831985684" d="M 17.4479 38.2455 L 19.9901 39.5799 L 43.562 40.2714 L 44.0414 37.8377 L 48.4426 37.7647 L 48.2048 41.8343 L 17.6353 42.147 L 17.4479 38.2455 Z "/>
  <path id="ID0.2493568635545671" fill="#FFFFFF" stroke="none" stroke-linecap="round" d="M 33.6922 34.24 L 40.4438 34.2515 L 40.0482 38.2432 L 33.5402 40.5882 L 33.6922 34.24 Z " stroke-width="1.0000000168520873"/>
  <path id="ID0.3092493093572557" fill="#FFD499" stroke="#F0C690" stroke-width="1.1486011354884194" stroke-linecap="round" d="M 27.2051 35.5921 C 26.7998 35.8654 27.5277 37.2125 28.0726 37.8295 C 29.5853 39.5461 31.3503 41.0977 33.3962 42.0364 C 35.6601 43.1065 38.2316 43.4379 40.6943 43.711 C 42.709 43.9382 44.7644 43.9131 46.7817 43.6372 C 47.5757 43.5288 48.6057 43.4158 48.9902 42.6837 C 49.694 41.4855 50.3922 39.7337 49.6682 38.5182 C 48.9673 37.3468 47.1269 37.2345 45.7596 37.2652 C 44.3779 37.2965 43.1677 38.5006 41.7717 38.5681 C 40.1242 38.6494 38.3942 38.329 36.9162 37.5761 C 34.6925 36.5201 33.3174 33.8436 30.9031 33.2562 L 27.5205 35.4189 Z "/>
  <path id="ID0.09319758368656039" fill="#3C71B4" stroke="#2F588D" stroke-width="1.6734694524987723" stroke-linecap="round" d="M 29.3151 30.0733 C 28.5147 30.2626 28.0064 31.0388 27.4388 31.535 C 27.0105 31.9122 26.528 32.2413 26.1561 32.676 C 25.7617 33.137 25.345 33.6233 25.1571 34.2005 C 24.9845 34.7304 25.0818 35.3178 25.117 35.8735 C 25.1529 36.4385 24.9923 37.1319 25.3698 37.5535 C 25.7529 37.9812 26.4594 37.9763 27.0327 38.0118 C 27.5977 38.0463 28.2383 38.0666 28.7127 37.7591 C 29.2118 37.4354 29.3965 36.7819 29.7107 36.2764 C 30.0198 35.7791 30.1147 35.0992 30.5843 34.7489 C 31.0444 34.4059 31.698 34.4458 32.2673 34.3707 C 32.8626 34.292 33.483 34.4199 34.0687 34.2883 C 34.6224 34.1642 35.4331 34.1451 35.6333 33.6143 C 35.8477 33.0478 35.4241 32.3153 34.9623 31.9243 C 34.073 31.1706 32.9292 30.7365 31.8186 30.3843 C 30.9447 30.109 30.0914 29.8475 29.3151 30.0733 Z "/>
  <g id="ID0.7357129715383053">
    <path id="ID0.191649260930717" fill="#FFD499" stroke="none" stroke-linecap="round" d="M 39.5298 8.6446 C 43.3016 7.8447 48.2288 5.1516 51.0751 7.7527 C 54.0701 10.4887 51.0039 15.9997 51.8478 20.0249 C 52.0619 20.9958 53.7191 20.6035 53.9727 21.4346 C 54.3626 22.7088 54.1617 24.2878 53.5404 25.4115 C 53.2611 25.9131 52.1661 25.1187 51.8195 25.5475 C 50.5047 27.1762 50.6141 29.9163 48.8337 31.0793 C 45.4925 33.2627 41.448 35.0712 37.4623 34.867 C 34.6132 34.7209 32.7317 31.6036 30.3438 30.0139 C 29.5062 29.4573 28.3704 29.2969 27.9394 28.3765 C 26.0407 24.7482 22.6741 20.8614 23.6187 16.8855 C 24.3596 13.7641 28.9039 13.2162 31.7505 11.7146 C 34.2249 10.4595 36.7836 9.2266 39.5298 8.6446 Z " stroke-width="0.999999994758977"/>
    <path id="ID0.8556915456429124" fill="#F0C690" stroke="none" stroke-linecap="round" d="M 42.7034 3.6282 C 43.3964 3.7139 43.8903 4.4284 44.568 4.611 C 45.8587 4.9581 47.1501 5.1093 48.431 5.1831 C 49.3919 5.2403 50.7043 4.2844 51.2612 5.003 C 52.4433 6.5321 53.3818 8.7992 52.7307 10.6193 C 52.2622 11.9305 50.1615 11.5227 48.8497 11.8035 C 39.856 13.6588 41.0965 11.4122 39.2085 10.7264 C 38.6658 10.4151 37.5791 10.37 37.3287 10.9477 C 36.5854 12.6614 35.2068 15.7377 36.6533 16.4081 C 38.7903 17.399 41.7218 14.1053 44.3963 14.2387 C 46.121 14.3251 48.3018 15.268 48.8146 16.8734 C 49.5334 19.2621 49.2049 22.4925 47.4598 24.1773 C 45.8387 25.7414 42.9233 25.3659 40.7207 24.7855 C 38.8102 24.2704 37.0111 19.7215 35.9502 21.1124 C 33.8695 23.8419 35.8642 29.2103 34.5535 33.0335 C 34.2266 33.9896 33.0948 32.0304 32.3339 31.5644 C 30.6318 30.5219 28.6737 29.8123 27.2073 28.4599 C 26.2311 27.5584 25.7883 26.1335 25.2431 24.8555 C 24.6707 23.609 23.8963 22.3421 23.8645 20.9055 C 23.7888 17.4595 23.5953 13.7962 24.9042 10.6078 C 25.7893 8.4535 27.9578 7.0475 29.8858 5.8122 C 31.7425 4.6907 33.9302 4.057 36.017 3.6889 C 38.2091 3.3008 40.4938 3.3616 42.7034 3.6282 Z " stroke-width="0.999999994758977"/>
    <path id="ID0.2703239833936095" fill="#653B00" stroke="none" stroke-linecap="round" d="M 43.716 15.5861 C 45.1514 15.724 46.2821 15.9592 47.3258 16.6392 C 48.1 17.1446 49.0012 18.075 48.9335 19.051 C 48.8414 19.7374 47.7128 19.9514 47.0012 20.0176 C 45.7179 20.1364 44.4542 19.6132 43.1688 19.4515 C 42.0025 19.3776 40.765 19.6686 39.6471 19.311 C 38.9708 19.0933 37.9868 18.6281 38.0385 17.9539 C 38.1421 17.0115 39.1283 16.2724 39.9717 15.9325 C 41.1191 15.4712 42.2806 15.4482 43.716 15.5861 Z " stroke-width="0.999999994758977"/>
    <g id="ID0.956311296671629">
      <path id="ID0.30213406030088663" fill="#FFFFFF" stroke="none" stroke-linecap="round" d="M 43.5473 16.5243 C 44.7143 16.6085 46.0711 16.7249 46.8673 17.5698 C 47.6832 18.4376 48.0379 19.7068 47.9145 20.991 C 47.7911 22.2752 47.2092 23.4643 46.235 24.1501 C 45.3091 24.8006 44.0154 24.5784 42.9347 24.4596 C 41.7837 24.364 40.359 24.3929 39.6546 23.5179 C 38.9416 22.629 39.1683 21.2478 39.3052 20.1138 C 39.3836 19.0071 39.4224 17.6469 40.2869 16.9375 C 41.134 16.2435 42.4667 16.3925 43.5473 16.5243 Z " stroke-width="0.9946808082933493"/>
      <path id="ID0.8961478788405657" fill="#000000" stroke="none" stroke-linecap="round" d="M 45.9123 16.7944 C 46.5747 16.858 47.2023 17.4809 47.5 18.0961 C 47.8776 18.8768 47.9254 19.8147 47.8623 20.679 C 47.7456 21.686 47.5638 22.7768 46.9719 23.5912 C 46.5597 24.1582 45.7518 24.4863 45.0512 24.4559 C 44.4369 24.3599 43.8587 23.8257 43.5778 23.2651 C 43.1544 22.42 43.0348 21.5222 43.1378 20.4499 C 43.2409 19.3776 43.6035 18.4322 44.1058 17.7699 C 44.608 17.1087 45.2499 16.7307 45.9123 16.7944 Z " stroke-width="0.9946808082933493"/>
    </g>
    <path id="ID0.06146117439493537" fill="#F0C690" stroke="#FFDBA0" stroke-width="1.7719572615476205" stroke-linecap="round" d="M 29.3979 20.0446 C 30.5742 20.3413 31.789 20.8236 32.6084 21.6738 C 33.2756 22.4383 33.5998 23.5739 33.536 24.5387 C 33.4613 25.6845 33.2202 27.1867 32.203 27.7196 C 31.0444 28.3261 29.385 27.9342 28.2179 27.2593 C 27.0819 26.5852 26.437 25.2411 25.869 24.0093 C 25.4992 23.2064 25.3945 22.261 25.5799 21.3712 C 25.685 20.869 26.2107 20.4779 26.6956 20.3073 C 27.5955 19.991 28.5213 19.8235 29.3979 20.0446 Z "/>
    <path id="ID0.9459127215668559" fill="#FFD499" stroke="none" stroke-linecap="round" d="M 29.5624 23.5094 C 30.3245 23.9834 31.1335 24.4409 31.9409 24.8932 C 32.1891 24.9874 32.7621 24.8465 32.7205 25.1439 C 32.6271 25.802 32.2179 26.4649 31.6599 26.8352 C 31.1384 27.1809 30.4581 27.1206 29.8794 27.0057 C 29.3253 26.9384 28.7954 26.6615 28.3891 26.31 C 27.8777 25.861 27.3303 25.3895 27.0845 24.728 C 26.6982 23.6872 26.0271 21.712 26.6487 21.4211 C 27.3199 21.1069 28.5489 22.8806 29.5624 23.5094 Z " stroke-width="0.999999994758977"/>
    <path id="ID0.6276269098743796" fill="#F0C690" stroke="none" d="M 32.528 20.5435 L 34.7309 21.0779 L 33.7748 29.2101 L 31.5294 29.0372 L 32.528 20.5435 Z " stroke-width="1.3604594336042972"/>
    <path id="ID0.7435970422811806" fill="none" stroke="#663B00" stroke-width="1.999999989517954" stroke-linecap="round" d="M 42.3115 12.6289 L 49.2365 16.3583 "/>
    <path id="ID0.41598089784383774" fill="none" stroke="url(#grad_3)" stroke-width="1.999999989517954" stroke-linecap="round" d="M 51.8673 10.9351 L 51.0304 19.645 L 53.7028 21.1073 L 53.0733 25.5675 L 50.7715 25.9994 L 49.6336 28.9541 L 45.2359 32.9015 L 37.1454 33.9827 L 33.4096 31.5643 "/>
    <path id="ID0.46292465971782804" fill="#876A53" stroke="none" stroke-linecap="round" d="M 37.2912 27.6007 C 39.5604 28.1921 41.9898 27.8921 44.2563 27.9365 C 46.4968 27.9806 49.2044 26.8404 50.984 27.805 C 51.8839 28.2938 50.2339 30.009 49.503 30.8857 C 48.6122 31.946 47.4668 32.8495 46.2539 33.5743 C 45.164 34.1698 43.9477 34.6475 42.695 34.7883 C 40.4522 35.0385 37.9742 35.5862 35.9378 34.6392 C 34.1421 33.8065 32.4653 31.9127 32.157 29.9414 C 31.8894 28.2275 32.9267 25.971 34.4677 25.2733 C 35.5708 24.7747 36.1455 27.2627 37.2912 27.6007 Z " stroke-width="1.1148966210708273"/>
    <path id="ID0.46292465971782804" fill="#9C7A60" stroke="none" stroke-linecap="round" d="M 37.7766 27.6585 C 38.7306 27.7877 39.5238 26.6949 40.4823 26.6826 C 41.2879 26.673 42.0304 27.247 42.7693 27.4516 C 43.5454 27.6653 44.2775 27.992 45.1277 27.9986 C 46.4918 28.0107 48.4407 26.9658 49.1878 27.5649 C 49.7734 28.0367 48.5266 29.4384 47.9353 30.1451 C 47.2908 30.9143 46.3989 31.5079 45.4952 32.0161 C 44.5075 32.5721 43.4933 33.1008 42.3651 33.2258 C 40.3323 33.4397 38.1708 33.8536 36.3534 33.0601 C 34.7508 32.3624 33.3329 30.777 32.9605 29.1639 C 32.6687 27.8936 33.2549 26.0797 34.5036 25.6504 C 35.6494 25.2579 36.4973 27.4019 37.7766 27.6585 Z " stroke-width="0.9566512086958655"/>
    <path id="ID0.8556915456429124" fill="#663B00" stroke="none" stroke-linecap="round" d="M 42.2534 2.7782 C 42.9464 2.8639 43.4403 3.5784 44.118 3.761 C 45.4087 4.1081 46.6855 4.4427 47.981 4.3331 C 49.1498 4.2335 50.578 2.3454 51.2954 3.2954 C 52.6589 4.9765 53.056 7.6809 52.2807 9.7693 C 51.8104 11.0361 49.7506 10.9768 48.3997 10.9535 C 44.9926 10.8954 41.6105 9.7306 38.1449 9.4659 C 37.3253 9.4122 37.2411 9.2846 36.8787 10.0977 C 35.4298 13.352 35.4924 17.3212 33.4452 20.2156 C 32.6906 21.2211 30.9134 20.1241 29.6885 20.1058 C 27.5999 20.0749 24.3087 21.8945 23.4145 20.0555 C 21.9111 16.9555 23.4737 13.0621 24.4542 9.7578 C 25.1092 7.5523 26.3069 5.198 28.2728 3.9966 C 30.3534 2.6785 33.0919 3.0451 35.567 2.8389 C 37.7858 2.6543 40.0438 2.5116 42.2534 2.7782 Z " stroke-width="0.999999994758977"/>
    <path id="ID0.4824404357932508" fill="#7C4600" stroke="#7C4600" stroke-width="1.999999989517954" stroke-linecap="round" d="M 50.1852 4.3942 C 50.0893 4.1479 47.7061 5.5725 46.2142 5.4693 C 44.5925 5.3567 43.2501 3.749 41.6103 3.721 C 37.2996 3.6473 32.5461 3.2047 28.6653 5.1393 C 26.5583 6.2298 25.4284 10.1166 25.825 11.6978 C 26.0704 12.6777 28.7636 11.0167 30.0286 10.2934 C 31.4735 9.5271 32.3229 7.7552 33.8329 7.2935 C 35.8161 6.6864 37.99 7.3775 40.0619 7.2892 C 42.8127 7.1718 45.6513 7.3963 48.3084 6.6752 C 49.3348 6.3961 51.0184 4.6832 50.5834 4.4325 Z "/>
    <path id="ID0.5121778678148985" fill="#A57647" stroke="#A57647" stroke-width="0.5658375425062391" stroke-linecap="round" d="M 46.9743 5.3691 C 46.8147 5.5183 46.5423 5.338 46.2798 5.3645 C 46.0626 5.3864 45.8443 5.4621 45.6904 5.5813 C 45.5382 5.6994 45.5822 5.942 45.4095 6.039 C 44.9131 6.31 43.605 6.3371 43.6073 6.5494 C 43.6506 6.8155 44.9266 6.8969 45.5038 7.0299 C 45.7208 7.0796 45.9285 7.1898 46.1517 7.1916 C 46.6002 7.1951 47.0464 7.1304 47.4766 7.0454 C 47.7017 7.001 47.9061 6.9053 48.0997 6.807 C 48.2793 6.7159 48.4457 6.6054 48.589 6.4812 C 49.0866 6.0563 49.7966 5.6299 50.226 5.0601 C 50.3569 4.8383 50.5366 4.2046 50.1789 4.2354 C 49.1097 4.3402 48.122 5.1351 47.078 5.4412 Z "/>
    <path id="ID0.5121778678148985" fill="#A57647" stroke="#A57647" stroke-width="0.5658375425062391" stroke-linecap="round" d="M 39.2743 4.2691 C 39.1185 4.3784 38.8423 4.238 38.5798 4.2645 C 38.3626 4.2864 38.2 4.4438 37.9904 4.4813 C 37.6087 4.5421 36.8869 4.2296 36.7001 4.4319 C 36.538 4.6231 36.916 5.0221 37.1984 5.1633 C 37.6103 5.4062 38.1588 5.4835 38.6047 5.4849 C 38.9419 5.4837 39.2559 5.4147 39.5733 5.2672 C 39.8101 5.16 39.9097 4.8658 40.184 4.8288 C 40.6799 4.7601 41.2892 4.9345 41.8703 4.8665 C 42.0477 4.8751 42.4937 4.8228 42.396 4.656 C 42.1811 4.351 41.5629 4.0525 41.0661 4.0311 C 40.4673 3.9381 39.9608 4.2555 39.378 4.3412 Z "/>
  </g>
  <path id="ID0.04297091066837311" fill="#666666" stroke="none" d="M 34.4356 55.247 L 39.3088 52.1532 L 41.663 55.8263 L 36.3629 58.6649 L 34.4356 55.247 Z " stroke-width="0.8528203177924151"/>
  <path id="ID0.04297091066837311" fill="#4F4F4F" stroke="none" d="M 19.0953 46.0882 L 20.843 48.8292 L 23.3414 51.6448 L 19.6789 53.2332 L 16.0575 48.4338 L 19.0953 46.0882 Z " stroke-width="0.8528203678388109"/>
  <path id="ID0.20703006582334638" fill="url(#grad_4-.157376766204834,-0.9211021661758423,0.9211021661758423,1.157376766204834,-356.6,10.65)" stroke="none" d="M 2.8723 22.1178 C 3.4103 21.6632 4.2472 21.6815 4.9349 21.7997 C 5.5692 21.8318 6.3065 22.0124 6.6656 22.549 C 7.0363 23.1028 6.9505 23.8667 6.8338 24.5419 C 6.8031 25.1637 6.7528 25.9675 6.2344 26.3423 C 5.6599 26.7559 4.8094 26.4592 4.1033 26.3369 C 3.5312 26.3139 2.7757 26.4123 2.4411 25.9111 C 2.0612 25.3458 2.2986 24.5443 2.3308 23.8721 C 2.4441 23.2639 2.4065 22.5112 2.8723 22.1178 Z " stroke-width="1.47917212638847"/>
  <g id="ID0.5772601133212447">
    <path id="ID0.20703006582334638" fill="url(#grad_5-.173354983329773,0.02808029018342495,-0.02808029018342495,1.173354983329773,-199.75,-181.3)" stroke="none" d="M 13.5392 8.8897 C 13.9683 8.8624 14.4671 8.919 14.7808 9.254 C 15.1552 9.6516 15.3865 10.1913 15.3723 10.7827 C 15.3581 11.374 15.106 11.9034 14.7083 12.2813 C 14.3118 12.6604 13.7711 12.887 13.1797 12.8728 C 12.5883 12.8586 12.059 12.6065 11.6811 12.2088 C 11.302 11.8123 11.0577 11.2277 11.0896 10.6802 C 11.1177 10.1925 11.4595 9.7933 11.8209 9.553 C 12.3198 9.1646 12.9454 8.9248 13.5392 8.8897 Z " stroke-width="1.173690938706437"/>
    <g id="ID0.7100869915448129">
      <path id="ID0.8643447342328727" fill="#F3E066" stroke="none" d="M 14.3111 16.4398 L 23.7389 16.6654 L 23.6317 21.1436 L 14.2039 20.918 L 14.3111 16.4398 Z " stroke-width="0.9430529360304887"/>
      <path id="ID0.3959999615326524" fill="#000000" stroke="none" stroke-linecap="round" d="M 14.2434 19.2681 L 14.3289 17.6665 L 18.3039 21.0633 L 16.4183 21.0182 L 14.2434 19.2681 Z " stroke-width="0.9430529360304887"/>
      <path id="ID0.3959999615326524" fill="#000000" stroke="none" stroke-linecap="round" d="M 16.539 16.6287 L 18.632 16.6788 L 23.6147 21.326 L 21.352 21.2718 L 16.539 16.6287 Z " stroke-width="1.1316635947595122"/>
      <path id="ID0.8609093781560659" fill="#F2BD4C" stroke="none" d="M 14.5483 6.391 L 23.9762 6.6166 L 23.7336 16.7515 L 14.3058 16.5259 L 14.5483 6.391 Z " stroke-width="0.9128193890189372"/>
      <path id="ID0.8326035565696657" fill="#EDB94B" stroke="none" stroke-linecap="round" d="M 16.969 4.3336 L 25.4496 4.6308 L 24.1247 6.6744 L 14.6993 6.4489 L 16.969 4.3336 Z " stroke-width="1.0294764887246304"/>
      <path id="ID0.8326035565696657" fill="#C69B3E" stroke="none" stroke-linecap="round" d="M 24.7644 17.1636 L 25.1311 4.2467 L 23.7133 6.2642 L 23.3028 20.9553 L 24.7644 17.1636 Z " stroke-width="1.0294764769320606"/>
    </g>
    <path id="ID0.20703006582334638" fill="url(#grad_6-.173354983329773,0.02808029018342495,-0.02808029018342495,1.173354983329773,-201.75,-180.05)" stroke="none" d="M 11.2822 9.8401 C 11.8281 9.8414 12.4447 10.0745 12.7808 10.504 C 13.2136 11.0615 13.4834 11.9027 13.3576 12.6487 C 13.3033 13.0031 12.6761 12.9177 12.3476 13.1528 C 11.939 13.4483 11.6889 14.088 11.1797 14.1228 C 10.6341 14.1591 10.059 13.8565 9.6811 13.4588 C 9.302 13.0623 8.9653 12.4614 9.0896 11.9302 C 9.236 11.3056 9.8711 10.9134 10.2987 10.4622 C 10.6088 10.2114 10.9065 9.8393 11.2822 9.8401 Z " stroke-width="1.173690938706437"/>
    <path id="ID0.20703006582334638" fill="url(#grad_7-.173354983329773,0.02808029018342495,-0.02808029018342495,1.173354983329773,-203.1,-178.45)" stroke="none" d="M 9.9322 11.4401 C 10.4777 11.4097 11.0529 11.7064 11.4308 12.104 C 11.8099 12.5005 12.0963 13.092 12.0223 13.6327 C 11.9554 14.1206 11.493 14.4606 11.1722 14.8157 C 10.7529 15.1649 10.3523 15.6649 9.8297 15.7228 C 9.287 15.7838 8.709 15.4565 8.3311 15.0588 C 7.952 14.6623 7.6375 14.0666 7.7396 13.5302 C 7.8469 12.968 8.4828 12.6416 8.8858 12.2368 C 9.2157 11.943 9.4867 11.4634 9.9322 11.4401 Z " stroke-width="1.173690938706437"/>
    <path id="ID0.20703006582334638" fill="url(#grad_8-.3180150985717773,0.03154224157333374,-0.03154224157333374,1.3180150985717773,-230.65,-200.2)" stroke="none" d="M 8.6464 13.1011 C 9.2742 13.0977 9.8361 13.5885 10.2389 14.0624 C 10.6543 14.4469 11.0554 14.9919 10.9942 15.5641 C 10.9313 16.1547 10.436 16.6282 9.9702 17.0232 C 9.5938 17.4309 9.1 17.9519 8.5313 17.9119 C 7.902 17.8665 7.4899 17.1775 7.0769 16.6902 C 6.6987 16.3475 6.1258 15.983 6.1835 15.449 C 6.2467 14.8452 6.8672 14.4327 7.2734 13.9914 C 7.6985 13.6403 8.103 13.104 8.6464 13.1011 Z " stroke-width="1.3183924730772103"/>
    <path id="ID0.20703006582334638" fill="url(#grad_9-.4447875022888184,-0.3170790374279022,0.3170790374279022,1.4447875022888184,-311.45,-154)" stroke="none" d="M 6.2135 14.6469 C 6.8968 14.4757 7.64 14.8608 8.2053 15.2698 C 8.7606 15.578 9.343 16.0651 9.4289 16.7049 C 9.5178 17.3654 9.1043 18.0134 8.702 18.5681 C 8.4006 19.1128 8.0013 19.8123 7.3708 19.9204 C 6.6729 20.0387 6.0401 19.3977 5.4601 18.9768 C 4.9565 18.7041 4.235 18.4597 4.1554 17.8623 C 4.0633 17.1874 4.6295 16.5725 4.9545 15.9832 C 5.3242 15.4872 5.622 14.7949 6.2135 14.6469 Z " stroke-width="1.479172080167202"/>
    <path id="ID0.20703006582334638" fill="url(#grad_10-.2366878986358643,-0.8115127682685852,0.8115127682685852,1.2366878986358643,-352.95,-26.15)" stroke="none" d="M 3.9713 18.1111 C 4.5486 17.7075 5.3803 17.8022 6.0543 17.9826 C 6.683 18.0726 7.4008 18.3198 7.7093 18.887 C 8.0279 19.4723 7.8726 20.2252 7.6947 20.8869 C 7.6073 21.5033 7.4838 22.2991 6.9333 22.625 C 6.3235 22.9844 5.5037 22.6113 4.8117 22.4249 C 4.244 22.3498 3.4828 22.3787 3.1953 21.849 C 2.8686 21.2514 3.1783 20.475 3.2717 19.8086 C 3.4402 19.2133 3.4715 18.4603 3.9713 18.1111 Z " stroke-width="1.4791720426290285"/>
    <path id="ID0.20703006582334638" fill="url(#grad_11-.23802368342876434,-1.7687091827392578,1.7687091827392578,0.23802368342876434,-319.7,316.85)" stroke="none" d="M 2.8066 26.5289 C 2.8951 25.6837 3.6389 25.0004 4.3362 24.5288 C 4.9152 24.0269 5.708 23.5682 6.4689 23.7354 C 7.2542 23.9077 7.8177 24.6444 8.2801 25.3297 C 8.7729 25.8966 9.4006 26.6384 9.2624 27.3977 C 9.1079 28.2377 8.1197 28.6899 7.4027 29.1733 C 6.8855 29.6313 6.3101 30.348 5.6001 30.1912 C 4.797 30.0165 4.3342 29.1205 3.8007 28.5084 C 3.3913 27.8843 2.7297 27.2605 2.8066 26.5289 Z " stroke-width="1.7846533128255386"/>
    <path id="ID0.20703006582334638" fill="url(#grad_12-1.1195762157440186,-1.389797329902649,1.389797329902649,-1.1195762157440186,-6.4,464.6)" stroke="none" d="M 4.8686 30.8145 C 4.3163 30.1686 4.3324 29.1588 4.47 28.3283 C 4.5042 27.5628 4.7169 26.6719 5.3618 26.2349 C 6.0272 25.7836 6.9496 25.8817 7.765 26.0177 C 8.5154 26.0503 9.4855 26.1053 9.9414 26.7281 C 10.4446 27.4181 10.0927 28.4464 9.9501 29.2992 C 9.9265 29.9897 10.0506 30.9004 9.4482 31.3077 C 8.7689 31.7701 7.8002 31.4894 6.9891 31.4554 C 6.2545 31.3229 5.3466 31.3737 4.8686 30.8145 Z " stroke-width="1.7846533335816874"/>
    <path id="ID0.20703006582334638" fill="url(#grad_13-1.1195762157440186,-1.389797329902649,1.389797329902649,-1.1195762157440186,-4,464.95)" stroke="none" d="M 7.2686 31.1645 C 6.7163 30.5186 6.7324 29.5088 6.87 28.6783 C 6.9042 27.9128 7.1169 27.0219 7.7618 26.5849 C 8.4272 26.1336 9.3496 26.2317 10.165 26.3677 C 10.9154 26.4003 11.8855 26.4553 12.3414 27.0781 C 12.8446 27.7681 12.4927 28.7964 12.3501 29.6492 C 12.3265 30.3397 12.4506 31.2504 11.8482 31.6577 C 11.1689 32.1201 10.2002 31.8394 9.3891 31.8054 C 8.6545 31.6729 7.7466 31.7237 7.2686 31.1645 Z " stroke-width="1.7846533335816874"/>
    <path id="ID0.20703006582334638" fill="url(#grad_14-.3059983253479004,1.4201346635818481,-1.5034576654434204,1.3816542625427246,10.2,-453.65)" stroke="none" d="M 15.5899 27.0088 C 16.2326 27.6655 16.2565 28.7834 16.1373 29.7157 C 16.1309 30.5653 15.9306 31.5722 15.2295 32.1221 C 14.5062 32.6899 13.4736 32.6772 12.5587 32.6114 C 11.7205 32.6532 10.6364 32.693 10.1023 32.0519 C 9.5126 31.3413 9.8624 30.1682 9.9861 29.2107 C 9.9839 28.4451 9.8078 27.4513 10.4626 26.9386 C 11.2011 26.357 12.2929 26.5668 13.1988 26.5204 C 14.0235 26.5905 15.0338 26.4403 15.5899 27.0088 Z " stroke-width="1.98642480745169"/>
    <g id="ID0.10950249573215842">
      <path id="ID0.6494581247679889" fill="none" stroke="url(#grad_15)" stroke-width="5.314827162115559" d="M 17.5578 43.3453 L 23.5087 43.4877 L 23.4108 47.579 L 17.4599 47.4365 L 17.5578 43.3453 Z "/>
      <path id="ID0.11857579834759235" fill="#4F4F4F" stroke="none" d="M 17.407 34.4739 L 24.1538 34.6353 L 23.8309 48.1289 L 17.0841 47.9675 L 17.407 34.4739 Z " stroke-width="1.173690938706437"/>
      <path id="ID0.4165389509871602" fill="none" stroke="url(#grad_16)" stroke-width="2.347381877412874" stroke-linecap="round" d="M 16.1696 36.0825 L 15.9099 46.936 L 24.8846 47.2095 L 25.2044 36.2987 "/>
      <path id="ID0.8643447342328727" fill="#F3E066" stroke="none" d="M 14.8809 31.062 L 26.6145 31.3428 L 26.4811 36.9163 L 14.7475 36.6355 L 14.8809 31.062 Z " stroke-width="1.173690938706437"/>
      <path id="ID0.3959999615326524" fill="#000000" stroke="none" stroke-linecap="round" d="M 14.7967 34.5821 L 14.9031 32.5888 L 19.8502 36.8163 L 17.5035 36.7601 L 14.7967 34.5821 Z " stroke-width="1.173690938706437"/>
      <path id="ID0.3959999615326524" fill="#000000" stroke="none" stroke-linecap="round" d="M 17.6341 31.1235 L 20.239 31.1858 L 26.4403 36.9695 L 23.6242 36.9021 L 17.6341 31.1235 Z " stroke-width="1.408429126483375"/>
      <path id="ID0.6601373604498804" fill="url(#grad_17-.0706188678741455,0.025621647015213966,-0.025621647015213966,1.0706188678741455,-187.15,-158.95)" stroke="url(#grad_18)" stroke-width="2.141850815574128" stroke-linecap="round" d="M 25.4931 31.1407 L 15.9685 30.752 L 16.1504 23.1506 L 20.8578 18.9248 L 25.6827 23.2181 L 25.4931 31.1407 Z "/>
      <path id="ID0.811193433124572" fill="url(#grad_19-.7271495461463928,0.017401868477463722,-0.017401868477463722,0.7271495461463928,-109.05,-99.2)" stroke="none" d="M 20.7533 22.9362 C 21.1096 22.9447 21.4283 23.0971 21.6568 23.3362 C 21.8846 23.5759 22.0216 23.9015 22.0131 24.2578 C 22.0046 24.6141 21.8522 24.9327 21.6132 25.1613 C 21.3734 25.3891 21.0478 25.5261 20.6915 25.5176 C 20.3352 25.5091 20.0166 25.3566 19.788 25.1176 C 19.5602 24.8779 19.4232 24.5523 19.4317 24.196 C 19.4403 23.8397 19.5927 23.521 19.8317 23.2925 C 20.0714 23.0647 20.397 22.9277 20.7533 22.9362 Z " stroke-width="0.7273577438148383"/>
      <path id="ID0.811193433124572" fill="url(#grad_20-.7271495461463928,0.017401868477463722,-0.017401868477463722,0.7271495461463928,-111.85,-96.15)" stroke="none" d="M 17.9533 25.9862 C 18.3096 25.9947 18.6283 26.1471 18.8568 26.3862 C 19.0846 26.6259 19.2216 26.9515 19.2131 27.3078 C 19.2046 27.6641 19.0522 27.9827 18.8132 28.2113 C 18.5734 28.4391 18.2478 28.5761 17.8915 28.5676 C 17.5352 28.5591 17.2166 28.4066 16.988 28.1676 C 16.7602 27.9279 16.6232 27.6023 16.6317 27.246 C 16.6403 26.8897 16.7927 26.571 17.0317 26.3425 C 17.2714 26.1147 17.597 25.9777 17.9533 25.9862 Z " stroke-width="0.7273577438148383"/>
      <path id="ID0.811193433124572" fill="url(#grad_21-.7271495461463928,0.017401868477463722,-0.017401868477463722,0.7271495461463928,-106.25,-95.85)" stroke="none" d="M 23.5533 26.2862 C 23.9096 26.2947 24.2283 26.4471 24.4568 26.6862 C 24.6846 26.9259 24.8216 27.2515 24.8131 27.6078 C 24.8046 27.9641 24.6522 28.2827 24.4132 28.5113 C 24.1734 28.7391 23.8478 28.8761 23.4915 28.8676 C 23.1352 28.8591 22.8166 28.7066 22.588 28.4676 C 22.3602 28.2279 22.2232 27.9023 22.2317 27.546 C 22.2403 27.1897 22.3927 26.871 22.6317 26.6425 C 22.8714 26.4147 23.197 26.2777 23.5533 26.2862 Z " stroke-width="0.7273577438148383"/>
    </g>
  </g>
  <path id="ID0.7804789403453469" fill="#876A52" stroke="none" d="M 43.7 30.15 L 48.45 30.15 L 48.45 31.85 L 43.7 31.85 L 43.7 30.15 Z " stroke-width="1"/>
  <path id="ID0.8947033081203699" fill="#876A52" stroke="none" d="M 45.75 30.8 L 45.75 30.8 L 45.75 31.25 L 45.75 31.25 L 45.75 30.8 Z " stroke-width="1"/>
</svg>