<svg xmlns="http://www.w3.org/2000/svg" xmlns:xlink="http://www.w3.org/1999/xlink" version="1.1" width="10.72513484954834" height="7.355895042419434" viewBox="0.431316614151001 0.6077052354812622 10.72513484954834 7.355895042419434">
  <defs>
    <radialGradient id="grad_1" cx="0.4954" cy="0.8208" r="1.06704">
      <stop offset="0" stop-color="#FFF3D0" stop-opacity="1"/>
      <stop offset="1" stop-color="#FFE84E" stop-opacity="1"/>
    </radialGradient>
    <radialGradient id="grad_2" cx="0.541" cy="0.8583" r="1.1157899999999998">
      <stop offset="0" stop-color="#FFF3D0" stop-opacity="1"/>
      <stop offset="1" stop-color="#FFE84E" stop-opacity="1"/>
    </radialGradient>
  <radialGradient id="grad_1-.48629528284072876,0,0,0.48629528284072876,-111.75,-81.65" cx="5.7492" cy="6.3246" r="8.7658" gradientUnits="userSpaceOnUse">
      <stop offset="0" stop-color="#FFF3D0" stop-opacity="1"/>
      <stop offset="1" stop-color="#FFE84E" stop-opacity="1"/>
    </radialGradient></defs>
  <!-- Exported by Scratch - http://scratch.mit.edu/ -->
  <path id="ID0.4720354382880032" fill="url(#grad_1-.48629528284072876,0,0,0.48629528284072876,-111.75,-81.65)" stroke="url(#grad_2)" stroke-width="0.9725905656814575" stroke-linecap="round" d="M 4.9852 7.4636 C 4.122 7.3683 3.554 6.6476 2.9914 6.1992 C 2.2289 5.5914 0.7539 4.3037 0.9489 4.1325 C 1.0841 3.9647 3.5166 5.7358 3.964 5.2023 C 4.4527 4.6164 2.737 2.6921 2.8212 1.7496 C 2.8586 1.3791 3.7519 2.3308 4.2071 2.5763 C 4.5076 2.7373 4.833 3.3432 5.0824 3.1113 C 5.6125 2.6196 5.4656 1.257 5.8848 1.1175 C 6.1465 0.9896 6.11 2.1489 6.4441 2.5763 C 6.7996 3.031 7.2358 3.6282 7.83 3.6219 C 8.327 3.563 8.7107 2.1314 8.8755 2.4305 C 9.1503 2.9245 8.1675 4.3416 8.6081 5.1294 C 8.9572 5.7504 11.0892 5.3609 10.5776 5.64 C 9.2048 6.455 6.8569 7.1752 4.8393 7.3177 Z "/>
</svg>