<svg xmlns="http://www.w3.org/2000/svg" xmlns:xlink="http://www.w3.org/1999/xlink" version="1.1" width="10.02760124206543" height="8.501441955566406" viewBox="0.2237149477005005 0.46215832233428955 10.02760124206543 8.501441955566406">
  <defs>
    <radialGradient id="grad_1" cx="0.4954" cy="0.8208" r="1.06704">
      <stop offset="0" stop-color="#FFF3D0" stop-opacity="1"/>
      <stop offset="1" stop-color="#FFE84E" stop-opacity="1"/>
    </radialGradient>
    <radialGradient id="grad_2" cx="0.541" cy="0.8583" r="1.1157899999999998">
      <stop offset="0" stop-color="#FFF3D0" stop-opacity="1"/>
      <stop offset="1" stop-color="#FFE84E" stop-opacity="1"/>
    </radialGradient>
  <radialGradient id="grad_1-.48629528284072876,0,0,0.48629528284072876,-112.75,-80.65" cx="5.196" cy="7.1193" r="8.8561" gradientUnits="userSpaceOnUse">
      <stop offset="0" stop-color="#FFF3D0" stop-opacity="1"/>
      <stop offset="1" stop-color="#FFE84E" stop-opacity="1"/>
    </radialGradient></defs>
  <!-- Exported by Scratch - http://scratch.mit.edu/ -->
  <path id="ID0.4720354382880032" fill="url(#grad_1-.48629528284072876,0,0,0.48629528284072876,-112.75,-80.65)" stroke="url(#grad_2)" stroke-width="0.9725905656814575" stroke-linecap="round" d="M 3.9852 8.4636 C 3.1152 8.2681 2.5696 7.6389 1.9914 7.1992 C 1.5333 6.8306 0.5466 6.1323 0.7513 5.9106 C 0.9813 5.6625 2.2754 6.4576 2.964 6.2023 C 3.3476 6.0676 3.2956 5.4009 3.1585 5.0352 C 2.8215 4.137 1.4715 2.7414 1.651 2.5794 C 1.8324 2.416 3.1254 4.0432 4.0824 4.1113 C 4.7102 4.155 5.0361 3.2651 5.3954 2.7496 C 5.7718 2.2128 6.2153 0.7087 6.3923 0.999 C 6.6282 1.3866 5.5895 3.4514 6.3437 4.2085 C 7.1267 4.9944 9.3597 3.8209 9.7235 4.3301 C 10.0133 4.7381 7.9509 5.2565 7.6081 6.1294 C 7.4345 6.5744 9.0154 6.9892 8.5807 7.2479 C 7.1894 8.0746 5.4572 8.3362 3.8393 8.3177 Z "/>
</svg>