<svg xmlns="http://www.w3.org/2000/svg" xmlns:xlink="http://www.w3.org/1999/xlink" version="1.1" width="427.9809044746745" height="18.320073023258487" viewBox="0.38454621294198366 0.3007133529490027 427.9809044746745 18.320073023258487">
  <defs>
    <linearGradient id="grad_1" y2="1" x2="0">
      <stop offset="0" stop-color="#7F7F7F" stop-opacity="1"/>
      <stop offset="1" stop-color="#7F7F7F" stop-opacity="1"/>
    </linearGradient>
    <linearGradient id="grad_2" y2="1" x2="0">
      <stop offset="0" stop-color="#7F7F7F" stop-opacity="1"/>
      <stop offset="1" stop-color="#7F7F7F" stop-opacity="1"/>
    </linearGradient>
  </defs>
  <!-- Exported by Scratch - http://scratch.mit.edu/ -->
  <g id="ID0.7905531977303326">
    <g id="ID0.5061203637160361">
      <path id="ID0.8719925684854388" fill="#900415" stroke="none" d="M 16.5526 1.6798 C 18.1594 1.6798 19.6158 2.5371 20.6711 3.9226 C 21.7255 5.3093 22.3779 7.2229 22.3779 9.3343 C 22.3779 11.4456 21.7255 13.3593 20.6711 14.746 C 19.6158 16.1314 18.1594 16.9887 16.5526 16.9887 C 14.9458 16.9887 13.4895 16.1314 12.4342 14.746 C 11.3798 13.3593 10.7274 11.4456 10.7274 9.3343 C 10.7274 7.2229 11.3798 5.3093 12.4342 3.9226 C 13.4895 2.5371 14.9458 1.6798 16.5526 1.6798 Z " stroke-width="1.1336046508666302"/>
      <path id="ID0.7973887519910932" fill="#900415" stroke="none" d="M 16.6664 2.3235 C 18.2066 2.3235 19.6025 3.038 20.6125 4.1923 C 21.6237 5.3481 22.2489 6.9424 22.2489 8.7023 C 22.2489 10.4621 21.6237 12.0564 20.6125 13.2122 C 19.6025 14.3666 18.2066 15.081 16.6664 15.081 C 15.1262 15.081 13.7303 14.3666 12.7202 13.2122 C 11.7091 12.0564 11.0838 10.4621 11.0838 8.7023 C 11.0838 6.9424 11.7091 5.3481 12.7202 4.1923 C 13.7303 3.038 15.1262 2.3235 16.6664 2.3235 Z " stroke-width="1.2675718213124707"/>
      <path id="ID0.7973887519910932" fill="#B4051A" stroke="none" d="M 16.6813 1.673 C 17.9871 1.673 19.1706 2.3339 20.0269 3.4017 C 20.8842 4.4707 21.4143 5.9455 21.4143 7.5733 C 21.4143 9.2012 20.8842 10.6759 20.0269 11.745 C 19.1706 12.8128 17.9871 13.4736 16.6813 13.4736 C 15.3755 13.4736 14.192 12.8128 13.3356 11.745 C 12.4784 10.6759 11.9483 9.2012 11.9483 7.5733 C 11.9483 5.9455 12.4784 4.4707 13.3356 3.4017 C 14.192 2.3339 15.3755 1.673 16.6813 1.673 Z " stroke-width="1.1336046508666302"/>
      <path id="ID0.3765376480296254" fill="#D84545" stroke="none" d="M 17.6419 2.278 C 18.3448 2.278 18.9817 2.6352 19.4439 3.2131 C 19.905 3.7898 20.1905 4.5871 20.1905 5.4674 C 20.1905 6.3476 19.905 7.145 19.4439 7.7216 C 18.9817 8.2995 18.3448 8.6567 17.6419 8.6567 C 16.939 8.6567 16.3021 8.2995 15.84 7.7216 C 15.3788 7.145 15.0934 6.3476 15.0934 5.4674 C 15.0934 4.5871 15.3788 3.7898 15.84 3.2131 C 16.3021 2.6352 16.939 2.278 17.6419 2.278 Z " stroke-width="1.1336046508666302"/>
    </g>
    <path id="ID0.6058828267268836" fill="#7F7F7F" stroke="#666666" stroke-width="1.0171683441051405" stroke-linecap="round" d="M 5.7901 16.7571 L 12.5493 16.5515 C 14.8001 16.4833 14.0205 16.4671 14.168 15.8969 C 14.755 13.6294 14.5089 11.213 14.4225 8.8728 C 14.408 6.7792 14.3939 4.6374 13.8644 2.6117 C 13.7321 2.1051 13.3416 2.255 12.8081 2.2448 L 6.4015 2.5044 C 4.2333 2.5907 3.5421 4.242 2.6467 5.5533 C 1.8482 6.7238 1.4668 8.2113 1.4056 9.6468 C 1.3944 11.134 1.7351 12.7777 2.4811 14.168 C 3.1286 15.2498 5.1828 16.5033 5.4375 16.7032 L 5.7901 16.7571 Z "/>
    <path id="ID0.9674056498333812" fill="#666666" stroke="#666666" stroke-width="2.0415734199870044" stroke-linecap="round" d="M 12.9373 10.7299 C 12.1793 10.559 10.8854 11.3409 9.5779 11.4511 C 8.5927 11.5092 7.585 11.3534 6.6279 11.2423 C 5.7191 11.1342 4.833 11.0422 4.0143 10.9028 C 3.5591 10.7794 2.9832 10.2905 2.8772 10.4678 C 2.5753 11.0125 2.7438 11.8001 3.1307 12.4422 C 3.3613 12.8246 3.8012 13.1973 4.5994 13.3862 C 5.79 13.667 7.3975 13.8129 8.7561 13.684 C 10.3605 13.5308 11.5835 13.0729 12.7884 12.7013 C 13.1692 12.5395 13.2984 12.3117 13.3292 12.1456 C 13.4131 11.6857 14.0668 10.9346 13.2054 10.7586 Z "/>
    <path id="ID0.9674056498333812" fill="#909090" stroke="#909090" stroke-linecap="round" d="M 13.4426 4.2461 C 13.5827 6.5889 13.5902 8.933 13.5611 11.2878 C 13.5532 11.8767 13.418 11.7807 13.2755 11.2856 C 12.7054 9.306 13.805 6.796 11.7205 5.3613 C 10.3195 4.3308 7.6794 5.6732 5.6043 5.8599 C 4.8418 5.9281 3.7551 6.4077 3.3177 6.0761 C 2.8746 5.7398 3.3878 4.9532 3.8435 4.5241 C 4.5385 3.8703 5.4596 3.2183 6.597 2.9888 C 8.0903 2.6873 9.7205 2.8536 11.2822 2.8684 C 11.8865 2.8799 12.6501 2.8258 13.1083 3.1155 C 13.5154 3.3769 13.4082 3.6592 13.4426 4.2461 Z " stroke-width="0.9773622361329104"/>
    <path id="ID0.4307934483513236" fill="#404040" stroke="none" d="M 12.1018 7.2152 L 9.8505 7.2152 L 9.8505 11.4927 L 12.1018 11.4927 L 12.1018 7.2152 Z " stroke-width="1.1256544589996338"/>
    <path id="ID0.4307934483513236" fill="#404040" stroke="none" d="M 9.0018 7.3152 L 6.7505 7.3152 L 6.7505 11.5927 L 9.0018 11.5927 L 9.0018 7.3152 Z " stroke-width="1.1256544589996338"/>
    <path id="ID0.4307934483513236" fill="#404040" stroke="none" stroke-linecap="round" d="M 5.7518 7.3152 L 3.6694 8.6097 L 3.7257 10.5233 L 5.7518 11.5927 L 5.7518 7.3152 Z " stroke-width="1.1256544589996338"/>
    <g id="ID0.17177307419478893">
      <path id="ID0.7767012165859342" fill="#E5E5E5" stroke="url(#grad_1)" stroke-width="0.9448526938922124" stroke-linecap="round" d="M 17.0253 2.3605 L 15.7681 1.3215 L 13.3436 1.4204 L 13.1191 17.5 L 16.0375 17.5 L 16.9804 16.3126 L 17.0253 2.3605 Z "/>
      <path id="ID0.3737245574593544" fill="#CCCCCC" stroke="none" stroke-linecap="round" d="M 15.5673 4.5508 C 15.3703 4.2705 14.687 4.4371 14.6105 4.7196 C 14.3696 5.5504 14.884 6.5072 14.6668 7.3086 C 14.5925 7.5799 13.9013 6.9541 13.8225 7.2524 C 13.5152 8.432 13.6514 9.6917 13.6537 10.9107 C 13.6548 12.311 13.3835 13.8498 13.8225 15.2445 C 13.979 15.6993 14.7095 15.7679 15.2296 15.8073 C 15.6562 15.8388 16.2866 15.6858 16.4115 15.3008 C 16.8089 13.9511 16.6355 12.4788 16.6366 11.1359 C 16.6389 10.0023 16.6231 8.853 16.4228 7.7375 C 16.2258 6.6344 16.1031 5.4885 15.5673 4.5508 Z " stroke-width="1.1256544589996338"/>
      <path id="ID0.7302700718864799" fill="#B2B2B2" stroke="none" stroke-linecap="round" d="M 15.2044 8.6126 C 14.8431 8.5884 14.2758 8.1548 14.0788 8.4547 C 13.642 9.2523 13.7467 10.2277 13.7411 11.1379 C 13.7366 12.0155 13.5925 12.9436 13.9662 13.7159 C 14.1959 14.0758 14.851 13.9979 15.2607 13.979 C 15.6491 13.9653 16.1939 13.9432 16.3864 13.6107 C 16.7297 12.8605 16.6791 12.0092 16.6678 11.1379 C 16.6554 10.2404 16.6622 9.3386 16.2389 8.5715 C 16.0757 8.2727 15.5489 8.6147 15.2044 8.6126 Z " stroke-width="1.0895668347769794"/>
      <path id="ID0.7302700718864799" fill="#909090" stroke="none" stroke-linecap="round" d="M 15.0544 10.175 C 14.6931 10.1615 14.1258 9.9187 13.9288 10.0866 C 13.492 10.5333 13.5967 11.0795 13.5911 11.5892 C 13.5866 12.0807 13.4425 12.6004 13.8162 13.0329 C 14.0459 13.2344 14.701 13.1908 15.1107 13.1802 C 15.4991 13.1726 16.0439 13.1602 16.2364 12.974 C 16.5797 12.5538 16.5291 12.0771 16.5178 11.5892 C 16.5054 11.0866 16.5122 10.5816 16.0889 10.152 C 15.9257 9.9847 15.3989 10.1762 15.0544 10.175 Z " stroke-width="0.8984208812398597"/>
      <path id="ID0.7302700718864799" fill="#CCCCCC" stroke="none" stroke-linecap="round" d="M 15.2598 1.8695 C 14.9257 1.8626 14.4012 1.7383 14.2191 1.8243 C 13.8153 2.0529 13.9121 2.3324 13.9069 2.5933 C 13.9027 2.8448 13.7695 3.1108 14.115 3.3322 C 14.3273 3.4353 14.933 3.413 15.3118 3.4076 C 15.6709 3.4036 16.1746 3.3973 16.3525 3.302 C 16.6699 3.087 16.6231 2.843 16.6127 2.5933 C 16.6012 2.3361 16.6075 2.0776 16.2162 1.8578 C 16.0653 1.7721 15.5782 1.8701 15.2598 1.8695 Z " stroke-width="0.7661604270659502"/>
      <path id="ID0.7302700718864799" fill="#B2B2B2" stroke="none" stroke-linecap="round" d="M 14.9651 15.6547 C 14.6583 15.6483 14.1766 15.5342 14.0094 15.6131 C 13.6385 15.8231 13.7274 16.0798 13.7226 16.3194 C 13.7188 16.5503 13.5965 16.7946 13.9138 16.9979 C 14.1088 17.0926 14.665 17.0721 15.0129 17.0672 C 15.3426 17.0636 15.8052 17.0577 15.9686 16.9702 C 16.2601 16.7727 16.2171 16.5487 16.2076 16.3194 C 16.1971 16.0831 16.2028 15.8458 15.8434 15.6439 C 15.7048 15.5652 15.2576 15.6552 14.9651 15.6547 Z " stroke-width="0.7036167259064662"/>
    </g>
  </g>
  <g id="ID0.7905531977303326">
    <g id="ID0.5061203637160361">
      <path id="ID0.8719925684854388" fill="#900415" stroke="none" d="M 412.2474 1.7798 C 410.6406 1.7798 409.1842 2.6371 408.1289 4.0226 C 407.0745 5.4093 406.4221 7.3229 406.4221 9.4343 C 406.4221 11.5456 407.0745 13.4593 408.1289 14.846 C 409.1842 16.2314 410.6406 17.0887 412.2474 17.0887 C 413.8542 17.0887 415.3105 16.2314 416.3658 14.846 C 417.4202 13.4593 418.0726 11.5456 418.0726 9.4343 C 418.0726 7.3229 417.4202 5.4093 416.3658 4.0226 C 415.3105 2.6371 413.8542 1.7798 412.2474 1.7798 Z " stroke-width="1.1336046508666302"/>
      <path id="ID0.7973887519910932" fill="#900415" stroke="none" d="M 412.1336 2.4735 C 410.5934 2.4735 409.1975 3.188 408.1875 4.3423 C 407.1763 5.4981 406.5511 7.0924 406.5511 8.8523 C 406.5511 10.6121 407.1763 12.2064 408.1875 13.3622 C 409.1975 14.5166 410.5934 15.231 412.1336 15.231 C 413.6738 15.231 415.0697 14.5166 416.0798 13.3622 C 417.0909 12.2064 417.7162 10.6121 417.7162 8.8523 C 417.7162 7.0924 417.0909 5.4981 416.0798 4.3423 C 415.0697 3.188 413.6738 2.4735 412.1336 2.4735 Z " stroke-width="1.2675718213124707"/>
      <path id="ID0.7973887519910932" fill="#B4051A" stroke="none" d="M 412.1187 1.773 C 410.8129 1.773 409.6294 2.4339 408.7731 3.5017 C 407.9158 4.5707 407.3857 6.0455 407.3857 7.6733 C 407.3857 9.3012 407.9158 10.7759 408.7731 11.845 C 409.6294 12.9128 410.8129 13.5736 412.1187 13.5736 C 413.4245 13.5736 414.608 12.9128 415.4644 11.845 C 416.3216 10.7759 416.8517 9.3012 416.8517 7.6733 C 416.8517 6.0455 416.3216 4.5707 415.4644 3.5017 C 414.608 2.4339 413.4245 1.773 412.1187 1.773 Z " stroke-width="1.1336046508666302"/>
      <path id="ID0.3765376480296254" fill="#D84545" stroke="none" d="M 411.1581 2.378 C 410.4552 2.378 409.8183 2.7352 409.3561 3.3131 C 408.895 3.8898 408.6095 4.6871 408.6095 5.5674 C 408.6095 6.4476 408.895 7.245 409.3561 7.8216 C 409.8183 8.3995 410.4552 8.7567 411.1581 8.7567 C 411.861 8.7567 412.4979 8.3995 412.96 7.8216 C 413.4212 7.245 413.7066 6.4476 413.7066 5.5674 C 413.7066 4.6871 413.4212 3.8898 412.96 3.3131 C 412.4979 2.7352 411.861 2.378 411.1581 2.378 Z " stroke-width="1.1336046508666302"/>
    </g>
    <path id="ID0.6058828267268836" fill="#7F7F7F" stroke="#666666" stroke-width="1.0171683441051405" stroke-linecap="round" d="M 422.9599 16.8571 L 416.2007 16.6515 C 413.9499 16.5833 414.7295 16.5671 414.582 15.9969 C 413.995 13.7294 414.2411 11.313 414.3275 8.9728 C 414.342 6.8792 414.3561 4.7374 414.8856 2.7117 C 415.0179 2.2051 415.4084 2.355 415.9419 2.3448 L 422.3485 2.6044 C 424.5167 2.6907 425.2079 4.342 426.1033 5.6533 C 426.9018 6.8238 427.2832 8.3113 427.3444 9.7468 C 427.3556 11.234 427.0149 12.8777 426.2689 14.268 C 425.6214 15.3498 423.5672 16.6033 423.3125 16.8032 L 422.9599 16.8571 Z "/>
    <path id="ID0.9674056498333812" fill="#666666" stroke="#666666" stroke-width="2.0415734199870044" stroke-linecap="round" d="M 415.8127 10.8299 C 416.5707 10.659 417.8646 11.4409 419.1721 11.5511 C 420.1573 11.6092 421.165 11.4534 422.1221 11.3423 C 423.0309 11.2342 423.917 11.1422 424.7357 11.0028 C 425.1909 10.8794 425.7668 10.3905 425.8728 10.5678 C 426.1747 11.1125 426.0062 11.9001 425.6193 12.5422 C 425.3887 12.9246 424.9488 13.2973 424.1506 13.4862 C 422.96 13.767 421.3525 13.9129 419.9939 13.784 C 418.3895 13.6308 417.1665 13.1729 415.9616 12.8013 C 415.5808 12.6395 415.4516 12.4117 415.4208 12.2456 C 415.3369 11.7857 414.6832 11.0346 415.5446 10.8586 Z "/>
    <path id="ID0.9674056498333812" fill="#909090" stroke="#909090" stroke-linecap="round" d="M 415.3074 4.2961 C 415.1673 6.6389 415.1598 8.983 415.1889 11.3378 C 415.1968 11.9267 415.332 11.8307 415.4745 11.3356 C 416.0446 9.356 414.945 6.846 417.0295 5.4113 C 418.4305 4.3808 421.0706 5.7232 423.1457 5.9099 C 423.9082 5.9781 424.9949 6.4577 425.4323 6.1261 C 425.8754 5.7898 425.3622 5.0032 424.9065 4.5741 C 424.2115 3.9203 423.2904 3.2683 422.153 3.0388 C 420.6597 2.7373 419.0295 2.9036 417.4678 2.9184 C 416.8635 2.9299 416.0999 2.8758 415.6417 3.1655 C 415.2346 3.4269 415.3418 3.7092 415.3074 4.2961 Z " stroke-width="0.9773622361329104"/>
    <path id="ID0.4307934483513236" fill="#404040" stroke="none" d="M 416.6982 7.3152 L 418.9495 7.3152 L 418.9495 11.5927 L 416.6982 11.5927 L 416.6982 7.3152 Z " stroke-width="1.1256544589996338"/>
    <path id="ID0.4307934483513236" fill="#404040" stroke="none" d="M 419.7482 7.4152 L 421.9995 7.4152 L 421.9995 11.6927 L 419.7482 11.6927 L 419.7482 7.4152 Z " stroke-width="1.1256544589996338"/>
    <path id="ID0.4307934483513236" fill="#404040" stroke="none" stroke-linecap="round" d="M 422.9982 7.4152 L 425.0806 8.7097 L 425.0243 10.6233 L 422.9982 11.6927 L 422.9982 7.4152 Z " stroke-width="1.1256544589996338"/>
    <g id="ID0.17177307419478893">
      <path id="ID0.7767012165859342" fill="#E5E5E5" stroke="url(#grad_2)" stroke-width="0.9448526938922124" stroke-linecap="round" d="M 411.7747 2.4605 L 413.0319 1.4215 L 415.4564 1.5204 L 415.6809 17.6 L 412.7625 17.6 L 411.8196 16.4126 L 411.7747 2.4605 Z "/>
      <path id="ID0.3737245574593544" fill="#CCCCCC" stroke="none" stroke-linecap="round" d="M 413.1827 4.6508 C 413.3797 4.3705 414.063 4.5371 414.1395 4.8196 C 414.3804 5.6504 413.866 6.6072 414.0832 7.4086 C 414.1575 7.6799 414.8487 7.0541 414.9275 7.3524 C 415.2348 8.532 415.0986 9.7917 415.0963 11.0107 C 415.0952 12.411 415.3665 13.9498 414.9275 15.3445 C 414.771 15.7993 414.0405 15.8679 413.5204 15.9073 C 413.0938 15.9388 412.4634 15.7858 412.3385 15.4008 C 411.9411 14.0511 412.1145 12.5788 412.1134 11.2359 C 412.1111 10.1023 412.1269 8.953 412.3272 7.8375 C 412.5242 6.7344 412.6469 5.5885 413.1827 4.6508 Z " stroke-width="1.1256544589996338"/>
      <path id="ID0.7302700718864799" fill="#B2B2B2" stroke="none" stroke-linecap="round" d="M 413.5456 8.7126 C 413.9069 8.6884 414.4742 8.2548 414.6712 8.5547 C 415.108 9.3523 415.0033 10.3277 415.0089 11.2379 C 415.0134 12.1155 415.1575 13.0436 414.7838 13.8159 C 414.5541 14.1758 413.899 14.0979 413.4893 14.079 C 413.1009 14.0653 412.5561 14.0432 412.3636 13.7107 C 412.0203 12.9605 412.0709 12.1092 412.0822 11.2379 C 412.0946 10.3404 412.0878 9.4386 412.5111 8.6715 C 412.6743 8.3727 413.2011 8.7147 413.5456 8.7126 Z " stroke-width="1.0895668347769794"/>
      <path id="ID0.7302700718864799" fill="#909090" stroke="none" stroke-linecap="round" d="M 413.7456 10.275 C 414.1069 10.2615 414.6742 10.0187 414.8712 10.1866 C 415.308 10.6333 415.2033 11.1795 415.2089 11.6892 C 415.2134 12.1807 415.3575 12.7004 414.9838 13.1329 C 414.7541 13.3344 414.099 13.2908 413.6893 13.2802 C 413.3009 13.2726 412.7561 13.2602 412.5636 13.074 C 412.2203 12.6538 412.2709 12.1771 412.2822 11.6892 C 412.2946 11.1866 412.2878 10.6816 412.7111 10.252 C 412.8743 10.0847 413.4011 10.2762 413.7456 10.275 Z " stroke-width="0.8984208812398597"/>
      <path id="ID0.7302700718864799" fill="#CCCCCC" stroke="none" stroke-linecap="round" d="M 413.5402 1.9695 C 413.8743 1.9626 414.3988 1.8383 414.5809 1.9243 C 414.9847 2.1529 414.8879 2.4324 414.8931 2.6933 C 414.8973 2.9448 415.0305 3.2108 414.685 3.4322 C 414.4727 3.5353 413.867 3.513 413.4882 3.5076 C 413.1291 3.5036 412.6254 3.4973 412.4475 3.402 C 412.1301 3.187 412.1769 2.943 412.1873 2.6933 C 412.1988 2.4361 412.1925 2.1776 412.5838 1.9578 C 412.7347 1.8721 413.2218 1.9701 413.5402 1.9695 Z " stroke-width="0.7661604270659502"/>
      <path id="ID0.7302700718864799" fill="#B2B2B2" stroke="none" stroke-linecap="round" d="M 413.7849 15.7547 C 414.0917 15.7483 414.5734 15.6342 414.7406 15.7131 C 415.1115 15.9231 415.0226 16.1798 415.0274 16.4194 C 415.0312 16.6503 415.1535 16.8946 414.8362 17.0979 C 414.6412 17.1926 414.085 17.1721 413.7371 17.1672 C 413.4074 17.1636 412.9448 17.1577 412.7814 17.0702 C 412.4899 16.8727 412.5329 16.6487 412.5424 16.4194 C 412.5529 16.1831 412.5472 15.9458 412.9066 15.7439 C 413.0452 15.6652 413.4924 15.7552 413.7849 15.7547 Z " stroke-width="0.7036167259064662"/>
    </g>
  </g>
</svg>