<svg xmlns="http://www.w3.org/2000/svg" xmlns:xlink="http://www.w3.org/1999/xlink" version="1.1" width="427.9809044746745" height="56.19157494586591" viewBox="0.38454621294198366 0.4792132900064978 427.9809044746745 56.19157494586591">
  <defs>
    <linearGradient id="grad_1" y2="1" x2="0">
      <stop offset="0" stop-color="#7F7F7F" stop-opacity="1"/>
      <stop offset="1" stop-color="#7F7F7F" stop-opacity="1"/>
    </linearGradient>
    <linearGradient id="grad_2" y2="1" x2="0">
      <stop offset="0" stop-color="#7F7F7F" stop-opacity="1"/>
      <stop offset="1" stop-color="#7F7F7F" stop-opacity="1"/>
    </linearGradient>
    <linearGradient id="grad_3" x2="1">
      <stop offset="0" stop-color="#FFFFFF" stop-opacity="0"/>
      <stop offset="1" stop-color="#FFFFFF" stop-opacity="1"/>
    </linearGradient>
    <linearGradient id="grad_4" x2="1">
      <stop offset="0" stop-color="#FFFFFF" stop-opacity="0"/>
      <stop offset="1" stop-color="#FFFFFF" stop-opacity="1"/>
    </linearGradient>
  <linearGradient id="grad_3-.8370044231414795,0,0,0.9855573177337646,-17.4,-153.85" x2="27.0449" x1="8.0031" y1="19.7559" y2="19.7559" gradientUnits="userSpaceOnUse">
      <stop offset="0" stop-color="#FFFFFF" stop-opacity="0"/>
      <stop offset="1" stop-color="#FFFFFF" stop-opacity="1"/>
    </linearGradient><linearGradient id="grad_4-0.8370044231414795,0,0,0.9855573773384094,445.3,-153.5" x2="400.8551" x1="419.8969" y1="20.1059" y2="20.1059" gradientUnits="userSpaceOnUse">
      <stop offset="0" stop-color="#FFFFFF" stop-opacity="0"/>
      <stop offset="1" stop-color="#FFFFFF" stop-opacity="1"/>
    </linearGradient></defs>
  <!-- Exported by Scratch - http://scratch.mit.edu/ -->
  <g id="ID0.15166667848825455">
    <path id="ID0.6103713866323233" fill="#FFFF99" stroke="#F6550C" stroke-width="1" stroke-linecap="round" d="M 399.2 22.55 L 399.2 33.95 L 393.1 42.8 L 403.2 38.95 L 402.2 51.05 L 409.7 41.65 L 411.2 55.65 L 416 41.95 L 421 51.55 L 420.4 40.45 L 425.2 42.05 L 421.2 29.8 L 425 15.55 L 420.8 16.85 L 421.4 5.75 L 416.4 15.35 L 411.6 1.65 L 410.1 15.65 L 402.6 6.25 L 403.6 18.35 L 393.1 16.8 L 399.2 22.55 Z "/>
    <path id="ID0.6103713866323233" fill="#FFFFFF" stroke="#FFFFFF" stroke-width="1.280425030151773" stroke-linecap="round" d="M 402.7188 24.6458 L 402.8186 31.5258 L 400.0583 36.7779 L 406.7761 34.4129 L 406.111 41.8458 L 411.0994 36.0715 L 412.0971 44.6715 L 415.2898 36.2558 L 418.6154 42.1529 L 418.2163 35.3343 L 421.8413 38.1601 L 420.3447 32.8772 L 420.6108 23.2329 L 421.8413 19.1479 L 418.4824 20.8372 L 418.8815 14.0186 L 415.5558 19.9158 L 412.3632 11.5 L 411.3655 20.1 L 406.377 14.3258 L 407.0422 21.7586 L 400.6902 20.4072 L 402.7188 24.6458 Z "/>
  </g>
  <g id="ID0.15166667848825455">
    <path id="ID0.6103713866323233" fill="#FFFF99" stroke="#F6550C" stroke-width="1" stroke-linecap="round" d="M 31.5 22.4 L 31.5 33.8 L 37.6 42.65 L 27.5 38.8 L 28.5 50.9 L 21 41.5 L 19.5 55.5 L 14.7 41.8 L 9.7 51.4 L 10.3 40.3 L 4 41.15 L 9.5 29.65 L 4.35 15.4 L 9.9 16.7 L 9.3 5.6 L 14.3 15.2 L 19.1 1.5 L 20.6 15.5 L 28.1 6.1 L 27.1 18.2 L 37.6 16.65 L 31.5 22.4 Z "/>
    <path id="ID0.6103713866323233" fill="#FFFFFF" stroke="#FFFFFF" stroke-width="1.280425030151773" stroke-linecap="round" d="M 27.9812 24.4958 L 27.8814 31.3758 L 30.6417 36.6279 L 23.9239 34.2629 L 24.589 41.6958 L 19.6006 35.9215 L 18.6029 44.5215 L 15.4102 36.1058 L 12.0846 42.0029 L 12.4837 35.1843 L 8.8587 38.0101 L 10.3553 32.7272 L 10.0892 23.0829 L 8.8587 18.9979 L 12.2176 20.6872 L 11.8185 13.8686 L 15.1442 19.7658 L 18.3368 11.35 L 19.3345 19.95 L 24.323 14.1758 L 23.6578 21.6086 L 30.0098 20.2572 L 27.9812 24.4958 Z "/>
  </g>
  <g id="ID0.7905531977303326">
    <g id="ID0.5061203637160361">
      <path id="ID0.8719925684854388" fill="#900415" stroke="none" d="M 16.5526 20.6798 C 18.1594 20.6798 19.6158 21.5371 20.6711 22.9226 C 21.7255 24.3093 22.3779 26.2229 22.3779 28.3343 C 22.3779 30.4456 21.7255 32.3593 20.6711 33.746 C 19.6158 35.1314 18.1594 35.9887 16.5526 35.9887 C 14.9458 35.9887 13.4895 35.1314 12.4342 33.746 C 11.3798 32.3593 10.7274 30.4456 10.7274 28.3343 C 10.7274 26.2229 11.3798 24.3093 12.4342 22.9226 C 13.4895 21.5371 14.9458 20.6798 16.5526 20.6798 Z " stroke-width="1.1336046508666302"/>
      <path id="ID0.7973887519910932" fill="#900415" stroke="none" d="M 16.6664 21.3235 C 18.2066 21.3235 19.6025 22.038 20.6125 23.1923 C 21.6237 24.3481 22.2489 25.9424 22.2489 27.7023 C 22.2489 29.4621 21.6237 31.0564 20.6125 32.2122 C 19.6025 33.3666 18.2066 34.081 16.6664 34.081 C 15.1262 34.081 13.7303 33.3666 12.7202 32.2122 C 11.7091 31.0564 11.0838 29.4621 11.0838 27.7023 C 11.0838 25.9424 11.7091 24.3481 12.7202 23.1923 C 13.7303 22.038 15.1262 21.3235 16.6664 21.3235 Z " stroke-width="1.2675718213124707"/>
      <path id="ID0.7973887519910932" fill="#B4051A" stroke="none" d="M 16.6813 20.673 C 17.9871 20.673 19.1706 21.3339 20.0269 22.4017 C 20.8842 23.4707 21.4143 24.9455 21.4143 26.5733 C 21.4143 28.2012 20.8842 29.6759 20.0269 30.745 C 19.1706 31.8128 17.9871 32.4736 16.6813 32.4736 C 15.3755 32.4736 14.192 31.8128 13.3356 30.745 C 12.4784 29.6759 11.9483 28.2012 11.9483 26.5733 C 11.9483 24.9455 12.4784 23.4707 13.3356 22.4017 C 14.192 21.3339 15.3755 20.673 16.6813 20.673 Z " stroke-width="1.1336046508666302"/>
      <path id="ID0.3765376480296254" fill="#D84545" stroke="none" d="M 17.6419 21.278 C 18.3448 21.278 18.9817 21.6352 19.4439 22.2131 C 19.905 22.7898 20.1905 23.5871 20.1905 24.4674 C 20.1905 25.3476 19.905 26.145 19.4439 26.7216 C 18.9817 27.2995 18.3448 27.6567 17.6419 27.6567 C 16.939 27.6567 16.3021 27.2995 15.84 26.7216 C 15.3788 26.145 15.0934 25.3476 15.0934 24.4674 C 15.0934 23.5871 15.3788 22.7898 15.84 22.2131 C 16.3021 21.6352 16.939 21.278 17.6419 21.278 Z " stroke-width="1.1336046508666302"/>
    </g>
    <path id="ID0.6058828267268836" fill="#7F7F7F" stroke="#666666" stroke-width="1.0171683441051405" stroke-linecap="round" d="M 5.7901 35.7571 L 12.5493 35.5515 C 14.8001 35.4833 14.0205 35.4671 14.168 34.8969 C 14.755 32.6294 14.5089 30.213 14.4225 27.8728 C 14.408 25.7792 14.3939 23.6374 13.8644 21.6117 C 13.7321 21.1051 13.3416 21.255 12.8081 21.2448 L 6.4015 21.5044 C 4.2333 21.5907 3.5421 23.242 2.6467 24.5533 C 1.8482 25.7238 1.4668 27.2113 1.4056 28.6468 C 1.3944 30.134 1.7351 31.7777 2.4811 33.168 C 3.1286 34.2498 5.1828 35.5033 5.4375 35.7032 L 5.7901 35.7571 Z "/>
    <path id="ID0.9674056498333812" fill="#666666" stroke="#666666" stroke-width="2.0415734199870044" stroke-linecap="round" d="M 12.9373 29.7299 C 12.1793 29.559 10.8854 30.3409 9.5779 30.4511 C 8.5927 30.5092 7.585 30.3534 6.6279 30.2423 C 5.7191 30.1342 4.833 30.0422 4.0143 29.9028 C 3.5591 29.7794 2.9832 29.2905 2.8772 29.4678 C 2.5753 30.0125 2.7438 30.8001 3.1307 31.4422 C 3.3613 31.8246 3.8012 32.1973 4.5994 32.3862 C 5.79 32.667 7.3975 32.8129 8.7561 32.684 C 10.3605 32.5308 11.5835 32.0729 12.7884 31.7013 C 13.1692 31.5395 13.2984 31.3117 13.3292 31.1456 C 13.4131 30.6857 14.0668 29.9346 13.2054 29.7586 Z "/>
    <path id="ID0.9674056498333812" fill="#909090" stroke="#909090" stroke-linecap="round" d="M 13.4426 23.2461 C 13.5827 25.5889 13.5902 27.933 13.5611 30.2878 C 13.5532 30.8767 13.418 30.7807 13.2755 30.2856 C 12.7054 28.306 13.805 25.796 11.7205 24.3613 C 10.3195 23.3308 7.6794 24.6732 5.6043 24.8599 C 4.8418 24.9281 3.7551 25.4077 3.3177 25.0761 C 2.8746 24.7398 3.3878 23.9532 3.8435 23.5241 C 4.5385 22.8703 5.4596 22.2183 6.597 21.9888 C 8.0903 21.6873 9.7205 21.8536 11.2822 21.8684 C 11.8865 21.8799 12.6501 21.8258 13.1083 22.1155 C 13.5154 22.3769 13.4082 22.6592 13.4426 23.2461 Z " stroke-width="0.9773622361329104"/>
    <path id="ID0.4307934483513236" fill="#404040" stroke="none" d="M 12.1018 26.2152 L 9.8505 26.2152 L 9.8505 30.4927 L 12.1018 30.4927 L 12.1018 26.2152 Z " stroke-width="1.1256544589996338"/>
    <path id="ID0.4307934483513236" fill="#404040" stroke="none" d="M 9.0018 26.3152 L 6.7505 26.3152 L 6.7505 30.5927 L 9.0018 30.5927 L 9.0018 26.3152 Z " stroke-width="1.1256544589996338"/>
    <path id="ID0.4307934483513236" fill="#404040" stroke="none" stroke-linecap="round" d="M 5.7518 26.3152 L 3.6694 27.6097 L 3.7257 29.5233 L 5.7518 30.5927 L 5.7518 26.3152 Z " stroke-width="1.1256544589996338"/>
    <g id="ID0.17177307419478893">
      <path id="ID0.7767012165859342" fill="#E5E5E5" stroke="url(#grad_1)" stroke-width="0.9448526938922124" stroke-linecap="round" d="M 17.0253 21.3605 L 15.7681 20.3215 L 13.3436 20.4204 L 13.1191 36.5 L 16.0375 36.5 L 16.9804 35.3126 L 17.0253 21.3605 Z "/>
      <path id="ID0.3737245574593544" fill="#CCCCCC" stroke="none" stroke-linecap="round" d="M 15.5673 23.5508 C 15.3703 23.2705 14.687 23.4371 14.6105 23.7196 C 14.3696 24.5504 14.884 25.5072 14.6668 26.3086 C 14.5925 26.5799 13.9013 25.9541 13.8225 26.2524 C 13.5152 27.432 13.6514 28.6917 13.6537 29.9107 C 13.6548 31.311 13.3835 32.8498 13.8225 34.2445 C 13.979 34.6993 14.7095 34.7679 15.2296 34.8073 C 15.6562 34.8388 16.2866 34.6858 16.4115 34.3008 C 16.8089 32.9511 16.6355 31.4788 16.6366 30.1359 C 16.6389 29.0023 16.6231 27.853 16.4228 26.7375 C 16.2258 25.6344 16.1031 24.4885 15.5673 23.5508 Z " stroke-width="1.1256544589996338"/>
      <path id="ID0.7302700718864799" fill="#B2B2B2" stroke="none" stroke-linecap="round" d="M 15.2044 27.6126 C 14.8431 27.5884 14.2758 27.1548 14.0788 27.4547 C 13.642 28.2523 13.7467 29.2277 13.7411 30.1379 C 13.7366 31.0155 13.5925 31.9436 13.9662 32.7159 C 14.1959 33.0758 14.851 32.9979 15.2607 32.979 C 15.6491 32.9653 16.1939 32.9432 16.3864 32.6107 C 16.7297 31.8605 16.6791 31.0092 16.6678 30.1379 C 16.6554 29.2404 16.6622 28.3386 16.2389 27.5715 C 16.0757 27.2727 15.5489 27.6147 15.2044 27.6126 Z " stroke-width="1.0895668347769794"/>
      <path id="ID0.7302700718864799" fill="#909090" stroke="none" stroke-linecap="round" d="M 15.0544 29.175 C 14.6931 29.1615 14.1258 28.9187 13.9288 29.0866 C 13.492 29.5333 13.5967 30.0795 13.5911 30.5892 C 13.5866 31.0807 13.4425 31.6004 13.8162 32.0329 C 14.0459 32.2344 14.701 32.1908 15.1107 32.1802 C 15.4991 32.1726 16.0439 32.1602 16.2364 31.974 C 16.5797 31.5538 16.5291 31.0771 16.5178 30.5892 C 16.5054 30.0866 16.5122 29.5816 16.0889 29.152 C 15.9257 28.9847 15.3989 29.1762 15.0544 29.175 Z " stroke-width="0.8984208812398597"/>
      <path id="ID0.7302700718864799" fill="#CCCCCC" stroke="none" stroke-linecap="round" d="M 15.2598 20.8695 C 14.9257 20.8626 14.4012 20.7383 14.2191 20.8243 C 13.8153 21.0529 13.9121 21.3324 13.9069 21.5933 C 13.9027 21.8448 13.7695 22.1108 14.115 22.3322 C 14.3273 22.4353 14.933 22.413 15.3118 22.4076 C 15.6709 22.4036 16.1746 22.3973 16.3525 22.302 C 16.6699 22.087 16.6231 21.843 16.6127 21.5933 C 16.6012 21.3361 16.6075 21.0776 16.2162 20.8578 C 16.0653 20.7721 15.5782 20.8701 15.2598 20.8695 Z " stroke-width="0.7661604270659502"/>
      <path id="ID0.7302700718864799" fill="#B2B2B2" stroke="none" stroke-linecap="round" d="M 14.9651 34.6547 C 14.6583 34.6483 14.1766 34.5342 14.0094 34.6131 C 13.6385 34.8231 13.7274 35.0798 13.7226 35.3194 C 13.7188 35.5503 13.5965 35.7946 13.9138 35.9979 C 14.1088 36.0926 14.665 36.0721 15.0129 36.0672 C 15.3426 36.0636 15.8052 36.0577 15.9686 35.9702 C 16.2601 35.7727 16.2171 35.5487 16.2076 35.3194 C 16.1971 35.0831 16.2028 34.8458 15.8434 34.6439 C 15.7048 34.5652 15.2576 34.6552 14.9651 34.6547 Z " stroke-width="0.7036167259064662"/>
    </g>
  </g>
  <g id="ID0.7905531977303326">
    <g id="ID0.5061203637160361">
      <path id="ID0.8719925684854388" fill="#900415" stroke="none" d="M 412.1974 20.8298 C 410.5906 20.8298 409.1342 21.6871 408.0789 23.0726 C 407.0245 24.4593 406.3721 26.3729 406.3721 28.4843 C 406.3721 30.5956 407.0245 32.5093 408.0789 33.896 C 409.1342 35.2814 410.5906 36.1387 412.1974 36.1387 C 413.8042 36.1387 415.2605 35.2814 416.3158 33.896 C 417.3702 32.5093 418.0226 30.5956 418.0226 28.4843 C 418.0226 26.3729 417.3702 24.4593 416.3158 23.0726 C 415.2605 21.6871 413.8042 20.8298 412.1974 20.8298 Z " stroke-width="1.1336046508666302"/>
      <path id="ID0.7973887519910932" fill="#900415" stroke="none" d="M 412.1336 21.4735 C 410.5934 21.4735 409.1975 22.188 408.1875 23.3423 C 407.1763 24.4981 406.5511 26.0924 406.5511 27.8523 C 406.5511 29.6121 407.1763 31.2064 408.1875 32.3622 C 409.1975 33.5166 410.5934 34.231 412.1336 34.231 C 413.6738 34.231 415.0697 33.5166 416.0798 32.3622 C 417.0909 31.2064 417.7162 29.6121 417.7162 27.8523 C 417.7162 26.0924 417.0909 24.4981 416.0798 23.3423 C 415.0697 22.188 413.6738 21.4735 412.1336 21.4735 Z " stroke-width="1.2675718213124707"/>
      <path id="ID0.7973887519910932" fill="#B4051A" stroke="none" d="M 412.0687 20.773 C 410.7629 20.773 409.5794 21.4339 408.7231 22.5017 C 407.8658 23.5707 407.3357 25.0455 407.3357 26.6733 C 407.3357 28.3012 407.8658 29.7759 408.7231 30.845 C 409.5794 31.9128 410.7629 32.5736 412.0687 32.5736 C 413.3745 32.5736 414.558 31.9128 415.4144 30.845 C 416.2716 29.7759 416.8017 28.3012 416.8017 26.6733 C 416.8017 25.0455 416.2716 23.5707 415.4144 22.5017 C 414.558 21.4339 413.3745 20.773 412.0687 20.773 Z " stroke-width="1.1336046508666302"/>
      <path id="ID0.3765376480296254" fill="#D84545" stroke="none" d="M 411.1581 21.378 C 410.4552 21.378 409.8183 21.7352 409.3561 22.3131 C 408.895 22.8898 408.6095 23.6871 408.6095 24.5674 C 408.6095 25.4476 408.895 26.245 409.3561 26.8216 C 409.8183 27.3995 410.4552 27.7567 411.1581 27.7567 C 411.861 27.7567 412.4979 27.3995 412.96 26.8216 C 413.4212 26.245 413.7066 25.4476 413.7066 24.5674 C 413.7066 23.6871 413.4212 22.8898 412.96 22.3131 C 412.4979 21.7352 411.861 21.378 411.1581 21.378 Z " stroke-width="1.1336046508666302"/>
    </g>
    <path id="ID0.6058828267268836" fill="#7F7F7F" stroke="#666666" stroke-width="1.0171683441051405" stroke-linecap="round" d="M 422.9599 35.8571 L 416.2007 35.6515 C 413.9499 35.5833 414.7295 35.5671 414.582 34.9969 C 413.995 32.7294 414.2411 30.313 414.3275 27.9728 C 414.342 25.8792 414.3561 23.7374 414.8856 21.7117 C 415.0179 21.2051 415.4084 21.355 415.9419 21.3448 L 422.3485 21.6044 C 424.5167 21.6907 425.2079 23.342 426.1033 24.6533 C 426.9018 25.8238 427.2832 27.3113 427.3444 28.7468 C 427.3556 30.234 427.0149 31.8777 426.2689 33.268 C 425.6214 34.3498 423.5672 35.6033 423.3125 35.8032 L 422.9599 35.8571 Z "/>
    <path id="ID0.9674056498333812" fill="#666666" stroke="#666666" stroke-width="2.0415734199870044" stroke-linecap="round" d="M 415.8127 29.8299 C 416.5707 29.659 417.8646 30.4409 419.1721 30.5511 C 420.1573 30.6092 421.165 30.4534 422.1221 30.3423 C 423.0309 30.2342 423.917 30.1422 424.7357 30.0028 C 425.1909 29.8794 425.7668 29.3905 425.8728 29.5678 C 426.1747 30.1125 426.0062 30.9001 425.6193 31.5422 C 425.3887 31.9246 424.9488 32.2973 424.1506 32.4862 C 422.96 32.767 421.3525 32.9129 419.9939 32.784 C 418.3895 32.6308 417.1665 32.1729 415.9616 31.8013 C 415.5808 31.6395 415.4516 31.4117 415.4208 31.2456 C 415.3369 30.7857 414.6832 30.0346 415.5446 29.8586 Z "/>
    <path id="ID0.9674056498333812" fill="#909090" stroke="#909090" stroke-linecap="round" d="M 415.3074 23.2961 C 415.1673 25.6389 415.1598 27.983 415.1889 30.3378 C 415.1968 30.9267 415.332 30.8307 415.4745 30.3356 C 416.0446 28.356 414.945 25.846 417.0295 24.4113 C 418.4305 23.3808 421.0706 24.7232 423.1457 24.9099 C 423.9082 24.9781 424.9949 25.4577 425.4323 25.1261 C 425.8754 24.7898 425.3622 24.0032 424.9065 23.5741 C 424.2115 22.9203 423.2904 22.2683 422.153 22.0388 C 420.6597 21.7373 419.0295 21.9036 417.4678 21.9184 C 416.8635 21.9299 416.0999 21.8758 415.6417 22.1655 C 415.2346 22.4269 415.3418 22.7092 415.3074 23.2961 Z " stroke-width="0.9773622361329104"/>
    <path id="ID0.4307934483513236" fill="#404040" stroke="none" d="M 416.6982 26.3652 L 418.9495 26.3652 L 418.9495 30.6427 L 416.6982 30.6427 L 416.6982 26.3652 Z " stroke-width="1.1256544589996338"/>
    <path id="ID0.4307934483513236" fill="#404040" stroke="none" d="M 419.7482 26.4152 L 421.9995 26.4152 L 421.9995 30.6927 L 419.7482 30.6927 L 419.7482 26.4152 Z " stroke-width="1.1256544589996338"/>
    <path id="ID0.4307934483513236" fill="#404040" stroke="none" stroke-linecap="round" d="M 422.9982 26.4152 L 425.0806 27.7097 L 425.0243 29.6233 L 422.9982 30.6927 L 422.9982 26.4152 Z " stroke-width="1.1256544589996338"/>
    <g id="ID0.17177307419478893">
      <path id="ID0.7767012165859342" fill="#E5E5E5" stroke="url(#grad_2)" stroke-width="0.9448526938922124" stroke-linecap="round" d="M 411.7747 21.4605 L 413.0319 20.4215 L 415.4564 20.5204 L 415.6809 36.6 L 412.7625 36.6 L 411.8196 35.4126 L 411.7747 21.4605 Z "/>
      <path id="ID0.3737245574593544" fill="#CCCCCC" stroke="none" stroke-linecap="round" d="M 413.1827 23.6508 C 413.3797 23.3705 414.063 23.5371 414.1395 23.8196 C 414.3804 24.6504 413.866 25.6072 414.0832 26.4086 C 414.1575 26.6799 414.8487 26.0541 414.9275 26.3524 C 415.2348 27.532 415.0986 28.7917 415.0963 30.0107 C 415.0952 31.411 415.3665 32.9498 414.9275 34.3445 C 414.771 34.7993 414.0405 34.8679 413.5204 34.9073 C 413.0938 34.9388 412.4634 34.7858 412.3385 34.4008 C 411.9411 33.0511 412.1145 31.5788 412.1134 30.2359 C 412.1111 29.1023 412.1269 27.953 412.3272 26.8375 C 412.5242 25.7344 412.6469 24.5885 413.1827 23.6508 Z " stroke-width="1.1256544589996338"/>
      <path id="ID0.7302700718864799" fill="#B2B2B2" stroke="none" stroke-linecap="round" d="M 413.5456 27.7126 C 413.9069 27.6884 414.4742 27.2548 414.6712 27.5547 C 415.108 28.3523 415.0033 29.3277 415.0089 30.2379 C 415.0134 31.1155 415.1575 32.0436 414.7838 32.8159 C 414.5541 33.1758 413.899 33.0979 413.4893 33.079 C 413.1009 33.0653 412.5561 33.0432 412.3636 32.7107 C 412.0203 31.9605 412.0709 31.1092 412.0822 30.2379 C 412.0946 29.3404 412.0878 28.4386 412.5111 27.6715 C 412.6743 27.3727 413.2011 27.7147 413.5456 27.7126 Z " stroke-width="1.0895668347769794"/>
      <path id="ID0.7302700718864799" fill="#909090" stroke="none" stroke-linecap="round" d="M 413.7456 29.325 C 414.1069 29.3115 414.6742 29.0687 414.8712 29.2366 C 415.308 29.6833 415.2033 30.2295 415.2089 30.7392 C 415.2134 31.2307 415.3575 31.7504 414.9838 32.1829 C 414.7541 32.3844 414.099 32.3408 413.6893 32.3302 C 413.3009 32.3226 412.7561 32.3102 412.5636 32.124 C 412.2203 31.7038 412.2709 31.2271 412.2822 30.7392 C 412.2946 30.2366 412.2878 29.7316 412.7111 29.302 C 412.8743 29.1347 413.4011 29.3262 413.7456 29.325 Z " stroke-width="0.8984208812398597"/>
      <path id="ID0.7302700718864799" fill="#CCCCCC" stroke="none" stroke-linecap="round" d="M 413.5402 20.9695 C 413.8743 20.9626 414.3988 20.8383 414.5809 20.9243 C 414.9847 21.1529 414.8879 21.4324 414.8931 21.6933 C 414.8973 21.9448 415.0305 22.2108 414.685 22.4322 C 414.4727 22.5353 413.867 22.513 413.4882 22.5076 C 413.1291 22.5036 412.6254 22.4973 412.4475 22.402 C 412.1301 22.187 412.1769 21.943 412.1873 21.6933 C 412.1988 21.4361 412.1925 21.1776 412.5838 20.9578 C 412.7347 20.8721 413.2218 20.9701 413.5402 20.9695 Z " stroke-width="0.7661604270659502"/>
      <path id="ID0.7302700718864799" fill="#B2B2B2" stroke="none" stroke-linecap="round" d="M 413.7849 34.7547 C 414.0917 34.7483 414.5734 34.6342 414.7406 34.7131 C 415.1115 34.9231 415.0226 35.1798 415.0274 35.4194 C 415.0312 35.6503 415.1535 35.8946 414.8362 36.0979 C 414.6412 36.1926 414.085 36.1721 413.7371 36.1672 C 413.4074 36.1636 412.9448 36.1577 412.7814 36.0702 C 412.4899 35.8727 412.5329 35.6487 412.5424 35.4194 C 412.5529 35.1831 412.5472 34.9458 412.9066 34.7439 C 413.0452 34.6652 413.4924 34.7552 413.7849 34.7547 Z " stroke-width="0.7036167259064662"/>
    </g>
  </g>
  <path id="ID0.1341159581206739" fill="url(#grad_3-.8370044231414795,0,0,0.9855573177337646,-17.4,-153.85)" stroke="none" d="M 8.0031 19.7559 L 27.0449 19.7559 L 27.0449 37.0032 L 8.0031 37.0032 L 8.0031 19.7559 Z " stroke-width="0.9143029123044981"/>
  <path id="ID0.1341159581206739" fill="url(#grad_4-0.8370044231414795,0,0,0.9855573773384094,445.3,-153.5)" stroke="none" d="M 419.8969 20.1059 L 400.8551 20.1059 L 400.8551 37.3532 L 419.8969 37.3532 L 419.8969 20.1059 Z " stroke-width="0.9143029444294065"/>
  <path id="ID0.8879775931127369" fill="#FFFF99" stroke="none" d="M 29.5 22.6846 L 401.5 22.6846 L 401.5 33.1846 L 29.5 33.1846 L 29.5 22.6846 Z " stroke-width="1.343403762298847"/>
  <path id="ID0.2159848902374506" fill="none" stroke="#F6550C" stroke-width="1" stroke-linecap="round" d="M 31.5 22.5 L 398 22.5 "/>
  <path id="ID0.6716103940270841" fill="none" stroke="#F6550C" stroke-width="1" stroke-linecap="round" d="M 399.5 33.5 L 32 33.5 "/>
  <path id="ID0.8879775931127369" fill="#FFFFFF" stroke="none" d="M 28.5091 24.5 L 404.2591 24.5 L 404.2591 31 L 28.5091 31 L 28.5091 24.5 Z " stroke-width="1.0050529863443316"/>
</svg>