<svg xmlns="http://www.w3.org/2000/svg" xmlns:xlink="http://www.w3.org/1999/xlink" version="1.1" width="436.1415795235026" height="48.991574182926456" viewBox="1.0792131946390662 1.3292131946390662 436.1415795235026 48.991574182926456">
  <defs>
    <linearGradient id="grad_1" y2="1" x2="0">
      <stop offset="0" stop-color="#7F7F7F" stop-opacity="1"/>
      <stop offset="1" stop-color="#7F7F7F" stop-opacity="1"/>
    </linearGradient>
    <linearGradient id="grad_2" y2="1" x2="0">
      <stop offset="0" stop-color="#7F7F7F" stop-opacity="1"/>
      <stop offset="1" stop-color="#7F7F7F" stop-opacity="1"/>
    </linearGradient>
    <linearGradient id="grad_3" x2="1">
      <stop offset="0" stop-color="#FFFFFF" stop-opacity="0"/>
      <stop offset="1" stop-color="#FFFFFF" stop-opacity="1"/>
    </linearGradient>
    <linearGradient id="grad_4" x2="1">
      <stop offset="0" stop-color="#FFFFFF" stop-opacity="0"/>
      <stop offset="1" stop-color="#FFFFFF" stop-opacity="1"/>
    </linearGradient>
  <linearGradient id="grad_3-.8370044231414795,0,0,0.9855573177337646,-15.4,-158.85" x2="29.0449" x1="10.0031" y1="14.7559" y2="14.7559" gradientUnits="userSpaceOnUse">
      <stop offset="0" stop-color="#FFFFFF" stop-opacity="0"/>
      <stop offset="1" stop-color="#FFFFFF" stop-opacity="1"/>
    </linearGradient><linearGradient id="grad_4-0.8370044231414795,0,0,0.9855573773384094,447.3,-158.5" x2="402.8551" x1="421.8969" y1="15.1059" y2="15.1059" gradientUnits="userSpaceOnUse">
      <stop offset="0" stop-color="#FFFFFF" stop-opacity="0"/>
      <stop offset="1" stop-color="#FFFFFF" stop-opacity="1"/>
    </linearGradient></defs>
  <!-- Exported by Scratch - http://scratch.mit.edu/ -->
  <g id="ID0.15166667848825455">
    <path id="ID0.6103713866323233" fill="#FFFF99" stroke="#F6550C" stroke-width="1" stroke-linecap="round" d="M 401.2 28.75 L 405.6 20.35 L 398.7 11.75 L 406.1 10.65 L 407 4.25 L 414.2 10.85 L 413.35 2.35 L 420.1 11.75 L 423.85 6.75 L 424.6 13.25 L 436.2 8.45 L 423.2 21.5 L 429.7 33.15 L 424.2 34.15 L 422.7 40.1 L 418.4 35.95 L 412.2 47.35 L 412.1 35.65 L 408.7 38.45 L 405.6 32.95 L 398.7 36.1 L 401.2 28.75 Z "/>
    <path id="ID0.6103713866323233" fill="#FFFFFF" stroke="#FFFFFF" stroke-width="1.280425030151773" stroke-linecap="round" d="M 404.7188 26.6542 L 407.1465 21.1257 L 402.7567 13.2628 L 407.6454 12.6485 L 409.0089 9.5157 L 417.323 19.8971 L 416.4583 9.8842 L 420.2163 16.6414 L 422.8436 11.0207 L 422.2117 17.0099 L 426.2025 14.7678 L 422.3447 18.4228 L 422.6108 28.0671 L 425.4708 31.0157 L 420.4824 30.4628 L 421.0145 36.145 L 416.5914 30.2785 L 413.8976 40.1378 L 412.4676 30.7699 L 409.0089 34.7628 L 407.8449 29.1421 L 402.4906 31.9985 L 404.7188 26.6542 Z "/>
  </g>
  <g id="ID0.15166667848825455">
    <path id="ID0.6103713866323233" fill="#FFFF99" stroke="#F6550C" stroke-width="1" stroke-linecap="round" d="M 33.5 17.4 L 34.1 28.9 L 36.1 41.4 L 27.1 32.3 L 24.7 37.5 L 19 28.9 L 21.35 43.8 L 14.6 34.4 L 9.1 49.3 L 10.1 32.9 L 2.1 36.4 L 11.5 24.65 L 5 13 L 11.35 13.5 L 9 5.65 L 16.3 10.2 L 19.1 7.65 L 22.6 10.5 L 26.35 6.15 L 29.1 13.2 L 35.5 9.5 L 33.5 17.4 Z "/>
    <path id="ID0.6103713866323233" fill="#FFFFFF" stroke="#FFFFFF" stroke-width="1.280425030151773" stroke-linecap="round" d="M 29.9812 19.4958 L 29.8814 26.3758 L 32.8745 35.6208 L 25.8574 28.6179 L 24.7599 33.8701 L 17.377 26.2529 L 18.2417 36.2658 L 14.4837 29.5086 L 11.8564 35.1293 L 12.4883 29.1401 L 8.4975 31.3822 L 12.3553 27.7272 L 12.0892 18.0829 L 9.2292 15.1343 L 14.2176 15.6872 L 11.7566 10.2508 L 18.1086 15.8715 L 18.8735 11.2643 L 22.2324 15.3801 L 25.8574 9.6365 L 26.8551 17.0079 L 32.8745 13.1379 L 29.9812 19.4958 Z "/>
  </g>
  <g id="ID0.7905531977303326">
    <g id="ID0.5061203637160361">
      <path id="ID0.8719925684854388" fill="#900415" stroke="none" d="M 18.5526 15.6798 C 20.1594 15.6798 21.6158 16.5371 22.6711 17.9226 C 23.7255 19.3093 24.3779 21.2229 24.3779 23.3343 C 24.3779 25.4456 23.7255 27.3593 22.6711 28.746 C 21.6158 30.1314 20.1594 30.9887 18.5526 30.9887 C 16.9458 30.9887 15.4895 30.1314 14.4342 28.746 C 13.3798 27.3593 12.7274 25.4456 12.7274 23.3343 C 12.7274 21.2229 13.3798 19.3093 14.4342 17.9226 C 15.4895 16.5371 16.9458 15.6798 18.5526 15.6798 Z " stroke-width="1.1336046508666302"/>
      <path id="ID0.7973887519910932" fill="#900415" stroke="none" d="M 18.6664 16.3235 C 20.2066 16.3235 21.6025 17.038 22.6125 18.1923 C 23.6237 19.3481 24.2489 20.9424 24.2489 22.7023 C 24.2489 24.4621 23.6237 26.0564 22.6125 27.2122 C 21.6025 28.3666 20.2066 29.081 18.6664 29.081 C 17.1262 29.081 15.7303 28.3666 14.7202 27.2122 C 13.7091 26.0564 13.0838 24.4621 13.0838 22.7023 C 13.0838 20.9424 13.7091 19.3481 14.7202 18.1923 C 15.7303 17.038 17.1262 16.3235 18.6664 16.3235 Z " stroke-width="1.2675718213124707"/>
      <path id="ID0.7973887519910932" fill="#B4051A" stroke="none" d="M 18.6813 15.673 C 19.9871 15.673 21.1706 16.3339 22.0269 17.4017 C 22.8842 18.4707 23.4143 19.9455 23.4143 21.5733 C 23.4143 23.2012 22.8842 24.6759 22.0269 25.745 C 21.1706 26.8128 19.9871 27.4736 18.6813 27.4736 C 17.3755 27.4736 16.192 26.8128 15.3356 25.745 C 14.4784 24.6759 13.9483 23.2012 13.9483 21.5733 C 13.9483 19.9455 14.4784 18.4707 15.3356 17.4017 C 16.192 16.3339 17.3755 15.673 18.6813 15.673 Z " stroke-width="1.1336046508666302"/>
      <path id="ID0.3765376480296254" fill="#D84545" stroke="none" d="M 19.6419 16.278 C 20.3448 16.278 20.9817 16.6352 21.4439 17.2131 C 21.905 17.7898 22.1905 18.5871 22.1905 19.4674 C 22.1905 20.3476 21.905 21.145 21.4439 21.7216 C 20.9817 22.2995 20.3448 22.6567 19.6419 22.6567 C 18.939 22.6567 18.3021 22.2995 17.84 21.7216 C 17.3788 21.145 17.0934 20.3476 17.0934 19.4674 C 17.0934 18.5871 17.3788 17.7898 17.84 17.2131 C 18.3021 16.6352 18.939 16.278 19.6419 16.278 Z " stroke-width="1.1336046508666302"/>
    </g>
    <path id="ID0.6058828267268836" fill="#7F7F7F" stroke="#666666" stroke-width="1.0171683441051405" stroke-linecap="round" d="M 7.7901 30.7571 L 14.5493 30.5515 C 16.8001 30.4833 16.0205 30.4671 16.168 29.8969 C 16.755 27.6294 16.5089 25.213 16.4225 22.8728 C 16.408 20.7792 16.3939 18.6374 15.8644 16.6117 C 15.7321 16.1051 15.3416 16.255 14.8081 16.2448 L 8.4015 16.5044 C 6.2333 16.5907 5.5421 18.242 4.6467 19.5533 C 3.8482 20.7238 3.4668 22.2113 3.4056 23.6468 C 3.3944 25.134 3.7351 26.7777 4.4811 28.168 C 5.1286 29.2498 7.1828 30.5033 7.4375 30.7032 L 7.7901 30.7571 Z "/>
    <path id="ID0.9674056498333812" fill="#666666" stroke="#666666" stroke-width="2.0415734199870044" stroke-linecap="round" d="M 14.9373 24.7299 C 14.1793 24.559 12.8854 25.3409 11.5779 25.4511 C 10.5927 25.5092 9.585 25.3534 8.6279 25.2423 C 7.7191 25.1342 6.833 25.0422 6.0143 24.9028 C 5.5591 24.7794 4.9832 24.2905 4.8772 24.4678 C 4.5753 25.0125 4.7438 25.8001 5.1307 26.4422 C 5.3613 26.8246 5.8012 27.1973 6.5994 27.3862 C 7.79 27.667 9.3975 27.8129 10.7561 27.684 C 12.3605 27.5308 13.5835 27.0729 14.7884 26.7013 C 15.1692 26.5395 15.2984 26.3117 15.3292 26.1456 C 15.4131 25.6857 16.0668 24.9346 15.2054 24.7586 Z "/>
    <path id="ID0.9674056498333812" fill="#909090" stroke="#909090" stroke-linecap="round" d="M 15.4426 18.2461 C 15.5827 20.5889 15.5902 22.933 15.5611 25.2878 C 15.5532 25.8767 15.418 25.7807 15.2755 25.2856 C 14.7054 23.306 15.805 20.796 13.7205 19.3613 C 12.3195 18.3308 9.6794 19.6732 7.6043 19.8599 C 6.8418 19.9281 5.7551 20.4077 5.3177 20.0761 C 4.8746 19.7398 5.3878 18.9532 5.8435 18.5241 C 6.5385 17.8703 7.4596 17.2183 8.597 16.9888 C 10.0903 16.6873 11.7205 16.8536 13.2822 16.8684 C 13.8865 16.8799 14.6501 16.8258 15.1083 17.1155 C 15.5154 17.3769 15.4082 17.6592 15.4426 18.2461 Z " stroke-width="0.9773622361329104"/>
    <path id="ID0.4307934483513236" fill="#404040" stroke="none" d="M 14.1018 21.2152 L 11.8505 21.2152 L 11.8505 25.4927 L 14.1018 25.4927 L 14.1018 21.2152 Z " stroke-width="1.1256544589996338"/>
    <path id="ID0.4307934483513236" fill="#404040" stroke="none" d="M 11.0018 21.3152 L 8.7505 21.3152 L 8.7505 25.5927 L 11.0018 25.5927 L 11.0018 21.3152 Z " stroke-width="1.1256544589996338"/>
    <path id="ID0.4307934483513236" fill="#404040" stroke="none" stroke-linecap="round" d="M 7.7518 21.3152 L 5.6694 22.6097 L 5.7257 24.5233 L 7.7518 25.5927 L 7.7518 21.3152 Z " stroke-width="1.1256544589996338"/>
    <g id="ID0.17177307419478893">
      <path id="ID0.7767012165859342" fill="#E5E5E5" stroke="url(#grad_1)" stroke-width="0.9448526938922124" stroke-linecap="round" d="M 19.0253 16.3605 L 17.7681 15.3215 L 15.3436 15.4204 L 15.1191 31.5 L 18.0375 31.5 L 18.9804 30.3126 L 19.0253 16.3605 Z "/>
      <path id="ID0.3737245574593544" fill="#CCCCCC" stroke="none" stroke-linecap="round" d="M 17.5673 18.5508 C 17.3703 18.2705 16.687 18.4371 16.6105 18.7196 C 16.3696 19.5504 16.884 20.5072 16.6668 21.3086 C 16.5925 21.5799 15.9013 20.9541 15.8225 21.2524 C 15.5152 22.432 15.6514 23.6917 15.6537 24.9107 C 15.6548 26.311 15.3835 27.8498 15.8225 29.2445 C 15.979 29.6993 16.7095 29.7679 17.2296 29.8073 C 17.6562 29.8388 18.2866 29.6858 18.4115 29.3008 C 18.8089 27.9511 18.6355 26.4788 18.6366 25.1359 C 18.6389 24.0023 18.6231 22.853 18.4228 21.7375 C 18.2258 20.6344 18.1031 19.4885 17.5673 18.5508 Z " stroke-width="1.1256544589996338"/>
      <path id="ID0.7302700718864799" fill="#B2B2B2" stroke="none" stroke-linecap="round" d="M 17.2044 22.6126 C 16.8431 22.5884 16.2758 22.1548 16.0788 22.4547 C 15.642 23.2523 15.7467 24.2277 15.7411 25.1379 C 15.7366 26.0155 15.5925 26.9436 15.9662 27.7159 C 16.1959 28.0758 16.851 27.9979 17.2607 27.979 C 17.6491 27.9653 18.1939 27.9432 18.3864 27.6107 C 18.7297 26.8605 18.6791 26.0092 18.6678 25.1379 C 18.6554 24.2404 18.6622 23.3386 18.2389 22.5715 C 18.0757 22.2727 17.5489 22.6147 17.2044 22.6126 Z " stroke-width="1.0895668347769794"/>
      <path id="ID0.7302700718864799" fill="#909090" stroke="none" stroke-linecap="round" d="M 17.0544 24.175 C 16.6931 24.1615 16.1258 23.9187 15.9288 24.0866 C 15.492 24.5333 15.5967 25.0795 15.5911 25.5892 C 15.5866 26.0807 15.4425 26.6004 15.8162 27.0329 C 16.0459 27.2344 16.701 27.1908 17.1107 27.1802 C 17.4991 27.1726 18.0439 27.1602 18.2364 26.974 C 18.5797 26.5538 18.5291 26.0771 18.5178 25.5892 C 18.5054 25.0866 18.5122 24.5816 18.0889 24.152 C 17.9257 23.9847 17.3989 24.1762 17.0544 24.175 Z " stroke-width="0.8984208812398597"/>
      <path id="ID0.7302700718864799" fill="#CCCCCC" stroke="none" stroke-linecap="round" d="M 17.2598 15.8695 C 16.9257 15.8626 16.4012 15.7383 16.2191 15.8243 C 15.8153 16.0529 15.9121 16.3324 15.9069 16.5933 C 15.9027 16.8448 15.7695 17.1108 16.115 17.3322 C 16.3273 17.4353 16.933 17.413 17.3118 17.4076 C 17.6709 17.4036 18.1746 17.3973 18.3525 17.302 C 18.6699 17.087 18.6231 16.843 18.6127 16.5933 C 18.6012 16.3361 18.6075 16.0776 18.2162 15.8578 C 18.0653 15.7721 17.5782 15.8701 17.2598 15.8695 Z " stroke-width="0.7661604270659502"/>
      <path id="ID0.7302700718864799" fill="#B2B2B2" stroke="none" stroke-linecap="round" d="M 16.9651 29.6547 C 16.6583 29.6483 16.1766 29.5342 16.0094 29.6131 C 15.6385 29.8231 15.7274 30.0798 15.7226 30.3194 C 15.7188 30.5503 15.5965 30.7946 15.9138 30.9979 C 16.1088 31.0926 16.665 31.0721 17.0129 31.0672 C 17.3426 31.0636 17.8052 31.0577 17.9686 30.9702 C 18.2601 30.7727 18.2171 30.5487 18.2076 30.3194 C 18.1971 30.0831 18.2028 29.8458 17.8434 29.6439 C 17.7048 29.5652 17.2576 29.6552 16.9651 29.6547 Z " stroke-width="0.7036167259064662"/>
    </g>
  </g>
  <g id="ID0.7905531977303326">
    <g id="ID0.5061203637160361">
      <path id="ID0.8719925684854388" fill="#900415" stroke="none" d="M 414.1974 15.8298 C 412.5906 15.8298 411.1342 16.6871 410.0789 18.0726 C 409.0245 19.4593 408.3721 21.3729 408.3721 23.4843 C 408.3721 25.5956 409.0245 27.5093 410.0789 28.896 C 411.1342 30.2814 412.5906 31.1387 414.1974 31.1387 C 415.8042 31.1387 417.2605 30.2814 418.3158 28.896 C 419.3702 27.5093 420.0226 25.5956 420.0226 23.4843 C 420.0226 21.3729 419.3702 19.4593 418.3158 18.0726 C 417.2605 16.6871 415.8042 15.8298 414.1974 15.8298 Z " stroke-width="1.1336046508666302"/>
      <path id="ID0.7973887519910932" fill="#900415" stroke="none" d="M 414.1336 16.4735 C 412.5934 16.4735 411.1975 17.188 410.1875 18.3423 C 409.1763 19.4981 408.5511 21.0924 408.5511 22.8523 C 408.5511 24.6121 409.1763 26.2064 410.1875 27.3622 C 411.1975 28.5166 412.5934 29.231 414.1336 29.231 C 415.6738 29.231 417.0697 28.5166 418.0798 27.3622 C 419.0909 26.2064 419.7162 24.6121 419.7162 22.8523 C 419.7162 21.0924 419.0909 19.4981 418.0798 18.3423 C 417.0697 17.188 415.6738 16.4735 414.1336 16.4735 Z " stroke-width="1.2675718213124707"/>
      <path id="ID0.7973887519910932" fill="#B4051A" stroke="none" d="M 414.0687 15.773 C 412.7629 15.773 411.5794 16.4339 410.7231 17.5017 C 409.8658 18.5707 409.3357 20.0455 409.3357 21.6733 C 409.3357 23.3012 409.8658 24.7759 410.7231 25.845 C 411.5794 26.9128 412.7629 27.5736 414.0687 27.5736 C 415.3745 27.5736 416.558 26.9128 417.4144 25.845 C 418.2716 24.7759 418.8017 23.3012 418.8017 21.6733 C 418.8017 20.0455 418.2716 18.5707 417.4144 17.5017 C 416.558 16.4339 415.3745 15.773 414.0687 15.773 Z " stroke-width="1.1336046508666302"/>
      <path id="ID0.3765376480296254" fill="#D84545" stroke="none" d="M 413.1581 16.378 C 412.4552 16.378 411.8183 16.7352 411.3561 17.3131 C 410.895 17.8898 410.6095 18.6871 410.6095 19.5674 C 410.6095 20.4476 410.895 21.245 411.3561 21.8216 C 411.8183 22.3995 412.4552 22.7567 413.1581 22.7567 C 413.861 22.7567 414.4979 22.3995 414.96 21.8216 C 415.4212 21.245 415.7066 20.4476 415.7066 19.5674 C 415.7066 18.6871 415.4212 17.8898 414.96 17.3131 C 414.4979 16.7352 413.861 16.378 413.1581 16.378 Z " stroke-width="1.1336046508666302"/>
    </g>
    <path id="ID0.6058828267268836" fill="#7F7F7F" stroke="#666666" stroke-width="1.0171683441051405" stroke-linecap="round" d="M 424.9599 30.8571 L 418.2007 30.6515 C 415.9499 30.5833 416.7295 30.5671 416.582 29.9969 C 415.995 27.7294 416.2411 25.313 416.3275 22.9728 C 416.342 20.8792 416.3561 18.7374 416.8856 16.7117 C 417.0179 16.2051 417.4084 16.355 417.9419 16.3448 L 424.3485 16.6044 C 426.5167 16.6907 427.2079 18.342 428.1033 19.6533 C 428.9018 20.8238 429.2832 22.3113 429.3444 23.7468 C 429.3556 25.234 429.0149 26.8777 428.2689 28.268 C 427.6214 29.3498 425.5672 30.6033 425.3125 30.8032 L 424.9599 30.8571 Z "/>
    <path id="ID0.9674056498333812" fill="#666666" stroke="#666666" stroke-width="2.0415734199870044" stroke-linecap="round" d="M 417.8127 24.8299 C 418.5707 24.659 419.8646 25.4409 421.1721 25.5511 C 422.1573 25.6092 423.165 25.4534 424.1221 25.3423 C 425.0309 25.2342 425.917 25.1422 426.7357 25.0028 C 427.1909 24.8794 427.7668 24.3905 427.8728 24.5678 C 428.1747 25.1125 428.0062 25.9001 427.6193 26.5422 C 427.3887 26.9246 426.9488 27.2973 426.1506 27.4862 C 424.96 27.767 423.3525 27.9129 421.9939 27.784 C 420.3895 27.6308 419.1665 27.1729 417.9616 26.8013 C 417.5808 26.6395 417.4516 26.4117 417.4208 26.2456 C 417.3369 25.7857 416.6832 25.0346 417.5446 24.8586 Z "/>
    <path id="ID0.9674056498333812" fill="#909090" stroke="#909090" stroke-linecap="round" d="M 417.3074 18.2961 C 417.1673 20.6389 417.1598 22.983 417.1889 25.3378 C 417.1968 25.9267 417.332 25.8307 417.4745 25.3356 C 418.0446 23.356 416.945 20.846 419.0295 19.4113 C 420.4305 18.3808 423.0706 19.7232 425.1457 19.9099 C 425.9082 19.9781 426.9949 20.4577 427.4323 20.1261 C 427.8754 19.7898 427.3622 19.0032 426.9065 18.5741 C 426.2115 17.9203 425.2904 17.2683 424.153 17.0388 C 422.6597 16.7373 421.0295 16.9036 419.4678 16.9184 C 418.8635 16.9299 418.0999 16.8758 417.6417 17.1655 C 417.2346 17.4269 417.3418 17.7092 417.3074 18.2961 Z " stroke-width="0.9773622361329104"/>
    <path id="ID0.4307934483513236" fill="#404040" stroke="none" d="M 418.6982 21.3652 L 420.9495 21.3652 L 420.9495 25.6427 L 418.6982 25.6427 L 418.6982 21.3652 Z " stroke-width="1.1256544589996338"/>
    <path id="ID0.4307934483513236" fill="#404040" stroke="none" d="M 421.7482 21.4152 L 423.9995 21.4152 L 423.9995 25.6927 L 421.7482 25.6927 L 421.7482 21.4152 Z " stroke-width="1.1256544589996338"/>
    <path id="ID0.4307934483513236" fill="#404040" stroke="none" stroke-linecap="round" d="M 424.9982 21.4152 L 427.0806 22.7097 L 427.0243 24.6233 L 424.9982 25.6927 L 424.9982 21.4152 Z " stroke-width="1.1256544589996338"/>
    <g id="ID0.17177307419478893">
      <path id="ID0.7767012165859342" fill="#E5E5E5" stroke="url(#grad_2)" stroke-width="0.9448526938922124" stroke-linecap="round" d="M 413.7747 16.4605 L 415.0319 15.4215 L 417.4564 15.5204 L 417.6809 31.6 L 414.7625 31.6 L 413.8196 30.4126 L 413.7747 16.4605 Z "/>
      <path id="ID0.3737245574593544" fill="#CCCCCC" stroke="none" stroke-linecap="round" d="M 415.1827 18.6508 C 415.3797 18.3705 416.063 18.5371 416.1395 18.8196 C 416.3804 19.6504 415.866 20.6072 416.0832 21.4086 C 416.1575 21.6799 416.8487 21.0541 416.9275 21.3524 C 417.2348 22.532 417.0986 23.7917 417.0963 25.0107 C 417.0952 26.411 417.3665 27.9498 416.9275 29.3445 C 416.771 29.7993 416.0405 29.8679 415.5204 29.9073 C 415.0938 29.9388 414.4634 29.7858 414.3385 29.4008 C 413.9411 28.0511 414.1145 26.5788 414.1134 25.2359 C 414.1111 24.1023 414.1269 22.953 414.3272 21.8375 C 414.5242 20.7344 414.6469 19.5885 415.1827 18.6508 Z " stroke-width="1.1256544589996338"/>
      <path id="ID0.7302700718864799" fill="#B2B2B2" stroke="none" stroke-linecap="round" d="M 415.5456 22.7126 C 415.9069 22.6884 416.4742 22.2548 416.6712 22.5547 C 417.108 23.3523 417.0033 24.3277 417.0089 25.2379 C 417.0134 26.1155 417.1575 27.0436 416.7838 27.8159 C 416.5541 28.1758 415.899 28.0979 415.4893 28.079 C 415.1009 28.0653 414.5561 28.0432 414.3636 27.7107 C 414.0203 26.9605 414.0709 26.1092 414.0822 25.2379 C 414.0946 24.3404 414.0878 23.4386 414.5111 22.6715 C 414.6743 22.3727 415.2011 22.7147 415.5456 22.7126 Z " stroke-width="1.0895668347769794"/>
      <path id="ID0.7302700718864799" fill="#909090" stroke="none" stroke-linecap="round" d="M 415.7456 24.325 C 416.1069 24.3115 416.6742 24.0687 416.8712 24.2366 C 417.308 24.6833 417.2033 25.2295 417.2089 25.7392 C 417.2134 26.2307 417.3575 26.7504 416.9838 27.1829 C 416.7541 27.3844 416.099 27.3408 415.6893 27.3302 C 415.3009 27.3226 414.7561 27.3102 414.5636 27.124 C 414.2203 26.7038 414.2709 26.2271 414.2822 25.7392 C 414.2946 25.2366 414.2878 24.7316 414.7111 24.302 C 414.8743 24.1347 415.4011 24.3262 415.7456 24.325 Z " stroke-width="0.8984208812398597"/>
      <path id="ID0.7302700718864799" fill="#CCCCCC" stroke="none" stroke-linecap="round" d="M 415.5402 15.9695 C 415.8743 15.9626 416.3988 15.8383 416.5809 15.9243 C 416.9847 16.1529 416.8879 16.4324 416.8931 16.6933 C 416.8973 16.9448 417.0305 17.2108 416.685 17.4322 C 416.4727 17.5353 415.867 17.513 415.4882 17.5076 C 415.1291 17.5036 414.6254 17.4973 414.4475 17.402 C 414.1301 17.187 414.1769 16.943 414.1873 16.6933 C 414.1988 16.4361 414.1925 16.1776 414.5838 15.9578 C 414.7347 15.8721 415.2218 15.9701 415.5402 15.9695 Z " stroke-width="0.7661604270659502"/>
      <path id="ID0.7302700718864799" fill="#B2B2B2" stroke="none" stroke-linecap="round" d="M 415.7849 29.7547 C 416.0917 29.7483 416.5734 29.6342 416.7406 29.7131 C 417.1115 29.9231 417.0226 30.1798 417.0274 30.4194 C 417.0312 30.6503 417.1535 30.8946 416.8362 31.0979 C 416.6412 31.1926 416.085 31.1721 415.7371 31.1672 C 415.4074 31.1636 414.9448 31.1577 414.7814 31.0702 C 414.4899 30.8727 414.5329 30.6487 414.5424 30.4194 C 414.5529 30.1831 414.5472 29.9458 414.9066 29.7439 C 415.0452 29.6652 415.4924 29.7552 415.7849 29.7547 Z " stroke-width="0.7036167259064662"/>
    </g>
  </g>
  <path id="ID0.1341159581206739" fill="url(#grad_3-.8370044231414795,0,0,0.9855573177337646,-15.4,-158.85)" stroke="none" d="M 10.0031 14.7559 L 29.0449 14.7559 L 27.3709 31.4118 L 10.0031 32.0032 L 10.0031 14.7559 Z " stroke-width="0.9143029123044981"/>
  <path id="ID0.1341159581206739" fill="url(#grad_4-0.8370044231414795,0,0,0.9855573773384094,447.3,-158.5)" stroke="none" d="M 421.8969 15.1059 L 402.8551 15.1059 L 402.8551 32.3532 L 421.8969 32.3532 L 421.8969 15.1059 Z " stroke-width="0.9143029444294065"/>
  <path id="ID0.8879775931127369" fill="#FFFF99" stroke="none" d="M 31.5 17.6846 L 403.5 17.6846 L 403.5 28.1846 L 31.5 28.1846 L 31.5 17.6846 Z " stroke-width="1.343403762298847"/>
  <path id="ID0.2159848902374506" fill="none" stroke="#F6550C" stroke-width="1" stroke-linecap="round" d="M 33.5 17.5 L 403 17.9 "/>
  <path id="ID0.6716103940270841" fill="none" stroke="#F6550C" stroke-width="1" stroke-linecap="round" d="M 401.5 28.5 L 34 28.5 "/>
  <path id="ID0.8879775931127369" fill="#FFFFFF" stroke="none" d="M 30.5091 19.5 L 406.2591 19.5 L 406.2591 26 L 30.5091 26 L 30.5091 19.5 Z " stroke-width="1.0050529863443316"/>
</svg>